<svg width="132" height="43" viewBox="0 0 132 43" fill="none" xmlns="http://www.w3.org/2000/svg">
<path d="M35.7297 17.767L32.1778 19.8138L31.3651 20.2353L26.835 17.8724L31.3801 15.5847L35.7297 17.767Z" fill="#E2E2E2"/>
<path d="M30.8678 7.75854L30.5969 13.4325L25.7959 16.5479L25.9765 10.6934L30.8678 7.75854Z" fill="#E2E2E2"/>
<path d="M57.7029 34.9843C57.6728 35.0445 57.6277 35.0897 57.5825 35.1198C57.5374 35.1499 57.4922 35.1649 57.417 35.1649C57.3417 35.1649 57.2665 35.1348 57.1762 35.0596C57.0859 34.9843 56.9655 34.9091 56.83 34.8338C56.6946 34.7435 56.5139 34.6683 56.3183 34.6081C56.1226 34.5328 55.8818 34.5027 55.5959 34.5027C55.325 34.5027 55.0842 34.5328 54.8885 34.6081C54.6778 34.6833 54.5123 34.7736 54.3768 34.894C54.2414 35.0144 54.136 35.1649 54.0607 35.3305C53.9855 35.496 53.9554 35.6766 53.9554 35.8723C53.9554 36.1131 54.0156 36.3238 54.136 36.4893C54.2564 36.6549 54.422 36.7903 54.6176 36.9107C54.8133 37.0311 55.039 37.1214 55.2949 37.2118C55.5507 37.3021 55.8066 37.3773 56.0775 37.4676C56.3484 37.5579 56.6043 37.6633 56.8601 37.7686C57.116 37.889 57.3417 38.0245 57.5374 38.2051C57.733 38.3706 57.8986 38.5964 58.019 38.8372C58.1394 39.093 58.1996 39.394 58.1996 39.7703C58.1996 40.1616 58.1394 40.5228 58.0039 40.8539C57.8685 41.2001 57.6728 41.486 57.432 41.7419C57.1762 41.9977 56.8752 42.1934 56.4989 42.3288C56.1377 42.4794 55.7163 42.5396 55.2497 42.5396C54.6778 42.5396 54.1511 42.4342 53.6845 42.2235C53.2179 42.0128 52.8116 41.7419 52.4805 41.3807L52.8266 40.8088C52.8567 40.7636 52.9019 40.7185 52.947 40.6884C52.9922 40.6583 53.0524 40.6432 53.0975 40.6432C53.1878 40.6432 53.2781 40.6884 53.3985 40.7787C53.5189 40.869 53.6544 40.9743 53.8199 41.0797C53.9855 41.185 54.1812 41.2904 54.422 41.3807C54.6628 41.471 54.9487 41.5161 55.2949 41.5161C55.5808 41.5161 55.8367 41.471 56.0474 41.3957C56.2731 41.3205 56.4537 41.2001 56.6193 41.0646C56.7698 40.9292 56.8902 40.7486 56.9805 40.5529C57.0558 40.3573 57.1009 40.1315 57.1009 39.8907C57.1009 39.6198 57.0407 39.4091 56.9203 39.2285C56.7999 39.0629 56.6344 38.9124 56.4387 38.792C56.243 38.6716 56.0173 38.5813 55.7614 38.5061C55.5056 38.4308 55.2497 38.3405 54.9788 38.2653C54.7079 38.19 54.4521 38.0847 54.1962 37.9793C53.9404 37.874 53.7146 37.7235 53.5189 37.5429C53.3233 37.3623 53.1577 37.1516 53.0373 36.8807C52.9169 36.6097 52.8567 36.2937 52.8567 35.9024C52.8567 35.5863 52.9169 35.2853 53.0373 34.9994C53.1577 34.7134 53.3383 34.4425 53.5641 34.2167C53.7898 33.991 54.0758 33.8104 54.422 33.6749C54.7681 33.5395 55.1444 33.4642 55.5959 33.4642C56.0925 33.4642 56.544 33.5395 56.9504 33.705C57.3568 33.8555 57.718 34.0813 58.019 34.3823L57.7029 34.9843Z" fill="#E2E2E2"/>
<path d="M64.4911 36.0981C64.9426 36.0981 65.364 36.1734 65.7252 36.3239C66.0864 36.4744 66.4025 36.6851 66.6583 36.9711C66.9142 37.257 67.1099 37.5881 67.2453 37.9945C67.3808 38.3858 67.456 38.8373 67.456 39.3189C67.456 39.8156 67.3808 40.252 67.2453 40.6584C67.1099 41.0497 66.9142 41.3958 66.6583 41.6668C66.4025 41.9527 66.0864 42.1634 65.7252 42.3139C65.364 42.4644 64.9426 42.5397 64.4911 42.5397C64.0396 42.5397 63.6182 42.4644 63.257 42.3139C62.8958 42.1634 62.5797 41.9527 62.3088 41.6668C62.053 41.3808 61.8573 41.0497 61.7068 40.6584C61.5713 40.2671 61.4961 39.8156 61.4961 39.3189C61.4961 38.8222 61.5713 38.3858 61.7068 37.9945C61.8423 37.6032 62.053 37.257 62.3088 36.9711C62.5647 36.6851 62.8807 36.4744 63.257 36.3239C63.6332 36.1734 64.0245 36.0981 64.4911 36.0981ZM64.4911 41.6818C65.1082 41.6818 65.5747 41.4711 65.8757 41.0647C66.1767 40.6433 66.3272 40.0714 66.3272 39.334C66.3272 38.5814 66.1767 38.0095 65.8757 37.5881C65.5747 37.1667 65.1082 36.9711 64.4911 36.9711C64.175 36.9711 63.9041 37.0313 63.6784 37.1366C63.4526 37.242 63.257 37.3925 63.1065 37.6032C62.956 37.7988 62.8356 38.0547 62.7603 38.3406C62.6851 38.6266 62.6399 38.9727 62.6399 39.334C62.6399 39.6952 62.6851 40.0413 62.7603 40.3273C62.8356 40.6132 62.956 40.8691 63.1065 41.0647C63.257 41.2604 63.4526 41.4109 63.6784 41.5313C63.9041 41.6366 64.175 41.6818 64.4911 41.6818Z" fill="#E2E2E2"/>
<path d="M72.4522 33.359V42.4494H71.3535V33.359H72.4522Z" fill="#E2E2E2"/>
<path d="M77.75 36.2035V40.1918C77.75 40.6584 77.8554 41.0346 78.0811 41.2905C78.3069 41.5463 78.623 41.6818 79.0745 41.6818C79.3905 41.6818 79.6915 41.6065 79.9775 41.456C80.2635 41.3055 80.5193 41.0948 80.7601 40.8239V36.2035H81.8588V42.4644H81.2116C81.0611 42.4644 80.9558 42.3892 80.9106 42.2387L80.8203 41.5614C80.5494 41.8624 80.2484 42.1032 79.9022 42.2838C79.5711 42.4644 79.1798 42.5547 78.7434 42.5547C78.3972 42.5547 78.0962 42.4945 77.8403 42.3892C77.5845 42.2688 77.3587 42.1182 77.1781 41.9075C76.9975 41.6968 76.8621 41.456 76.7868 41.155C76.7116 40.854 76.6514 40.538 76.6514 40.1918V36.2035H77.75Z" fill="#E2E2E2"/>
<path d="M87.9845 42.5546C87.4879 42.5546 87.1116 42.4192 86.8407 42.1483C86.5698 41.8774 86.4494 41.471 86.4494 40.9593V37.1215H85.6969C85.6367 37.1215 85.5765 37.1064 85.5313 37.0613C85.4862 37.0161 85.4561 36.9559 85.4561 36.8807V36.4442L86.4795 36.3088L86.7353 34.3823C86.7504 34.3221 86.7654 34.277 86.8106 34.2318C86.8557 34.1867 86.9159 34.1716 86.9761 34.1716H87.533V36.3238H89.324V37.1215H87.533V40.869C87.533 41.1399 87.5932 41.3356 87.7287 41.456C87.8641 41.5764 88.0146 41.6516 88.2253 41.6516C88.3457 41.6516 88.436 41.6366 88.5263 41.6065C88.6166 41.5764 88.6768 41.5463 88.7521 41.5011C88.8273 41.456 88.8725 41.4259 88.9026 41.3958C88.9327 41.3657 88.9778 41.3506 89.023 41.3506C89.0832 41.3506 89.1283 41.3807 89.1735 41.456L89.4895 41.9827C89.2939 42.1633 89.0681 42.2988 88.7972 42.4041C88.5263 42.5095 88.2705 42.5546 87.9845 42.5546Z" fill="#E2E2E2"/>
<path d="M94.5766 34.2318C94.5766 34.3372 94.5615 34.4425 94.5163 34.5328C94.4712 34.6231 94.411 34.7135 94.3508 34.7737C94.2906 34.8339 94.2003 34.9091 94.0949 34.9392C94.0046 34.9844 93.8993 34.9994 93.7939 34.9994C93.6886 34.9994 93.5832 34.9844 93.4929 34.9392C93.4026 34.8941 93.3123 34.8489 93.2521 34.7737C93.1769 34.6984 93.1167 34.6231 93.0866 34.5328C93.0565 34.4425 93.0264 34.3372 93.0264 34.2318C93.0264 34.1265 93.0414 34.0211 93.0866 33.9308C93.1317 33.8405 93.1769 33.7502 93.2521 33.675C93.3274 33.5997 93.4026 33.5395 93.4929 33.5094C93.5832 33.4793 93.6886 33.4492 93.7939 33.4492C93.8993 33.4492 94.0046 33.4643 94.0949 33.5094C94.1852 33.5546 94.2755 33.5997 94.3508 33.675C94.4261 33.7502 94.4862 33.8255 94.5163 33.9308C94.5464 34.0362 94.5766 34.1265 94.5766 34.2318ZM94.3207 36.2034V42.4643H93.222V36.2034H94.3207Z" fill="#E2E2E2"/>
<path d="M101.214 36.0981C101.665 36.0981 102.087 36.1734 102.448 36.3239C102.809 36.4744 103.125 36.6851 103.381 36.9711C103.637 37.257 103.833 37.5881 103.968 37.9945C104.103 38.3858 104.179 38.8373 104.179 39.3189C104.179 39.8156 104.103 40.252 103.968 40.6584C103.833 41.0497 103.637 41.3958 103.381 41.6668C103.125 41.9527 102.809 42.1634 102.448 42.3139C102.087 42.4644 101.665 42.5397 101.214 42.5397C100.762 42.5397 100.341 42.4644 99.9796 42.3139C99.6184 42.1634 99.3024 41.9527 99.0315 41.6668C98.7756 41.3808 98.58 41.0497 98.4295 40.6584C98.294 40.2671 98.2188 39.8156 98.2188 39.3189C98.2188 38.8222 98.294 38.3858 98.4295 37.9945C98.5649 37.6032 98.7756 37.257 99.0315 36.9711C99.2873 36.6851 99.6034 36.4744 99.9796 36.3239C100.356 36.1734 100.747 36.0981 101.214 36.0981ZM101.214 41.6818C101.831 41.6818 102.297 41.4711 102.598 41.0647C102.899 40.6433 103.05 40.0714 103.05 39.334C103.05 38.5814 102.899 38.0095 102.598 37.5881C102.297 37.1667 101.831 36.9711 101.214 36.9711C100.898 36.9711 100.627 37.0313 100.401 37.1366C100.175 37.242 99.9796 37.3925 99.8291 37.6032C99.6786 37.7988 99.5582 38.0547 99.483 38.3406C99.4077 38.6266 99.3626 38.9727 99.3626 39.334C99.3626 39.6952 99.4077 40.0413 99.483 40.3273C99.5582 40.6132 99.6786 40.8691 99.8291 41.0647C99.9796 41.2604 100.175 41.4109 100.401 41.5313C100.627 41.6366 100.898 41.6818 101.214 41.6818Z" fill="#E2E2E2"/>
<path d="M107.956 42.4494V36.1884H108.603C108.754 36.1884 108.859 36.2637 108.904 36.4142L108.995 37.0915C109.265 36.7905 109.566 36.5497 109.913 36.369C110.244 36.1884 110.635 36.0981 111.071 36.0981C111.418 36.0981 111.719 36.1583 111.974 36.2637C112.23 36.3841 112.456 36.5346 112.622 36.7453C112.802 36.956 112.923 37.1968 113.013 37.4978C113.103 37.7838 113.148 38.1149 113.148 38.461V42.4494H112.05V38.4761C112.05 38.0095 111.944 37.6333 111.719 37.3774C111.508 37.1216 111.177 36.9861 110.725 36.9861C110.394 36.9861 110.093 37.0614 109.807 37.2269C109.521 37.3774 109.265 37.5881 109.025 37.859V42.4644H107.956V42.4494Z" fill="#E2E2E2"/>
<path d="M120.809 37.2269C120.764 37.3172 120.689 37.3623 120.583 37.3623C120.523 37.3623 120.448 37.3473 120.372 37.2871C120.297 37.2419 120.192 37.1968 120.087 37.1366C119.981 37.0764 119.846 37.0312 119.68 36.9861C119.53 36.9409 119.334 36.9108 119.123 36.9108C118.943 36.9108 118.777 36.9409 118.627 36.9861C118.476 37.0312 118.356 37.0914 118.25 37.1817C118.145 37.272 118.07 37.3623 118.01 37.4677C117.949 37.573 117.919 37.6934 117.919 37.8289C117.919 37.9944 117.964 38.1299 118.055 38.2353C118.145 38.3406 118.265 38.4309 118.416 38.5062C118.566 38.5814 118.747 38.6567 118.928 38.7169C119.123 38.7771 119.319 38.8373 119.53 38.9125C119.74 38.9878 119.936 39.063 120.132 39.1383C120.327 39.2135 120.493 39.3189 120.643 39.4543C120.794 39.5747 120.914 39.7252 121.005 39.9058C121.095 40.0864 121.14 40.2971 121.14 40.553C121.14 40.839 121.095 41.1099 120.99 41.3507C120.884 41.5915 120.734 41.8022 120.538 41.9828C120.342 42.1634 120.087 42.2988 119.801 42.4042C119.515 42.5095 119.168 42.5547 118.792 42.5547C118.356 42.5547 117.964 42.4794 117.603 42.344C117.242 42.2085 116.956 42.0129 116.7 41.8022L116.956 41.3808C116.986 41.3206 117.031 41.2905 117.076 41.2604C117.122 41.2303 117.182 41.2152 117.257 41.2152C117.332 41.2152 117.408 41.2453 117.498 41.3055C117.573 41.3657 117.678 41.4259 117.799 41.5012C117.919 41.5764 118.055 41.6366 118.22 41.6968C118.386 41.757 118.597 41.7871 118.852 41.7871C119.063 41.7871 119.259 41.757 119.409 41.6968C119.575 41.6366 119.71 41.5614 119.816 41.4711C119.921 41.3808 119.996 41.2604 120.056 41.14C120.102 41.0196 120.132 40.8841 120.132 40.7486C120.132 40.5831 120.086 40.4326 119.996 40.3122C119.906 40.1918 119.786 40.1015 119.635 40.0262C119.484 39.951 119.304 39.8757 119.108 39.8155C118.913 39.7553 118.717 39.6951 118.506 39.6199C118.296 39.5597 118.1 39.4844 117.904 39.3941C117.709 39.3038 117.528 39.1985 117.377 39.0781C117.227 38.9577 117.107 38.7921 117.016 38.6115C116.926 38.4309 116.881 38.1901 116.881 37.9342C116.881 37.6934 116.926 37.4677 117.031 37.2419C117.137 37.0162 117.272 36.8356 117.468 36.655C117.663 36.4894 117.889 36.354 118.16 36.2637C118.431 36.1583 118.747 36.1132 119.108 36.1132C119.515 36.1132 119.891 36.1734 120.222 36.3088C120.553 36.4443 120.839 36.6098 121.065 36.8356L120.809 37.2269Z" fill="#E2E2E2"/>
<path d="M67.3355 4.71838V7.84884H56.3488V15.0429H65.1231V18.068H56.3488V25.4426H67.3506L67.3355 28.5731H52.4658V4.71838H67.3355Z" fill="#9FCAD1"/>
<path d="M83.8605 20.2202C84.011 20.5513 84.1465 20.8974 84.2819 21.2586C84.4174 20.9125 84.5528 20.5513 84.7033 20.2051C84.8538 19.859 85.0044 19.5279 85.1699 19.1968L92.7101 5.36554C92.8606 5.04949 93.0412 4.86888 93.2218 4.80868C93.4024 4.74848 93.6733 4.71838 94.0195 4.71838H96.9242V28.5731H93.5078V12.2285C93.5078 11.9576 93.5228 11.6716 93.5379 11.3706C93.5529 11.0546 93.568 10.7535 93.5981 10.4224L85.9375 24.5697C85.6365 25.1567 85.185 25.4426 84.5679 25.4426H84.0261C83.394 25.4426 82.9425 25.1567 82.6565 24.5697L74.8605 10.3773C74.8906 10.7084 74.9207 11.0245 74.9508 11.3405C74.9658 11.6566 74.9809 11.9576 74.9809 12.2285V28.5731H71.5645V4.71838H74.4692C74.8153 4.71838 75.0712 4.74848 75.2668 4.80868C75.4474 4.86888 75.628 5.04949 75.7785 5.36554L83.4391 19.2269C83.5595 19.558 83.71 19.8891 83.8605 20.2202Z" fill="#9FCAD1"/>
<path d="M119.154 23.2603C119.365 23.2603 119.545 23.3506 119.696 23.5161L121.231 25.1867C120.253 26.3607 119.064 27.2637 117.649 27.8958C116.234 28.5279 114.549 28.844 112.577 28.844C110.831 28.844 109.251 28.5429 107.851 27.9409C106.437 27.3389 105.248 26.4961 104.254 25.4275C103.261 24.3439 102.493 23.0646 101.967 21.5747C101.425 20.0847 101.169 18.4442 101.169 16.6532C101.169 14.8622 101.455 13.2218 102.027 11.7318C102.599 10.2418 103.396 8.94748 104.435 7.87891C105.473 6.79528 106.707 5.96752 108.152 5.36551C109.597 4.76349 111.177 4.47754 112.908 4.47754C114.624 4.47754 116.159 4.7635 117.468 5.32036C118.793 5.87722 119.937 6.61468 120.9 7.5478L119.621 9.35383C119.53 9.47423 119.425 9.57959 119.305 9.66989C119.184 9.76019 119.019 9.80534 118.808 9.80534C118.582 9.80534 118.341 9.69999 118.055 9.50433C117.769 9.29363 117.408 9.06788 116.972 8.82707C116.535 8.57122 115.993 8.34546 115.331 8.14981C114.669 7.9391 113.856 7.8488 112.878 7.8488C111.734 7.8488 110.696 8.04446 109.748 8.45081C108.799 8.84212 107.987 9.42908 107.294 10.1966C106.602 10.9642 106.075 11.8823 105.699 12.981C105.323 14.0796 105.127 15.3137 105.127 16.7134C105.127 18.1131 105.323 19.3623 105.729 20.4609C106.12 21.5596 106.677 22.4927 107.37 23.2452C108.062 23.9978 108.89 24.5847 109.823 24.976C110.756 25.3673 111.764 25.578 112.848 25.578C113.51 25.578 114.097 25.5479 114.624 25.4727C115.151 25.3974 115.632 25.2921 116.069 25.1265C116.505 24.961 116.927 24.7653 117.318 24.5245C117.709 24.2837 118.101 23.9827 118.492 23.6366C118.718 23.3657 118.928 23.2603 119.154 23.2603Z" fill="#9FCAD1"/>
<path d="M127.386 0.760132C127.988 0.760132 128.545 0.850436 129.042 1.03104C129.538 1.21164 129.945 1.45245 130.291 1.75345C130.622 2.06951 130.893 2.43071 131.074 2.86717C131.254 3.30363 131.344 3.77019 131.344 4.2819C131.344 4.73341 131.269 5.15482 131.134 5.53108C130.998 5.90733 130.818 6.26854 130.577 6.61469C130.351 6.96085 130.08 7.29196 129.779 7.62306C129.478 7.93912 129.177 8.27023 128.846 8.60133L126.483 11.0094C126.769 10.9191 127.055 10.8589 127.326 10.8137C127.597 10.7686 127.853 10.7535 128.094 10.7535H130.742C131.013 10.7535 131.224 10.8288 131.375 10.9793C131.525 11.1298 131.6 11.3254 131.6 11.5813V13.1014H122.871V12.2586C122.871 12.093 122.901 11.9124 122.976 11.7318C123.037 11.5512 123.157 11.3706 123.308 11.2201L126.874 7.71337C127.145 7.45751 127.386 7.20165 127.612 6.9157C127.838 6.64479 128.033 6.35884 128.199 6.07289C128.364 5.78693 128.5 5.51603 128.59 5.23007C128.696 4.94411 128.741 4.67321 128.741 4.41735C128.741 3.93575 128.605 3.57454 128.319 3.28858C128.048 3.01768 127.687 2.86717 127.266 2.86717C126.829 2.86717 126.483 2.97253 126.227 3.19828C125.956 3.42403 125.761 3.72504 125.61 4.1314C125.475 4.35715 125.324 4.50765 125.159 4.59796C124.993 4.68826 124.737 4.70331 124.391 4.64311L122.961 4.41735C123.142 3.19828 123.624 2.29526 124.421 1.69325C125.219 1.09124 126.197 0.760132 127.386 0.760132Z" fill="#9FCAD1"/>
<path d="M31.6958 28.6633L36.4818 25.563L36.226 31.0112L31.5303 34.1718L31.6958 28.6633Z" fill="#9FCAD1"/>
<path d="M19.3701 22.1465L24.9538 18.8053L24.8635 25.0211L19.4002 28.4375L19.3701 22.1465Z" fill="#9FCAD1"/>
<path d="M31.9072 21.695L36.8136 18.6248L36.5276 24.4342L31.7266 27.5496L31.9072 21.695Z" fill="#9FCAD1"/>
<path d="M25.6758 32.5613L30.7628 29.2653L30.5973 34.8038L25.6006 38.16L25.6758 32.5613Z" fill="#9FCAD1"/>
<path d="M19.5205 36.6098L24.8333 33.1633L24.758 38.7771L19.5506 42.2688L19.5205 36.6098Z" fill="#9FCAD1"/>
<path d="M19.4004 29.5061L24.8486 26.1047L24.7733 32.0647L19.4305 35.5262L19.4004 29.5061Z" fill="#9FCAD1"/>
<path d="M25.8715 18.2486L31.2144 15.0428L31.0187 21.1683L25.7812 24.4493L25.8715 18.2486Z" fill="#9FCAD1"/>
<path d="M25.7667 25.5329L30.9891 22.267L30.7935 28.1516L25.6914 31.4777L25.7667 25.5329Z" fill="#9FCAD1"/>
<path d="M12.2814 24.8558L12.1309 18.64L17.6844 21.9511L17.7145 28.2421L12.2814 24.8558Z" fill="#9FCAD1"/>
<path d="M6.15584 21.0329L5.91504 14.9075L11.2127 18.0831L11.3632 24.2687L6.15584 21.0329Z" fill="#9FCAD1"/>
<path d="M12.447 31.8992L12.3115 25.9393L17.7146 29.3106L17.7447 35.3307L12.447 31.8992Z" fill="#9FCAD1"/>
<path d="M6.44198 28.0163L6.20117 22.1316L11.3785 25.3674L11.529 31.2972L6.44198 28.0163Z" fill="#9FCAD1"/>
<path d="M0.737358 24.3139L0.40625 18.5195L5.2675 21.5597L5.5083 27.3992L0.737358 24.3139Z" fill="#9FCAD1"/>
<path d="M0.346155 17.4059L0 11.3857L4.9666 14.3507L5.22244 20.446L0.346155 17.4059Z" fill="#9FCAD1"/>
<path d="M12.612 38.5966L12.4766 32.9979L17.7592 36.4143L17.7893 42.0733L12.612 38.5966Z" fill="#9FCAD1"/>
<path d="M6.72771 34.6535L6.50195 29.13L11.5589 32.3959L11.6793 37.9796L6.72771 34.6535Z" fill="#9FCAD1"/>
<path d="M1.12856 30.8909L0.8125 25.4427L5.55334 28.513L5.7791 34.0214L1.12856 30.8909Z" fill="#9FCAD1"/>
<path d="M19.5654 6.58456L24.5922 3.81531L29.8899 6.61466L24.8631 9.48926L19.5654 6.58456Z" fill="#9FCAD1"/>
<path d="M13.6357 3.33375L18.6475 0.699951L23.6291 3.3187L18.6174 6.07291L13.6357 3.33375Z" fill="#9FCAD1"/>
<path d="M13.2744 10.0612L18.6173 7.11133L23.9451 10.0311L18.5872 13.1013L13.2744 10.0612Z" fill="#9FCAD1"/>
<path d="M19.5059 13.6282L24.8788 10.5428L30.4324 13.583L25.0594 16.8038L19.5059 13.6282Z" fill="#9FCAD1"/>
<path d="M6.75781 13.6433L12.3415 10.573L17.6693 13.6282L12.0856 16.8339L6.75781 13.6433Z" fill="#9FCAD1"/>
<path d="M7.34473 6.65986L12.6725 3.84546L17.6692 6.58461L12.3414 9.51942L7.34473 6.65986Z" fill="#9FCAD1"/>
<path d="M12.9883 17.3606L18.587 14.1549L24.1706 17.3456L18.5569 20.7018L12.9883 17.3606Z" fill="#9FCAD1"/>
<path d="M0.842773 10.1063L6.39633 7.17151L11.4081 10.0461L5.85452 13.1013L0.842773 10.1063Z" fill="#9FCAD1"/>
<path d="M35.1719 5.48595L40.1084 2.65649L45.0148 5.4709L40.0783 8.4358L35.1719 5.48595Z" fill="#9FCAD1"/>
<path d="M40.7861 9.69997L45.7076 6.75012L45.6323 12.2284L40.8162 15.2385L40.7861 9.69997Z" fill="#9FCAD1"/>
<path d="M34.5554 12.0931L34.4199 6.61475L39.2962 9.53451L39.3263 15.073L34.5554 12.0931Z" fill="#E2E2E2"/>
</svg>
