<svg width="24" height="25" viewBox="0 0 24 25" fill="none" xmlns="http://www.w3.org/2000/svg">
<g clip-path="url(#clip0_269_1496)">
<path d="M17.38 11.0117C15.94 13.8417 13.62 16.1517 10.79 17.6017L8.59 15.4017C8.32 15.1317 7.92 15.0417 7.57 15.1617C6.45 15.5317 5.24 15.7317 4 15.7317C3.45 15.7317 3 16.1817 3 16.7317V20.2217C3 20.7717 3.45 21.2217 4 21.2217C13.39 21.2217 21 13.6117 21 4.22168C21 3.67168 20.55 3.22168 20 3.22168H16.5C15.95 3.22168 15.5 3.67168 15.5 4.22168C15.5 5.47168 15.3 6.67168 14.93 7.79168C14.82 8.14168 14.9 8.53168 15.18 8.81168L17.38 11.0117Z" fill="white"/>
</g>
<defs>
<clipPath id="clip0_269_1496">
<rect width="24" height="24" fill="white" transform="matrix(-1 0 0 1 24 0.22168)"/>
</clipPath>
</defs>
</svg>
