<svg width="24" height="25" viewBox="0 0 24 25" fill="none" xmlns="http://www.w3.org/2000/svg">
<path d="M4 4.22168H20C21.1 4.22168 21.99 5.12168 21.99 6.22168L22 18.2217C22 19.3217 21.1 20.2217 20 20.2217H4C2.9 20.2217 2 19.3217 2 18.2217V6.22168C2 5.12168 2.9 4.22168 4 4.22168ZM4.4 8.47168L11.47 12.8917C11.79 13.0917 12.21 13.0917 12.53 12.8917L19.6 8.47168C19.85 8.31168 20 8.04168 20 7.75168C20 7.08168 19.27 6.68168 18.7 7.03168L12 11.2217L5.3 7.03168C4.73 6.68168 4 7.08168 4 7.75168C4 8.04168 4.15 8.31168 4.4 8.47168Z" fill="white"/>
</svg>
