<svg width="412" height="231" viewBox="0 0 412 231" fill="none" xmlns="http://www.w3.org/2000/svg">
<path d="M163.157 108.813L158.077 111.732L156.919 112.34L150.473 108.961L156.955 105.705L163.157 108.813Z" fill="#E2E2E2"/>
<path d="M156.212 94.541L155.828 102.622L148.979 107.069L149.238 98.7299L156.212 94.541Z" fill="#E2E2E2"/>
<path d="M194.474 133.401C194.432 133.477 194.375 133.545 194.307 133.6C194.24 133.646 194.16 133.669 194.078 133.665C193.949 133.654 193.827 133.601 193.731 133.515C193.569 133.396 193.402 133.286 193.229 133.184C192.996 133.051 192.752 132.94 192.498 132.854C192.164 132.746 191.814 132.696 191.463 132.704C191.12 132.698 190.777 132.75 190.451 132.858C190.181 132.947 189.931 133.09 189.716 133.276C189.523 133.447 189.371 133.66 189.271 133.898C189.17 134.142 189.119 134.404 189.121 134.669C189.109 134.982 189.2 135.29 189.38 135.546C189.566 135.789 189.8 135.992 190.067 136.141C190.375 136.316 190.699 136.459 191.036 136.568C191.397 136.689 191.766 136.814 192.145 136.943C192.523 137.073 192.893 137.218 193.254 137.379C193.606 137.535 193.932 137.741 194.223 137.992C194.512 138.244 194.745 138.553 194.91 138.9C195.094 139.315 195.183 139.767 195.169 140.222C195.173 140.753 195.078 141.281 194.888 141.778C194.706 142.253 194.425 142.684 194.064 143.042C193.684 143.413 193.232 143.701 192.735 143.888C192.162 144.102 191.555 144.207 190.943 144.197C190.176 144.207 189.416 144.055 188.712 143.752C188.063 143.471 187.477 143.062 186.99 142.549L187.484 141.738C187.531 141.673 187.589 141.618 187.655 141.575C187.722 141.531 187.8 141.508 187.88 141.509C188.039 141.524 188.188 141.594 188.302 141.707C188.493 141.863 188.691 142.008 188.897 142.143C189.168 142.319 189.457 142.465 189.76 142.579C190.156 142.722 190.576 142.789 190.997 142.778C191.365 142.784 191.731 142.727 192.08 142.61C192.378 142.51 192.652 142.349 192.885 142.139C193.105 141.936 193.278 141.688 193.391 141.412C193.512 141.112 193.572 140.792 193.567 140.469C193.582 140.136 193.491 139.808 193.308 139.53C193.127 139.279 192.894 139.07 192.626 138.917C192.321 138.743 191.997 138.602 191.662 138.499L190.552 138.146C190.175 138.026 189.805 137.887 189.443 137.727C189.091 137.574 188.765 137.366 188.479 137.11C188.188 136.846 187.955 136.523 187.796 136.163C187.526 135.525 187.453 134.821 187.588 134.141C187.722 133.461 188.057 132.838 188.549 132.351C188.9 132.013 189.314 131.75 189.768 131.575C190.301 131.373 190.867 131.274 191.437 131.284C192.095 131.276 192.748 131.39 193.365 131.619C193.934 131.835 194.452 132.165 194.889 132.589L194.474 133.401Z" fill="#E2E2E2"/>
<path d="M204.147 134.987C204.751 134.978 205.351 135.089 205.912 135.313C206.421 135.519 206.878 135.835 207.25 136.239C207.629 136.659 207.917 137.152 208.096 137.689C208.489 138.926 208.489 140.254 208.096 141.491C207.916 142.026 207.629 142.518 207.25 142.936C206.879 143.339 206.421 143.654 205.912 143.857C204.774 144.287 203.519 144.287 202.382 143.857C201.872 143.654 201.413 143.339 201.039 142.936C200.658 142.518 200.367 142.026 200.185 141.491C199.786 140.255 199.786 138.925 200.185 137.689C200.367 137.152 200.657 136.658 201.039 136.239C201.414 135.836 201.872 135.52 202.382 135.313C202.943 135.089 203.543 134.978 204.147 134.987ZM204.147 142.955C205.027 142.955 205.685 142.66 206.119 142.069C206.554 141.479 206.771 140.655 206.771 139.597C206.771 138.534 206.554 137.705 206.119 137.111C205.685 136.518 205.027 136.221 204.147 136.221C203.748 136.212 203.351 136.29 202.985 136.45C202.66 136.6 202.378 136.827 202.161 137.111C201.927 137.429 201.76 137.79 201.668 138.174C201.451 139.109 201.451 140.081 201.668 141.016C201.76 141.397 201.928 141.755 202.161 142.069C202.379 142.351 202.661 142.577 202.985 142.725C203.351 142.886 203.747 142.964 204.147 142.955Z" fill="#E2E2E2"/>
<path d="M215.51 131.074V144.057H213.943V131.074H215.51Z" fill="#E2E2E2"/>
<path d="M223.069 135.129V140.822C223.069 141.498 223.225 142.021 223.536 142.391C223.847 142.76 224.317 142.945 224.945 142.946C225.397 142.948 225.842 142.835 226.239 142.62C226.663 142.387 227.042 142.08 227.357 141.712V135.128H228.923V144.056H227.99C227.892 144.064 227.794 144.035 227.716 143.974C227.638 143.914 227.586 143.827 227.568 143.73L227.444 142.77C227.072 143.187 226.631 143.537 226.141 143.805C225.631 144.074 225.062 144.209 224.486 144.198C224.044 144.206 223.605 144.124 223.196 143.955C222.835 143.803 222.515 143.569 222.259 143.272C221.997 142.961 221.803 142.597 221.691 142.206C221.56 141.756 221.496 141.29 221.501 140.822V135.129H223.069Z" fill="#E2E2E2"/>
<path d="M237.645 144.197C236.941 144.197 236.399 144 236.021 143.607C235.642 143.213 235.453 142.646 235.453 141.906V136.442H234.379C234.292 136.445 234.207 136.415 234.141 136.359C234.107 136.325 234.08 136.285 234.063 136.24C234.047 136.195 234.04 136.147 234.044 136.099V135.473L235.506 135.288L235.867 132.529C235.876 132.445 235.917 132.368 235.981 132.313C236.05 132.256 236.138 132.226 236.228 132.229H237.02V135.304H239.574V136.442H237.02V141.801C237.008 141.952 237.026 142.104 237.072 142.248C237.119 142.391 237.194 142.524 237.293 142.639C237.386 142.73 237.496 142.801 237.617 142.848C237.738 142.895 237.868 142.917 237.997 142.912C238.142 142.915 238.287 142.893 238.424 142.846C238.533 142.807 238.638 142.759 238.737 142.701C238.825 142.648 238.9 142.599 238.961 142.555C239.008 142.517 239.065 142.494 239.124 142.489C239.171 142.493 239.216 142.509 239.254 142.535C239.293 142.562 239.324 142.597 239.345 142.639L239.802 143.388C239.519 143.649 239.187 143.852 238.825 143.984C238.448 144.126 238.048 144.198 237.645 144.197Z" fill="#E2E2E2"/>
<path d="M247.045 132.326C247.046 132.473 247.014 132.619 246.953 132.753C246.892 132.884 246.808 133.004 246.706 133.106C246.603 133.208 246.482 133.291 246.349 133.348C246.213 133.407 246.066 133.437 245.918 133.436C245.771 133.437 245.625 133.407 245.491 133.348C245.226 133.23 245.015 133.018 244.897 132.753C244.837 132.618 244.807 132.473 244.809 132.326C244.808 132.176 244.838 132.027 244.897 131.889C244.953 131.754 245.035 131.632 245.139 131.528C245.24 131.426 245.36 131.344 245.491 131.286C245.625 131.226 245.771 131.196 245.918 131.197C246.066 131.197 246.213 131.227 246.349 131.286C246.482 131.343 246.603 131.425 246.706 131.528C246.81 131.632 246.893 131.755 246.953 131.889C247.014 132.027 247.045 132.175 247.045 132.326ZM246.693 135.128V144.057H245.126V135.128H246.693Z" fill="#E2E2E2"/>
<path d="M256.505 134.987C257.11 134.978 257.71 135.089 258.271 135.313C258.779 135.519 259.236 135.835 259.609 136.239C259.988 136.659 260.275 137.152 260.454 137.689C260.847 138.926 260.847 140.254 260.454 141.491C260.275 142.026 259.987 142.518 259.609 142.936C259.237 143.339 258.78 143.654 258.271 143.857C257.133 144.287 255.878 144.287 254.74 143.857C254.23 143.654 253.771 143.339 253.397 142.936C253.017 142.518 252.726 142.026 252.543 141.491C252.144 140.255 252.144 138.925 252.543 137.689C252.725 137.152 253.016 136.658 253.397 136.239C253.772 135.836 254.23 135.52 254.74 135.313C255.301 135.089 255.901 134.978 256.505 134.987ZM256.505 142.955C257.386 142.955 258.043 142.66 258.478 142.069C258.912 141.479 259.129 140.655 259.129 139.597C259.129 138.534 258.912 137.705 258.478 137.111C258.043 136.518 257.386 136.221 256.505 136.221C256.106 136.212 255.709 136.29 255.343 136.45C255.019 136.6 254.736 136.827 254.52 137.111C254.286 137.429 254.118 137.79 254.026 138.174C253.809 139.109 253.809 140.081 254.026 141.016C254.118 141.397 254.286 141.755 254.52 142.069C254.737 142.351 255.02 142.577 255.343 142.725C255.709 142.886 256.106 142.964 256.505 142.955Z" fill="#E2E2E2"/>
<path d="M266.125 144.057V135.128H267.058C267.157 135.121 267.254 135.151 267.332 135.211C267.41 135.271 267.463 135.358 267.481 135.455L267.604 136.424C267.976 136.008 268.415 135.656 268.903 135.384C269.413 135.112 269.985 134.975 270.563 134.988C271.005 134.979 271.444 135.061 271.852 135.23C272.213 135.383 272.533 135.618 272.786 135.917C273.045 136.232 273.238 136.597 273.354 136.988C273.487 137.437 273.552 137.903 273.547 138.372V144.057H271.98V138.372C271.98 137.696 271.826 137.172 271.518 136.799C271.21 136.425 270.739 136.239 270.105 136.239C269.65 136.237 269.203 136.352 268.806 136.574C268.387 136.812 268.01 137.118 267.693 137.482V144.057H266.125Z" fill="#E2E2E2"/>
<path d="M284.46 136.6C284.431 136.66 284.384 136.711 284.326 136.745C284.268 136.779 284.202 136.796 284.135 136.794C284.028 136.788 283.925 136.755 283.835 136.697C283.724 136.632 283.587 136.56 283.426 136.482C283.24 136.393 283.047 136.319 282.849 136.261C282.591 136.189 282.324 136.155 282.057 136.16C281.815 136.157 281.575 136.191 281.344 136.261C281.148 136.321 280.965 136.415 280.802 136.539C280.659 136.649 280.542 136.789 280.459 136.949C280.379 137.106 280.339 137.28 280.34 137.456C280.333 137.665 280.403 137.869 280.538 138.028C280.686 138.193 280.864 138.328 281.062 138.425C281.3 138.545 281.547 138.644 281.802 138.721C282.077 138.806 282.361 138.897 282.651 138.994C282.942 139.091 283.225 139.198 283.501 139.316C283.767 139.427 284.016 139.576 284.24 139.756C284.458 139.934 284.637 140.154 284.764 140.404C284.903 140.691 284.971 141.007 284.962 141.325C284.966 141.717 284.891 142.105 284.742 142.467C284.597 142.815 284.374 143.125 284.091 143.375C283.781 143.643 283.422 143.848 283.034 143.978C282.569 144.133 282.081 144.208 281.59 144.199C281.013 144.207 280.439 144.104 279.9 143.895C279.429 143.713 278.994 143.448 278.614 143.115L278.984 142.515C279.026 142.445 279.083 142.384 279.151 142.339C279.229 142.295 279.317 142.273 279.407 142.277C279.528 142.283 279.645 142.326 279.741 142.401C279.859 142.483 280.001 142.574 280.168 142.674C280.361 142.786 280.565 142.877 280.776 142.947C281.065 143.037 281.367 143.079 281.67 143.071C281.941 143.076 282.212 143.035 282.471 142.952C282.681 142.883 282.875 142.773 283.043 142.629C283.19 142.502 283.306 142.342 283.382 142.162C283.456 141.984 283.493 141.792 283.492 141.598C283.501 141.377 283.43 141.16 283.294 140.986C283.149 140.814 282.971 140.673 282.77 140.571C282.532 140.448 282.283 140.348 282.026 140.271C281.747 140.186 281.462 140.096 281.172 140.002C280.881 139.908 280.597 139.8 280.318 139.68C280.049 139.566 279.799 139.413 279.574 139.226C279.354 139.041 279.176 138.811 279.05 138.552C278.91 138.247 278.842 137.913 278.852 137.578C278.852 137.239 278.924 136.904 279.063 136.595C279.207 136.277 279.417 135.995 279.68 135.766C279.972 135.516 280.31 135.323 280.675 135.199C281.108 135.051 281.564 134.98 282.022 134.987C282.561 134.979 283.098 135.073 283.602 135.265C284.051 135.439 284.462 135.698 284.813 136.027L284.46 136.6Z" fill="#E2E2E2"/>
<path d="M208.208 90.1973V94.6654H192.548V104.928H205.066V109.255H192.548V119.777H208.232L208.208 124.246H186.997V90.1975L208.208 90.1973Z" fill="#9FCAD1"/>
<path d="M231.779 112.317C231.999 112.798 232.196 113.291 232.369 113.795C232.559 113.291 232.759 112.79 232.972 112.293C233.185 111.796 233.409 111.32 233.645 110.863L244.392 91.1193C244.612 90.6778 244.856 90.4137 245.124 90.3271C245.494 90.2277 245.876 90.1839 246.258 90.1971H250.391V124.245H245.526V100.908C245.526 100.53 245.538 100.12 245.562 99.6786C245.586 99.2372 245.613 98.788 245.644 98.3309L234.732 118.523C234.307 119.359 233.654 119.777 232.772 119.777H231.992C231.577 119.792 231.167 119.68 230.817 119.456C230.467 119.232 230.193 118.907 230.032 118.523L218.907 98.2595C218.954 98.7321 218.993 99.1933 219.025 99.643C219.056 100.093 219.072 100.514 219.072 100.908V124.246H214.206V90.198H218.34C218.722 90.1849 219.104 90.2287 219.473 90.3279C219.741 90.4149 219.985 90.6789 220.206 91.1202L231.118 110.911C231.338 111.368 231.558 111.836 231.779 112.317Z" fill="#9FCAD1"/>
<path d="M282.089 116.656C282.236 116.656 282.382 116.687 282.517 116.749C282.651 116.81 282.771 116.899 282.868 117.011L285.065 119.398C283.686 121.065 281.939 122.388 279.963 123.265C277.947 124.172 275.538 124.625 272.735 124.625C270.423 124.659 268.129 124.221 265.992 123.336C264.043 122.518 262.292 121.293 260.855 119.742C259.404 118.15 258.291 116.28 257.583 114.245C256.798 111.988 256.411 109.612 256.438 107.222C256.411 104.822 256.823 102.438 257.654 100.187C258.411 98.1377 259.576 96.2633 261.079 94.678C262.573 93.1265 264.375 91.9062 266.37 91.096C268.527 90.2252 270.835 89.7912 273.16 89.8191C275.617 89.8191 277.786 90.2171 279.668 91.0131C281.481 91.7651 283.142 92.843 284.569 94.1934L282.75 96.7712C282.625 96.9435 282.474 97.0951 282.301 97.2204C282.091 97.3568 281.843 97.423 281.593 97.4094C281.198 97.379 280.823 97.226 280.519 96.9718C280.024 96.6216 279.512 96.298 278.983 96.0026C277.197 95.0149 275.177 94.5288 273.137 94.5955C271.608 94.5779 270.09 94.8674 268.674 95.4469C267.338 96.0015 266.143 96.8501 265.179 97.9297C264.161 99.088 263.386 100.439 262.899 101.902C262.331 103.617 262.056 105.416 262.084 107.222C262.054 109.043 262.342 110.856 262.934 112.578C263.441 114.045 264.236 115.396 265.273 116.55C266.246 117.617 267.439 118.46 268.769 119.021C270.137 119.594 271.608 119.884 273.091 119.872C273.94 119.878 274.788 119.827 275.63 119.718C276.335 119.626 277.028 119.46 277.697 119.222C278.32 118.997 278.917 118.708 279.48 118.359C280.074 117.986 280.631 117.558 281.145 117.082C281.395 116.826 281.732 116.674 282.089 116.656Z" fill="#9FCAD1"/>
<path d="M293.828 84.5382C294.627 84.5274 295.423 84.6554 296.178 84.9165C296.832 85.1413 297.435 85.495 297.95 85.9569C298.43 86.3982 298.809 86.9388 299.06 87.5411C299.545 88.7498 299.578 90.0929 299.154 91.3242C298.952 91.8699 298.687 92.3897 298.363 92.873C298.024 93.3798 297.645 93.8583 297.229 94.3037C296.804 94.7611 296.363 95.2261 295.907 95.6985L292.529 99.1272C292.919 99.0056 293.318 98.9108 293.722 98.8434C294.085 98.7823 294.452 98.7506 294.82 98.7487H298.599C298.764 98.7379 298.93 98.7607 299.086 98.8155C299.243 98.8704 299.386 98.9562 299.509 99.0679C299.617 99.1826 299.702 99.3183 299.757 99.4667C299.811 99.615 299.835 99.773 299.827 99.931V102.106H287.38V100.9C287.384 100.642 287.432 100.386 287.522 100.144C287.622 99.867 287.783 99.6163 287.994 99.4107L293.072 94.398C293.445 94.0411 293.796 93.6622 294.124 93.2632C294.433 92.8873 294.714 92.4881 294.962 92.069C295.189 91.6862 295.379 91.2823 295.529 90.863C295.666 90.4878 295.738 90.0919 295.741 89.6925C295.757 89.3985 295.712 89.1044 295.611 88.828C295.509 88.5516 295.353 88.2987 295.151 88.0846C294.952 87.8883 294.716 87.7346 294.456 87.633C294.196 87.5314 293.918 87.4841 293.639 87.4939C293.103 87.4685 292.575 87.6361 292.151 87.9665C291.746 88.3216 291.445 88.779 291.277 89.2908C291.129 89.5652 290.908 89.794 290.64 89.9526C290.403 90.0789 290.041 90.1027 289.553 90.0237L287.522 89.6925C287.774 87.9587 288.466 86.6661 289.6 85.8149C290.734 84.9636 292.143 84.5381 293.828 84.5382Z" fill="#9FCAD1"/>
<path d="M157.396 124.366L164.218 119.936L163.848 127.731L157.151 132.233L157.396 124.366Z" fill="#9FCAD1"/>
<path d="M139.814 115.067L147.775 110.289L147.655 119.168L139.862 124.041L139.814 115.067Z" fill="#9FCAD1"/>
<path d="M157.705 114.417L164.689 110.05L164.295 118.336L157.445 122.784L157.705 114.417Z" fill="#9FCAD1"/>
<path d="M148.809 129.941L156.07 125.227L155.824 133.125L148.702 137.914L148.809 129.941Z" fill="#9FCAD1"/>
<path d="M140.047 135.71L147.621 130.792L147.514 138.796L140.09 143.787L140.047 135.71Z" fill="#9FCAD1"/>
<path d="M139.87 125.57L147.634 120.714L147.52 129.229L139.916 134.166L139.87 125.57Z" fill="#9FCAD1"/>
<path d="M149.085 109.503L156.7 104.931L156.429 113.682L148.966 118.348L149.085 109.503Z" fill="#9FCAD1"/>
<path d="M148.944 119.895L156.379 115.246L156.118 123.645L148.83 128.377L148.944 119.895Z" fill="#9FCAD1"/>
<path d="M129.717 118.93L129.505 110.063L137.411 114.799L137.458 123.763L129.717 118.93Z" fill="#9FCAD1"/>
<path d="M120.989 113.481L120.629 104.746L128.188 109.274L128.399 118.107L120.989 113.481Z" fill="#9FCAD1"/>
<path d="M129.957 128.988L129.754 120.486L137.466 125.301L137.512 133.887L129.957 128.988Z" fill="#9FCAD1"/>
<path d="M121.4 123.438L121.054 115.054L128.435 119.662L128.638 128.132L121.4 123.438Z" fill="#9FCAD1"/>
<path d="M113.268 118.165L112.792 109.896L119.72 114.221L120.065 122.572L113.268 118.165Z" fill="#9FCAD1"/>
<path d="M112.7 108.306L112.204 99.6997L119.295 103.948L119.654 112.648L112.7 108.306Z" fill="#9FCAD1"/>
<path d="M130.186 138.551L129.995 130.561L137.521 135.441L137.564 143.507L130.186 138.551Z" fill="#9FCAD1"/>
<path d="M121.791 132.913L121.466 125.03L128.675 129.705L128.866 137.665L121.791 132.913Z" fill="#9FCAD1"/>
<path d="M113.808 127.551L113.36 119.774L120.13 124.164L120.454 132.015L113.808 127.551Z" fill="#9FCAD1"/>
<path d="M140.103 92.8649L147.273 88.9141L154.829 92.8933L147.66 97.0126L140.103 92.8649Z" fill="#9FCAD1"/>
<path d="M131.649 88.2264L138.79 84.4468L145.895 88.1888L138.753 92.1245L131.649 88.2264Z" fill="#9FCAD1"/>
<path d="M131.13 97.8088L138.754 93.6079L146.34 97.771L138.714 102.153L131.13 97.8088Z" fill="#9FCAD1"/>
<path d="M140.021 102.901L147.674 98.5034L155.591 102.848L147.943 107.439L140.021 102.901Z" fill="#9FCAD1"/>
<path d="M121.845 102.925L129.797 98.5435L137.408 102.903L129.445 107.478L121.845 102.925Z" fill="#9FCAD1"/>
<path d="M122.685 92.9712L130.274 88.9546L137.404 92.8674L129.809 97.0523L122.685 92.9712Z" fill="#9FCAD1"/>
<path d="M130.723 108.243L138.714 103.651L146.665 108.205L138.671 113.005L130.723 108.243Z" fill="#9FCAD1"/>
<path d="M113.417 97.8768L121.325 93.6909L128.476 97.787L120.554 102.152L113.417 97.8768Z" fill="#9FCAD1"/>
<path d="M162.351 91.2956L169.391 87.25L176.396 91.2621L169.353 95.4903L162.351 91.2956Z" fill="#9FCAD1"/>
<path d="M170.36 97.3072L177.374 93.0977L177.268 100.92L170.403 105.213L170.36 97.3072Z" fill="#9FCAD1"/>
<path d="M161.464 100.71L161.277 92.8989L168.242 97.0713L168.284 104.968L161.464 100.71Z" fill="#E2E2E2"/>
</svg>
