<svg width="188" height="61" viewBox="0 0 188 61" fill="none" xmlns="http://www.w3.org/2000/svg">
<path d="M51.157 24.813L46.077 27.732L44.919 28.34L38.473 24.961L44.955 21.705L51.157 24.813Z" fill="#E2E2E2"/>
<path d="M44.212 10.541L43.828 18.622L36.979 23.069L37.238 14.7299L44.212 10.541Z" fill="#E2E2E2"/>
<path d="M82.474 49.401C82.432 49.477 82.375 49.545 82.307 49.6C82.24 49.646 82.16 49.669 82.078 49.665C81.949 49.654 81.827 49.601 81.731 49.515C81.569 49.396 81.402 49.286 81.229 49.184C80.996 49.051 80.752 48.94 80.498 48.854C80.164 48.746 79.814 48.696 79.463 48.704C79.12 48.698 78.777 48.75 78.451 48.858C78.181 48.947 77.931 49.09 77.716 49.276C77.523 49.447 77.371 49.66 77.271 49.898C77.17 50.142 77.119 50.404 77.121 50.669C77.109 50.982 77.2 51.29 77.38 51.546C77.566 51.789 77.8 51.992 78.067 52.141C78.375 52.316 78.699 52.459 79.036 52.568C79.397 52.689 79.766 52.814 80.145 52.943C80.523 53.073 80.893 53.218 81.254 53.379C81.606 53.535 81.932 53.741 82.223 53.992C82.512 54.244 82.745 54.553 82.91 54.9C83.094 55.315 83.183 55.767 83.169 56.222C83.173 56.753 83.078 57.281 82.888 57.778C82.706 58.253 82.425 58.684 82.064 59.042C81.684 59.413 81.232 59.701 80.735 59.888C80.162 60.102 79.555 60.207 78.943 60.197C78.176 60.207 77.416 60.055 76.712 59.752C76.063 59.471 75.477 59.062 74.99 58.549L75.484 57.738C75.531 57.673 75.589 57.618 75.655 57.575C75.722 57.531 75.8 57.508 75.88 57.509C76.039 57.524 76.188 57.594 76.302 57.707C76.493 57.863 76.691 58.008 76.897 58.143C77.168 58.319 77.457 58.465 77.76 58.579C78.156 58.722 78.576 58.789 78.997 58.778C79.365 58.784 79.731 58.727 80.08 58.61C80.378 58.51 80.652 58.349 80.885 58.139C81.105 57.936 81.278 57.688 81.391 57.412C81.512 57.112 81.572 56.792 81.567 56.469C81.582 56.136 81.491 55.808 81.308 55.53C81.127 55.279 80.894 55.07 80.626 54.917C80.321 54.743 79.997 54.602 79.662 54.499L78.552 54.146C78.175 54.026 77.805 53.887 77.443 53.727C77.091 53.574 76.765 53.366 76.479 53.11C76.188 52.846 75.955 52.523 75.796 52.163C75.526 51.525 75.453 50.821 75.588 50.141C75.722 49.461 76.057 48.838 76.549 48.351C76.9 48.013 77.314 47.75 77.768 47.575C78.301 47.373 78.867 47.274 79.437 47.284C80.095 47.276 80.748 47.39 81.365 47.619C81.934 47.835 82.452 48.165 82.889 48.589L82.474 49.401Z" fill="#E2E2E2"/>
<path d="M92.147 50.987C92.751 50.978 93.351 51.089 93.912 51.313C94.421 51.519 94.878 51.835 95.25 52.239C95.629 52.659 95.917 53.152 96.096 53.689C96.489 54.926 96.489 56.254 96.096 57.491C95.916 58.026 95.629 58.518 95.25 58.936C94.879 59.339 94.421 59.654 93.912 59.857C92.774 60.287 91.519 60.287 90.382 59.857C89.872 59.654 89.413 59.339 89.039 58.936C88.658 58.518 88.367 58.026 88.185 57.491C87.786 56.255 87.786 54.925 88.185 53.689C88.367 53.152 88.657 52.658 89.039 52.239C89.414 51.836 89.872 51.52 90.382 51.313C90.943 51.089 91.543 50.978 92.147 50.987ZM92.147 58.955C93.027 58.955 93.685 58.66 94.119 58.069C94.554 57.479 94.771 56.655 94.771 55.597C94.771 54.534 94.554 53.7049 94.119 53.1109C93.685 52.5179 93.027 52.221 92.147 52.221C91.748 52.212 91.351 52.29 90.985 52.45C90.66 52.6 90.378 52.8269 90.161 53.1109C89.927 53.4289 89.76 53.79 89.668 54.174C89.451 55.109 89.451 56.081 89.668 57.016C89.76 57.397 89.928 57.755 90.161 58.069C90.379 58.351 90.661 58.577 90.985 58.725C91.351 58.886 91.747 58.964 92.147 58.955Z" fill="#E2E2E2"/>
<path d="M103.51 47.074V60.057H101.943V47.074H103.51Z" fill="#E2E2E2"/>
<path d="M111.069 51.129V56.8221C111.069 57.4981 111.225 58.0211 111.536 58.3911C111.847 58.7601 112.317 58.945 112.945 58.946C113.397 58.948 113.842 58.835 114.239 58.62C114.663 58.387 115.042 58.0801 115.357 57.7121V51.1281H116.923V60.056H115.99C115.892 60.064 115.794 60.035 115.716 59.974C115.638 59.914 115.586 59.827 115.568 59.73L115.444 58.7701C115.072 59.1871 114.631 59.537 114.141 59.805C113.631 60.074 113.062 60.209 112.486 60.198C112.044 60.206 111.605 60.124 111.196 59.955C110.835 59.803 110.515 59.569 110.259 59.272C109.997 58.961 109.803 58.597 109.691 58.206C109.56 57.756 109.496 57.2901 109.501 56.8221V51.129H111.069Z" fill="#E2E2E2"/>
<path d="M125.645 60.197C124.941 60.197 124.399 60 124.021 59.607C123.642 59.213 123.453 58.646 123.453 57.906V52.442H122.379C122.292 52.445 122.207 52.415 122.141 52.359C122.107 52.325 122.08 52.285 122.063 52.24C122.047 52.195 122.04 52.147 122.044 52.099V51.473L123.506 51.288L123.867 48.529C123.876 48.445 123.917 48.368 123.981 48.313C124.05 48.256 124.138 48.226 124.228 48.229H125.02V51.304H127.574V52.442H125.02V57.801C125.008 57.952 125.026 58.104 125.072 58.248C125.119 58.391 125.194 58.524 125.293 58.639C125.386 58.73 125.496 58.801 125.617 58.848C125.738 58.895 125.868 58.917 125.997 58.912C126.142 58.915 126.287 58.893 126.424 58.846C126.533 58.807 126.638 58.759 126.737 58.701C126.825 58.648 126.9 58.599 126.961 58.555C127.008 58.517 127.065 58.494 127.124 58.489C127.171 58.493 127.216 58.509 127.254 58.535C127.293 58.562 127.324 58.597 127.345 58.639L127.802 59.388C127.519 59.649 127.187 59.852 126.825 59.984C126.448 60.126 126.048 60.198 125.645 60.197Z" fill="#E2E2E2"/>
<path d="M135.045 48.326C135.046 48.473 135.014 48.619 134.953 48.753C134.892 48.884 134.808 49.004 134.706 49.106C134.603 49.208 134.482 49.291 134.349 49.348C134.213 49.407 134.066 49.437 133.918 49.436C133.771 49.437 133.625 49.407 133.491 49.348C133.226 49.23 133.015 49.018 132.897 48.753C132.837 48.618 132.807 48.473 132.809 48.326C132.808 48.176 132.838 48.027 132.897 47.889C132.953 47.754 133.035 47.632 133.139 47.528C133.24 47.426 133.36 47.344 133.491 47.286C133.625 47.226 133.771 47.196 133.918 47.197C134.066 47.197 134.213 47.227 134.349 47.286C134.482 47.343 134.603 47.425 134.706 47.528C134.81 47.632 134.893 47.755 134.953 47.889C135.014 48.027 135.045 48.175 135.045 48.326ZM134.693 51.128V60.057H133.126V51.128H134.693Z" fill="#E2E2E2"/>
<path d="M144.505 50.987C145.11 50.978 145.71 51.089 146.271 51.313C146.779 51.519 147.236 51.835 147.609 52.239C147.988 52.659 148.275 53.152 148.454 53.689C148.847 54.926 148.847 56.254 148.454 57.491C148.275 58.026 147.987 58.518 147.609 58.936C147.237 59.339 146.78 59.654 146.271 59.857C145.133 60.287 143.878 60.287 142.74 59.857C142.23 59.654 141.771 59.339 141.397 58.936C141.017 58.518 140.726 58.026 140.543 57.491C140.144 56.255 140.144 54.925 140.543 53.689C140.725 53.152 141.016 52.658 141.397 52.239C141.772 51.836 142.23 51.52 142.74 51.313C143.301 51.089 143.901 50.978 144.505 50.987ZM144.505 58.955C145.386 58.955 146.043 58.66 146.478 58.069C146.912 57.479 147.129 56.655 147.129 55.597C147.129 54.534 146.912 53.7049 146.478 53.1109C146.043 52.5179 145.386 52.221 144.505 52.221C144.106 52.212 143.709 52.29 143.343 52.45C143.019 52.6 142.736 52.8269 142.52 53.1109C142.286 53.4289 142.118 53.79 142.026 54.174C141.809 55.109 141.809 56.081 142.026 57.016C142.118 57.397 142.286 57.755 142.52 58.069C142.737 58.351 143.02 58.577 143.343 58.725C143.709 58.886 144.106 58.964 144.505 58.955Z" fill="#E2E2E2"/>
<path d="M154.125 60.057V51.128H155.058C155.157 51.121 155.254 51.151 155.332 51.211C155.41 51.271 155.463 51.358 155.481 51.455L155.604 52.424C155.976 52.008 156.415 51.656 156.903 51.384C157.413 51.112 157.985 50.975 158.563 50.988C159.005 50.979 159.444 51.061 159.852 51.23C160.213 51.383 160.533 51.618 160.786 51.917C161.045 52.232 161.238 52.597 161.354 52.988C161.487 53.437 161.552 53.903 161.547 54.372V60.057H159.98V54.372C159.98 53.696 159.826 53.172 159.518 52.799C159.21 52.425 158.739 52.239 158.105 52.239C157.65 52.237 157.203 52.352 156.806 52.574C156.387 52.812 156.01 53.118 155.693 53.482V60.057H154.125Z" fill="#E2E2E2"/>
<path d="M172.46 52.6001C172.431 52.6601 172.384 52.711 172.326 52.745C172.268 52.779 172.202 52.7961 172.135 52.7941C172.028 52.7881 171.925 52.7551 171.835 52.6971C171.724 52.6321 171.587 52.56 171.426 52.482C171.24 52.393 171.047 52.319 170.849 52.261C170.591 52.189 170.324 52.155 170.057 52.16C169.815 52.157 169.575 52.191 169.344 52.261C169.148 52.321 168.965 52.415 168.802 52.539C168.659 52.649 168.542 52.789 168.459 52.949C168.379 53.106 168.339 53.28 168.34 53.456C168.333 53.665 168.403 53.869 168.538 54.028C168.686 54.193 168.864 54.328 169.062 54.425C169.3 54.545 169.547 54.644 169.802 54.721C170.077 54.806 170.361 54.897 170.651 54.994C170.942 55.091 171.225 55.198 171.501 55.316C171.767 55.427 172.016 55.576 172.24 55.756C172.458 55.934 172.637 56.1541 172.764 56.4041C172.903 56.6911 172.971 57.007 172.962 57.325C172.966 57.717 172.891 58.105 172.742 58.467C172.597 58.815 172.374 59.125 172.091 59.375C171.781 59.643 171.422 59.848 171.034 59.978C170.569 60.133 170.081 60.208 169.59 60.199C169.013 60.207 168.439 60.104 167.9 59.895C167.429 59.713 166.994 59.448 166.614 59.115L166.984 58.515C167.026 58.445 167.083 58.384 167.151 58.339C167.229 58.295 167.317 58.273 167.407 58.277C167.528 58.283 167.645 58.326 167.741 58.401C167.859 58.483 168.001 58.574 168.168 58.674C168.361 58.786 168.565 58.8771 168.776 58.9471C169.065 59.0371 169.367 59.079 169.67 59.071C169.941 59.076 170.212 59.035 170.471 58.952C170.681 58.883 170.875 58.773 171.043 58.629C171.19 58.502 171.306 58.342 171.382 58.162C171.456 57.984 171.493 57.7921 171.492 57.5981C171.501 57.3771 171.43 57.16 171.294 56.986C171.149 56.814 170.971 56.673 170.77 56.571C170.532 56.448 170.283 56.348 170.026 56.271C169.747 56.186 169.462 56.096 169.172 56.002C168.881 55.908 168.597 55.8 168.318 55.68C168.049 55.566 167.799 55.413 167.574 55.226C167.354 55.041 167.176 54.811 167.05 54.552C166.91 54.247 166.842 53.913 166.852 53.578C166.852 53.239 166.924 52.904 167.063 52.595C167.207 52.277 167.417 51.9951 167.68 51.7661C167.972 51.5161 168.31 51.323 168.675 51.199C169.108 51.051 169.564 50.98 170.022 50.987C170.561 50.979 171.098 51.073 171.602 51.265C172.051 51.439 172.462 51.698 172.813 52.027L172.46 52.6001Z" fill="#E2E2E2"/>
<path d="M96.208 6.19727V10.6654H80.548V20.928H93.066V25.255H80.548V35.777H96.232L96.208 40.246H74.997V6.19746L96.208 6.19727Z" fill="#9FCAD1"/>
<path d="M119.779 28.317C119.999 28.798 120.196 29.291 120.369 29.795C120.559 29.291 120.759 28.79 120.972 28.293C121.185 27.796 121.409 27.32 121.645 26.863L132.392 7.11932C132.612 6.67782 132.856 6.41372 133.124 6.32712C133.494 6.22772 133.876 6.18392 134.258 6.19712H138.391V40.245H133.526V16.908C133.526 16.53 133.538 16.12 133.562 15.6786C133.586 15.2372 133.613 14.788 133.644 14.3309L122.732 34.523C122.307 35.359 121.654 35.777 120.772 35.777H119.992C119.577 35.792 119.167 35.68 118.817 35.456C118.467 35.232 118.193 34.907 118.032 34.523L106.907 14.2595C106.954 14.7321 106.993 15.1933 107.025 15.643C107.056 16.093 107.072 16.514 107.072 16.908V40.246H102.206V6.19802H106.34C106.722 6.18492 107.104 6.22872 107.473 6.32792C107.741 6.41492 107.985 6.67892 108.206 7.12022L119.118 26.911C119.338 27.368 119.558 27.836 119.779 28.317Z" fill="#9FCAD1"/>
<path d="M170.089 32.656C170.236 32.656 170.382 32.687 170.517 32.749C170.651 32.81 170.771 32.899 170.868 33.011L173.065 35.398C171.686 37.065 169.939 38.388 167.963 39.265C165.947 40.172 163.538 40.625 160.735 40.625C158.423 40.659 156.129 40.221 153.992 39.336C152.043 38.518 150.292 37.293 148.855 35.742C147.404 34.15 146.291 32.28 145.583 30.245C144.798 27.988 144.411 25.612 144.438 23.222C144.411 20.822 144.823 18.438 145.654 16.187C146.411 14.1377 147.576 12.2633 149.079 10.678C150.573 9.12654 152.375 7.90624 154.37 7.09604C156.527 6.22524 158.835 5.79124 161.16 5.81914C163.617 5.81914 165.786 6.21714 167.668 7.01314C169.481 7.76514 171.142 8.84303 172.569 10.1934L170.75 12.7712C170.625 12.9435 170.474 13.0951 170.301 13.2204C170.091 13.3568 169.843 13.423 169.593 13.4094C169.198 13.379 168.823 13.226 168.519 12.9718C168.024 12.6216 167.512 12.298 166.983 12.0026C165.197 11.0149 163.177 10.5288 161.137 10.5955C159.608 10.5779 158.09 10.8674 156.674 11.4469C155.338 12.0015 154.143 12.8501 153.179 13.9297C152.161 15.088 151.386 16.439 150.899 17.902C150.331 19.617 150.056 21.416 150.084 23.222C150.054 25.043 150.342 26.856 150.934 28.578C151.441 30.045 152.236 31.396 153.273 32.55C154.246 33.617 155.439 34.46 156.769 35.021C158.137 35.594 159.608 35.884 161.091 35.872C161.94 35.878 162.788 35.827 163.63 35.718C164.335 35.626 165.028 35.46 165.697 35.222C166.32 34.997 166.917 34.708 167.48 34.359C168.074 33.986 168.631 33.558 169.145 33.082C169.395 32.826 169.732 32.674 170.089 32.656Z" fill="#9FCAD1"/>
<path d="M181.828 0.538228C182.627 0.527428 183.423 0.655424 184.178 0.916524C184.832 1.14132 185.435 1.49503 185.95 1.95693C186.43 2.39823 186.809 2.93883 187.06 3.54113C187.545 4.74983 187.578 6.09293 187.154 7.32423C186.952 7.86993 186.687 8.38973 186.363 8.87303C186.024 9.37983 185.645 9.85833 185.229 10.3037C184.804 10.7611 184.363 11.2261 183.907 11.6985L180.529 15.1272C180.919 15.0056 181.318 14.9108 181.722 14.8434C182.085 14.7823 182.452 14.7506 182.82 14.7487H186.599C186.764 14.7379 186.93 14.7607 187.086 14.8155C187.243 14.8704 187.386 14.9562 187.509 15.0679C187.617 15.1826 187.702 15.3183 187.757 15.4667C187.811 15.615 187.835 15.773 187.827 15.931V18.106H175.38V16.9C175.384 16.642 175.432 16.386 175.522 16.144C175.622 15.867 175.783 15.6163 175.994 15.4107L181.072 10.398C181.445 10.0411 181.796 9.66223 182.124 9.26323C182.433 8.88733 182.714 8.48813 182.962 8.06903C183.189 7.68623 183.379 7.28233 183.529 6.86303C183.666 6.48783 183.738 6.09192 183.741 5.69252C183.757 5.39852 183.712 5.10443 183.611 4.82803C183.509 4.55163 183.353 4.29873 183.151 4.08463C182.952 3.88833 182.716 3.73463 182.456 3.63303C182.196 3.53143 181.918 3.48412 181.639 3.49392C181.103 3.46852 180.575 3.63613 180.151 3.96653C179.746 4.32163 179.445 4.77903 179.277 5.29083C179.129 5.56523 178.908 5.79403 178.64 5.95263C178.403 6.07893 178.041 6.10272 177.553 6.02372L175.522 5.69252C175.774 3.95872 176.466 2.66613 177.6 1.81493C178.734 0.963631 180.143 0.538128 181.828 0.538228Z" fill="#9FCAD1"/>
<path d="M45.396 40.366L52.218 35.936L51.848 43.731L45.151 48.233L45.396 40.366Z" fill="#9FCAD1"/>
<path d="M27.814 31.0671L35.775 26.2891L35.655 35.1681L27.862 40.0411L27.814 31.0671Z" fill="#9FCAD1"/>
<path d="M45.705 30.417L52.689 26.05L52.295 34.336L45.445 38.784L45.705 30.417Z" fill="#9FCAD1"/>
<path d="M36.809 45.941L44.07 41.2271L43.824 49.1251L36.702 53.9141L36.809 45.941Z" fill="#9FCAD1"/>
<path d="M28.047 51.71L35.621 46.792L35.514 54.796L28.09 59.787L28.047 51.71Z" fill="#9FCAD1"/>
<path d="M27.87 41.57L35.634 36.714L35.52 45.229L27.916 50.166L27.87 41.57Z" fill="#9FCAD1"/>
<path d="M37.085 25.503L44.7 20.931L44.429 29.682L36.966 34.348L37.085 25.503Z" fill="#9FCAD1"/>
<path d="M36.944 35.895L44.379 31.246L44.118 39.645L36.83 44.377L36.944 35.895Z" fill="#9FCAD1"/>
<path d="M17.717 34.93L17.505 26.063L25.411 30.799L25.458 39.763L17.717 34.93Z" fill="#9FCAD1"/>
<path d="M8.989 29.481L8.629 20.746L16.188 25.274L16.399 34.107L8.989 29.481Z" fill="#9FCAD1"/>
<path d="M17.957 44.988L17.754 36.486L25.466 41.301L25.512 49.887L17.957 44.988Z" fill="#9FCAD1"/>
<path d="M9.4 39.438L9.054 31.054L16.435 35.662L16.638 44.132L9.4 39.438Z" fill="#9FCAD1"/>
<path d="M1.268 34.165L0.792 25.896L7.72 30.221L8.065 38.572L1.268 34.165Z" fill="#9FCAD1"/>
<path d="M0.699997 24.306L0.204002 15.6997L7.295 19.948L7.654 28.648L0.699997 24.306Z" fill="#9FCAD1"/>
<path d="M18.186 54.551L17.995 46.561L25.521 51.441L25.564 59.507L18.186 54.551Z" fill="#9FCAD1"/>
<path d="M9.791 48.913L9.466 41.03L16.675 45.705L16.866 53.665L9.791 48.913Z" fill="#9FCAD1"/>
<path d="M1.808 43.551L1.36 35.774L8.13 40.164L8.454 48.015L1.808 43.551Z" fill="#9FCAD1"/>
<path d="M28.103 8.86486L35.273 4.91406L42.829 8.89326L35.66 13.0126L28.103 8.86486Z" fill="#9FCAD1"/>
<path d="M19.649 4.22638L26.79 0.446777L33.895 4.18877L26.753 8.12447L19.649 4.22638Z" fill="#9FCAD1"/>
<path d="M19.13 13.8088L26.754 9.60791L34.34 13.771L26.714 18.153L19.13 13.8088Z" fill="#9FCAD1"/>
<path d="M28.021 18.901L35.674 14.5034L43.591 18.848L35.943 23.439L28.021 18.901Z" fill="#9FCAD1"/>
<path d="M9.845 18.925L17.797 14.5435L25.408 18.903L17.445 23.478L9.845 18.925Z" fill="#9FCAD1"/>
<path d="M10.685 8.97119L18.274 4.95459L25.404 8.86739L17.809 13.0523L10.685 8.97119Z" fill="#9FCAD1"/>
<path d="M18.723 24.243L26.714 19.651L34.665 24.205L26.671 29.005L18.723 24.243Z" fill="#9FCAD1"/>
<path d="M1.417 13.8768L9.325 9.69092L16.476 13.787L8.554 18.152L1.417 13.8768Z" fill="#9FCAD1"/>
<path d="M50.351 7.2956L57.391 3.25L64.396 7.2621L57.353 11.4903L50.351 7.2956Z" fill="#9FCAD1"/>
<path d="M58.36 13.3072L65.374 9.09766L65.268 16.92L58.403 21.213L58.36 13.3072Z" fill="#9FCAD1"/>
<path d="M49.464 16.71L49.277 8.89893L56.242 13.0713L56.284 20.968L49.464 16.71Z" fill="#E2E2E2"/>
</svg>
