<svg width="66" height="62" viewBox="0 0 66 62" fill="none" xmlns="http://www.w3.org/2000/svg">
<path d="M45.5669 41.4116L52.4471 36.8203L52.0793 44.8886L45.3288 49.5692L45.5669 41.4116Z" fill="#297899"/>
<path d="M27.8462 31.7607L35.8732 26.8127L35.7434 36.0178L27.8894 41.0772L27.8462 31.7607Z" fill="#297899"/>
<path d="M45.8693 31.0922L52.9227 26.5454L52.5115 35.1486L45.6097 39.7624L45.8693 31.0922Z" fill="#297899"/>
<path d="M36.9126 47.1842L44.2256 42.3031L43.9877 50.5052L36.8045 55.4755L36.9126 47.1842Z" fill="#297899"/>
<path d="M28.0624 53.1797L35.7 48.0756L35.5917 56.3892L28.1056 61.56L28.0624 53.1797Z" fill="#297899"/>
<path d="M27.8897 42.6597L35.722 37.6225L35.6139 46.4486L27.933 51.575L27.8897 42.6597Z" fill="#297899"/>
<path d="M37.1925 25.9882L44.8734 21.2409L44.5922 30.3121L37.0627 35.171L37.1925 25.9882Z" fill="#297899"/>
<path d="M37.0418 36.7759L44.5495 31.9392L44.2683 40.654L36.9336 45.5798L37.0418 36.7759Z" fill="#297899"/>
<path d="M17.6555 35.7728L17.4392 26.5677L25.4228 31.4711L25.4661 40.7877L17.6555 35.7728Z" fill="#297899"/>
<path d="M8.84812 30.1115L8.50195 21.0402L16.1179 25.743L16.3343 34.9035L8.84812 30.1115Z" fill="#297899"/>
<path d="M17.8936 46.2036L17.6988 37.3775L25.4662 42.3701L25.5095 51.2854L17.8936 46.2036Z" fill="#297899"/>
<path d="M9.2609 40.4532L8.91472 31.7385L16.3576 36.5305L16.5739 45.3121L9.2609 40.4532Z" fill="#297899"/>
<path d="M1.06003 34.9705L0.58403 26.3895L7.57252 30.8917L7.91869 39.5395L1.06003 34.9705Z" fill="#297899"/>
<path d="M0.497629 24.7399L0 15.8246L7.13992 20.2155L7.50773 29.2422L0.497629 24.7399Z" fill="#297899"/>
<path d="M18.1308 56.1218L17.9362 47.8305L25.5304 52.8901L25.5736 61.2704L18.1308 56.1218Z" fill="#297899"/>
<path d="M9.67167 50.2824L9.34712 42.1027L16.6169 46.9392L16.79 55.2083L9.67167 50.2824Z" fill="#297899"/>
<path d="M1.62239 44.7104L1.16803 36.642L7.98342 41.1888L8.30795 49.3463L1.62239 44.7104Z" fill="#297899"/>
<path d="M28.1256 8.71464L35.3521 4.61359L42.968 8.75921L35.7415 13.0163L28.1256 8.71464Z" fill="#297899"/>
<path d="M19.6012 3.90045L26.8059 0L33.9675 3.87816L26.7627 7.95693L19.6012 3.90045Z" fill="#297899"/>
<path d="M19.0831 13.8634L26.7639 9.495L34.4231 13.8189L26.7207 18.3657L19.0831 13.8634Z" fill="#297899"/>
<path d="M28.0385 19.1457L35.7627 14.5765L43.7464 19.0789L36.0223 23.8486L28.0385 19.1457Z" fill="#297899"/>
<path d="M9.71353 19.1681L17.7405 14.6213L25.3997 19.1459L17.3728 23.8932L9.71353 19.1681Z" fill="#297899"/>
<path d="M10.5573 8.82619L18.2165 4.65826L25.3997 8.71474L17.7405 13.061L10.5573 8.82619Z" fill="#297899"/>
<path d="M18.6718 24.6733L26.7204 19.9258L34.7474 24.6509L26.6771 29.6213L18.6718 24.6733Z" fill="#297899"/>
<path d="M1.21155 13.9304L9.19529 9.58411L16.4001 13.8412L8.41637 18.3656L1.21155 13.9304Z" fill="#297899"/>
<path d="M50.564 7.0876L57.6607 2.8974L64.714 7.06531L57.6174 11.4561L50.564 7.0876Z" fill="#297899"/>
<path d="M58.6349 13.3283L65.71 8.95978L65.6018 17.0728L58.6782 21.5304L58.6349 13.3283Z" fill="#297899"/>
<path d="M49.6763 16.8722L49.4815 8.75922L56.4916 13.0832L56.5349 21.2852L49.6763 16.8722Z" fill="#E2E2E2"/>
</svg>
