<svg width="50" height="47" viewBox="0 0 50 47" fill="none" xmlns="http://www.w3.org/2000/svg">
<path d="M49.468 29.2981C48.5169 27.9004 46.6017 27.5305 45.1997 28.4727L38.8188 32.743L38.8003 19.451L41.0171 21.5276C41.4885 21.9691 42.1031 22.2121 42.7484 22.2121C42.7496 22.2121 42.751 22.2121 42.7522 22.2121C43.4489 22.2111 44.1216 21.9191 44.5978 21.4108C45.0604 20.917 45.303 20.2727 45.281 19.5963C45.2589 18.9199 44.9747 18.2927 44.4809 17.8301L40.2782 13.8932C39.9905 13.6236 39.5389 13.6384 39.2694 13.9261C39 14.2138 39.0147 14.6653 39.3023 14.9349L43.505 18.8718C43.7206 19.0737 43.8446 19.3476 43.8543 19.6428C43.8639 19.938 43.758 20.2193 43.556 20.4349C43.345 20.6601 43.0589 20.7843 42.7501 20.7847C42.7495 20.7847 42.749 20.7847 42.7484 20.7847C42.4669 20.7847 42.1986 20.6786 41.9929 20.4858L41.9928 20.4857L25.3051 4.85303C25.0301 4.59551 24.6021 4.5959 24.3278 4.8544L7.6835 20.5339C7.46855 20.7364 7.1875 20.8425 6.89219 20.8343C6.59687 20.8255 6.32275 20.7022 6.12021 20.487C5.91768 20.2721 5.81094 19.991 5.81982 19.6958C5.82861 19.4005 5.95195 19.1264 6.16689 18.9238L24.0553 2.07246C24.4793 1.67295 25.1445 1.67198 25.5696 2.07041L36.0352 11.8743C36.3228 12.1438 36.7744 12.1291 37.0439 11.8414C37.3134 11.5537 37.2986 11.1022 37.011 10.8326L26.5456 1.02871C25.5717 0.116213 24.0479 0.118264 23.0766 1.0335L17.3501 6.42803L17.3485 5.46582C17.3481 5.1625 17.2296 4.87754 17.0148 4.66348C16.8005 4.44971 16.5159 4.33203 16.2132 4.33203C16.2126 4.33203 16.2121 4.33203 16.2115 4.33203L12.1151 4.3378C11.8118 4.33819 11.527 4.45674 11.3128 4.67149C11.0987 4.88623 10.981 5.17149 10.9814 5.47491L10.9928 12.417L5.18818 17.8851C4.69561 18.349 4.41328 18.9771 4.39307 19.6534C4.37285 20.3298 4.61729 20.9735 5.08125 21.4659C5.54512 21.9585 6.17314 22.2409 6.84961 22.2611C6.87549 22.2619 6.90137 22.2623 6.92725 22.2623C7.5752 22.2623 8.18877 22.0191 8.6623 21.5729L10.8741 19.4893L10.8829 25.7677C10.1673 25.6635 9.44326 25.6088 8.71592 25.6088H7.49473V25.1809C7.49473 23.7442 6.32588 22.5754 4.88926 22.5754H2.60547C1.16885 22.5753 0 23.744 0 25.1808V36.3642C0 36.7583 0.319531 37.0778 0.713672 37.0778C1.10781 37.0778 1.42734 36.7583 1.42734 36.3642V25.1808C1.42734 24.5312 1.95586 24.0026 2.60547 24.0026H4.88916C5.53877 24.0026 6.06729 24.5312 6.06729 25.1808V26.3224V40.9509V42.0813C6.06729 42.7309 5.53877 43.2594 4.88916 43.2594H2.60547C1.95586 43.2594 1.42734 42.7309 1.42734 42.0813V40.8324C1.42734 40.4383 1.10781 40.1188 0.713672 40.1188C0.319531 40.1188 0 40.4383 0 40.8324V42.0813C0 43.5179 1.16885 44.6867 2.60547 44.6867H4.88916C6.32578 44.6867 7.49463 43.518 7.49463 42.0813V41.9843L17.9462 45.9421C17.9655 45.9494 17.9852 45.9559 18.0051 45.9614C18.4595 46.0897 18.9137 46.1541 19.3621 46.1541C19.6047 46.1541 19.8456 46.1353 20.0841 46.0976L35.4436 43.8835C35.4472 43.883 35.4507 43.8824 35.4543 43.8818C36.7602 43.6733 37.9921 43.1213 39.0168 42.2855C39.0257 42.2783 39.0345 42.2708 39.043 42.2631L48.9659 33.3385C50.1215 32.3126 50.3372 30.5756 49.468 29.2981ZM15.9216 5.75987L15.9249 7.77061L12.4179 11.0743L12.4092 5.76465L15.9216 5.75987ZM24.8185 6.35303L37.371 18.112L37.3928 33.6973L35.3722 35.0496L33.2324 34.9296L33.1759 34.3612C32.9768 32.3595 31.499 30.7492 29.545 30.3649L29.5321 21.093C29.5312 20.3814 28.9519 19.8032 28.2404 19.8032C28.2398 19.8032 28.2394 19.8032 28.2387 19.8032L21.4365 19.8128C21.0915 19.8133 20.7673 19.948 20.5237 20.1924C20.2801 20.4366 20.1462 20.7612 20.1467 21.1062L20.158 29.1902C18.8106 28.8822 17.5241 28.3735 16.3213 27.6699C16.1712 27.5821 16.0196 27.4974 15.8668 27.4149C15.8072 27.3828 15.7467 27.3526 15.6866 27.3213C15.5937 27.2728 15.5009 27.2239 15.4069 27.1773C15.3321 27.1402 15.2564 27.1051 15.1811 27.0692C15.1011 27.0313 15.0212 26.9929 14.9406 26.9563C14.8586 26.919 14.7759 26.8836 14.6933 26.8479C14.6178 26.8152 14.5423 26.7824 14.4663 26.7511C14.3813 26.716 14.2959 26.6823 14.2104 26.6488C14.1345 26.6191 14.0585 26.5897 13.9822 26.5611C13.8976 26.5295 13.8125 26.4989 13.7272 26.469C13.6473 26.4407 13.5672 26.4132 13.4867 26.3863C13.4051 26.3591 13.3232 26.3324 13.241 26.3065C13.1534 26.2789 13.0654 26.2525 12.9773 26.2265C12.9017 26.2042 12.8261 26.1819 12.75 26.1608C12.6507 26.1332 12.5509 26.1073 12.451 26.0817C12.4042 26.0697 12.3577 26.0562 12.3106 26.0445L12.2996 18.1463L24.8185 6.35303ZM28.1175 30.1863L22.1482 29.4991L21.5858 29.4344L21.5743 21.2399L28.105 21.2308L28.1175 30.1863ZM48.0149 32.2743L38.1018 41.1901C37.2757 41.86 36.2848 42.303 35.2345 42.4716L19.8816 44.6847C19.8784 44.6852 19.8753 44.6856 19.8721 44.6861L19.8614 44.6878C19.3963 44.7614 18.9119 44.7304 18.4216 44.5958L7.49473 40.4579V27.036H8.71592C9.75547 27.036 10.788 27.1561 11.7935 27.3892C11.8309 27.3979 11.8682 27.4067 11.9055 27.4157C12.029 27.4455 12.1522 27.4762 12.2749 27.5094C12.2856 27.5123 12.2963 27.5154 12.307 27.5184C12.43 27.552 12.5524 27.5874 12.6745 27.6244C12.6964 27.6311 12.7184 27.6376 12.7401 27.6443C12.87 27.6845 12.9993 27.7264 13.1279 27.7703C13.1412 27.7749 13.1544 27.7796 13.1677 27.7842C13.4355 27.8767 13.7008 27.9775 13.9627 28.0867C13.977 28.0927 13.9912 28.0986 14.0055 28.1047C14.136 28.1596 14.2658 28.2163 14.3947 28.2753C14.3981 28.2769 14.4017 28.2785 14.4051 28.2802C14.5297 28.3374 14.6534 28.3968 14.7764 28.4578C14.7908 28.4649 14.8054 28.472 14.8198 28.4792C14.9399 28.5393 15.0591 28.6015 15.1775 28.6651C15.1999 28.6772 15.2222 28.6895 15.2445 28.7016C15.3641 28.7667 15.4829 28.8331 15.6006 28.902C17.2989 29.8954 19.1478 30.5389 21.0958 30.8146C21.102 30.8154 21.108 30.8162 21.1142 30.8169L29.1104 31.7375C29.1546 31.7439 29.1985 31.7512 29.2422 31.7594C30.4193 31.9805 31.3484 32.8503 31.6593 33.983C31.7054 34.1508 31.7378 34.3244 31.7556 34.5024L31.7873 34.8218L16.801 33.5088C16.4086 33.4745 16.0621 33.7648 16.0277 34.1574C15.9933 34.5501 16.2838 34.8963 16.6764 34.9307L32.5203 36.3189C32.5241 36.3191 32.5278 36.319 32.5315 36.3193C32.5353 36.3196 32.5389 36.3202 32.5427 36.3205L35.5307 36.4882C35.544 36.489 35.5573 36.4893 35.5706 36.4893C35.5848 36.4893 35.5987 36.487 35.6128 36.4861C35.6287 36.4852 35.6446 36.4846 35.6604 36.4826C35.6817 36.4799 35.7025 36.4753 35.7234 36.4707C35.7384 36.4674 35.7534 36.4649 35.7681 36.4606C35.7909 36.4541 35.8129 36.4452 35.8351 36.4363C35.847 36.4315 35.8593 36.4279 35.871 36.4225C35.9043 36.407 35.9367 36.3893 35.9676 36.3686L38.5039 34.6712L38.5042 34.6709L45.9946 29.658C46.7482 29.1515 47.777 29.3502 48.2878 30.101C48.7548 30.7871 48.6389 31.7202 48.0149 32.2743Z" fill="#297899"/>
</svg>
