<svg width="51" height="51" viewBox="0 0 51 51" fill="none" xmlns="http://www.w3.org/2000/svg">
<path d="M35.9067 17.5014L35.3717 15.7405C34.6921 13.7403 32.5198 12.6698 30.5195 13.3494C29.3943 13.7317 28.5107 14.6153 28.1284 15.7405L27.5934 17.5014C27.1432 18.9864 27.0487 20.5565 27.3176 22.0847C27.5628 23.3714 28.3796 24.4768 29.5376 25.0889L28.9384 38.483C28.8582 39.2306 29.1007 39.977 29.6051 40.5347C30.6897 41.7212 32.531 41.8037 33.7175 40.719C33.7816 40.6603 33.8431 40.5989 33.9017 40.5347C34.3949 39.9928 34.6369 39.2684 34.5684 38.5389L33.9659 25.0872C35.1223 24.4748 35.9378 23.3701 36.1826 22.0847C36.4514 20.5565 36.3569 18.9864 35.9067 17.5014ZM34.5409 21.7947C34.3605 22.7191 33.7017 23.4775 32.8117 23.7855C32.4739 23.9125 32.2563 24.2425 32.2726 24.603L32.9059 38.6705C32.9351 38.9465 32.844 39.2216 32.6559 39.4255C32.1541 39.9223 31.346 39.9223 30.8442 39.4255C30.6467 39.2051 30.557 38.9085 30.5992 38.6155L31.2276 24.603C31.2438 24.2425 31.0262 23.9125 30.6884 23.7855C29.7984 23.4775 29.1396 22.7191 28.9592 21.7947C28.7363 20.526 28.8149 19.2225 29.1884 17.9897L29.7234 16.228C30.1374 15.1088 31.3803 14.537 32.4996 14.951C33.0914 15.1698 33.5579 15.6364 33.7767 16.228L34.3117 17.9897C34.6849 19.2226 34.7634 20.526 34.5409 21.7947Z" fill="#297899"/>
<path d="M23.0003 13.1499C22.5401 13.1499 22.167 13.523 22.167 13.9832V21.1382L19.9112 23.3941C19.7443 23.5603 19.6555 23.7896 19.667 24.0249L20.3962 38.6082C20.4136 38.9227 20.2994 39.2303 20.0812 39.4574C19.625 39.9176 18.8821 39.9209 18.4218 39.4647C18.4193 39.4623 18.4169 39.4598 18.4145 39.4574C18.1962 39.2303 18.0821 38.9227 18.0995 38.6082L18.8337 24.0249C18.8453 23.7897 18.7569 23.5605 18.5903 23.3941L16.3337 21.1382V13.9832C16.3337 13.523 15.9605 13.1499 15.5003 13.1499C15.0401 13.1499 14.667 13.523 14.667 13.9832V21.4832C14.667 21.7043 14.7549 21.9162 14.9112 22.0724L17.1495 24.3116L16.4387 38.5274C16.363 40.0802 17.5605 41.4004 19.1133 41.476C20.6662 41.5517 21.9864 40.3542 22.062 38.8014C22.0665 38.7101 22.0665 38.6188 22.062 38.5275L21.3512 24.3117L23.5895 22.0725C23.7457 21.9163 23.8337 21.7044 23.8337 21.4833V13.9833C23.8337 13.523 23.4605 13.1499 23.0003 13.1499Z" fill="#297899"/>
<path d="M18.0003 13.1499C17.5401 13.1499 17.167 13.523 17.167 13.9832V20.6499C17.167 21.1101 17.5401 21.4832 18.0003 21.4832C18.4605 21.4832 18.8337 21.1101 18.8337 20.6499V13.9832C18.8337 13.523 18.4605 13.1499 18.0003 13.1499Z" fill="#297899"/>
<path d="M20.5003 13.1499C20.0401 13.1499 19.667 13.523 19.667 13.9832V20.6499C19.667 21.1101 20.0401 21.4832 20.5003 21.4832C20.9605 21.4832 21.3337 21.1101 21.3337 20.6499V13.9832C21.3337 13.523 20.9605 13.1499 20.5003 13.1499Z" fill="#297899"/>
<path d="M25.5 0.649902C11.6929 0.649902 0.5 11.8428 0.5 25.6499C0.5 39.457 11.6929 50.6499 25.5 50.6499C39.3071 50.6499 50.5 39.457 50.5 25.6499C50.4844 11.8493 39.3006 0.665527 25.5 0.649902ZM25.5 48.9832C12.6133 48.9832 2.16667 38.5366 2.16667 25.6499C2.16667 12.7632 12.6133 2.31657 25.5 2.31657C38.3867 2.31657 48.8333 12.7632 48.8333 25.6499C48.8186 38.5304 38.3805 48.9685 25.5 48.9832Z" fill="#297899"/>
<path d="M28.2054 41.293C28.1607 40.8349 27.7531 40.4998 27.295 40.5445C27.2843 40.5456 27.2735 40.5468 27.2628 40.5483L27.2661 40.5474C26.0929 40.6837 24.9077 40.6837 23.7345 40.5474C23.2772 40.4938 22.8631 40.821 22.8095 41.2783C22.7558 41.7356 23.083 42.1496 23.5403 42.2033C24.8414 42.3553 26.1558 42.3553 27.457 42.2033C27.915 42.1587 28.2501 41.7511 28.2054 41.293Z" fill="#297899"/>
<path d="M38.2496 14.9116C37.9539 14.559 37.4282 14.5128 37.0756 14.8087C37.0745 14.8096 37.0733 14.8107 37.0721 14.8116C36.7203 15.1083 36.6755 15.6339 36.9721 15.9858C41.9966 21.9503 41.6122 30.77 36.0879 36.2749C35.7619 36.5998 35.7609 37.1276 36.0858 37.4537C36.4107 37.7797 36.9385 37.7807 37.2646 37.4558C43.4039 31.3398 43.832 21.5396 38.2496 14.9116Z" fill="#297899"/>
<path d="M29.4304 9.44888C26.1737 8.66836 22.758 8.87815 19.6213 10.0514C19.1904 10.2134 18.9726 10.694 19.1346 11.1247C19.2567 11.4494 19.5671 11.6643 19.9139 11.6646C20.0136 11.6641 20.1123 11.6459 20.2054 11.6105C23.0302 10.5542 26.1061 10.3655 29.0388 11.0689C29.4862 11.177 29.9365 10.9021 30.0446 10.4547C30.1527 10.0073 29.8778 9.557 29.4304 9.44888Z" fill="#297899"/>
<path d="M14.874 36.233C12.0648 33.4285 10.4903 29.6192 10.4999 25.6497C10.4916 22.4782 11.4962 19.387 13.3674 16.8263C13.6439 16.4584 13.5699 15.936 13.202 15.6595C12.834 15.3829 12.3116 15.457 12.0351 15.8249C12.0302 15.8314 12.0254 15.838 12.0207 15.8447C7.20269 22.4684 7.91164 31.6112 13.6932 37.413C14.019 37.739 14.5476 37.7392 14.8736 37.4134C15.1997 37.0876 15.1999 36.559 14.874 36.233Z" fill="#297899"/>
</svg>
