<svg width="51" height="51" viewBox="0 0 51 51" fill="none" xmlns="http://www.w3.org/2000/svg">
<g clip-path="url(#clip0_411_150)">
<path d="M49.6936 5.89502H1.30645C0.861089 5.89502 0.5 6.25611 0.5 6.70147V38.9595C0.5 39.4049 0.861089 39.766 1.30645 39.766H18.3488L15.9585 43.3507C15.7113 43.7211 15.8112 44.2219 16.1818 44.4691C16.3143 44.5575 16.4701 44.6047 16.6294 44.6047H32.7585C33.2038 44.6048 33.565 44.2437 33.565 43.7983C33.565 43.639 33.5178 43.4832 33.4294 43.3507L31.0391 39.766H49.6944C50.1397 39.766 50.5008 39.4049 50.5008 38.9595V6.70147C50.5008 6.25611 50.1397 5.89502 49.6944 5.89502H49.6936ZM31.252 42.9918H18.1361L20.2869 39.766H29.1014L31.2522 42.9918H31.252ZM48.8871 38.1531H2.1129V34.9273H48.8871V38.1531ZM48.8871 33.3144H2.1129V7.50792H48.8871V33.3144Z" fill="#297899"/>
<path d="M27.1125 10.7339H6.14471C5.69935 10.7342 5.33856 11.0955 5.33887 11.5409C5.33897 11.6348 5.3554 11.7279 5.38746 11.8161L8.61326 20.6871C8.72919 21.0056 9.03171 21.2176 9.37052 21.2178H21.4673V22.8307H6.95117C6.5058 22.8307 6.14471 23.1918 6.14471 23.6371C6.14471 24.0825 6.5058 24.4436 6.95117 24.4436H8.06568C6.71871 25.6096 6.57203 27.6468 7.73806 28.9938C8.90409 30.3407 10.9413 30.4874 12.2883 29.3214C13.6352 28.1554 13.7819 26.1182 12.6159 24.7712C12.5147 24.6543 12.4052 24.5448 12.2883 24.4436H18.5496C17.2027 25.6097 17.0562 27.6469 18.2223 28.9938C19.3885 30.3406 21.4257 30.4871 22.7725 29.321C24.1194 28.1549 24.2659 26.1177 23.0998 24.7708C22.9632 24.613 22.8115 24.4689 22.6471 24.3403C22.911 24.2048 23.0779 23.9338 23.0802 23.6371V12.3468H26.306V14.7661C26.306 15.2115 26.6671 15.5726 27.1125 15.5726C27.5578 15.5726 27.9189 15.2115 27.9189 14.7661V11.5403C27.9189 11.095 27.5578 10.7339 27.1125 10.7339ZM10.177 28.4758C9.28615 28.4758 8.56407 27.7537 8.56407 26.8629C8.56407 25.9721 9.28615 25.25 10.177 25.25C11.0678 25.25 11.7899 25.9721 11.7899 26.8629C11.7899 27.7537 11.0678 28.4758 10.177 28.4758ZM9.93504 19.6049L7.29633 12.3468H21.4677V13.9597H10.9838C10.5385 13.9597 10.1774 14.3208 10.1774 14.7661C10.1774 15.2115 10.5385 15.5726 10.9838 15.5726H21.4677V19.6049H9.93544H9.93504ZM20.6608 28.4758C19.77 28.4758 19.0479 27.7537 19.0479 26.8629C19.0479 25.9721 19.77 25.25 20.6608 25.25C21.5517 25.25 22.2737 25.9721 22.2737 26.8629C22.2737 27.7537 21.5517 28.4758 20.6608 28.4758Z" fill="#297899"/>
<path d="M44.8546 9.92725H33.5643C33.1189 9.92725 32.7578 10.2883 32.7578 10.7337V15.5724C32.7578 16.0178 33.1189 16.3789 33.5643 16.3789H44.8546C45.2999 16.3789 45.661 16.0178 45.661 15.5724V10.7337C45.661 10.2883 45.2999 9.92725 44.8546 9.92725ZM44.0481 14.766H34.3707V11.5401H44.0481V14.766Z" fill="#297899"/>
<path d="M29.5318 26.0566H27.9189V27.6695H29.5318V26.0566Z" fill="#297899"/>
<path d="M35.9842 26.0566H31.1455V27.6695H35.9842V26.0566Z" fill="#297899"/>
<path d="M35.9835 22.8306H27.9189V24.4435H35.9835V22.8306Z" fill="#297899"/>
<path d="M29.5318 19.605H27.9189V21.2179H29.5318V19.605Z" fill="#297899"/>
<path d="M35.9842 19.605H31.1455V21.2179H35.9842V19.605Z" fill="#297899"/>
<path d="M44.8551 24.4437H40.8229V22.8308H44.8551C45.3005 22.8308 45.6616 22.4697 45.6616 22.0243C45.6616 21.579 45.3005 21.2179 44.8551 21.2179H43.2422V20.4114C43.2422 19.9661 42.8811 19.605 42.4358 19.605C41.9904 19.605 41.6293 19.9661 41.6293 20.4114V21.2179H40.0164C39.571 21.2179 39.21 21.579 39.21 22.0243V25.2501C39.21 25.6955 39.571 26.0566 40.0164 26.0566H44.0487V27.6695H40.0164C39.571 27.6695 39.21 28.0306 39.21 28.4759C39.21 28.9213 39.571 29.2824 40.0164 29.2824H41.6293V30.0889C41.6293 30.5342 41.9904 30.8953 42.4358 30.8953C42.8811 30.8953 43.2422 30.5342 43.2422 30.0889V29.2824H44.8551C45.3005 29.2824 45.6616 28.9213 45.6616 28.4759V25.2501C45.6616 24.8048 45.3005 24.4437 44.8551 24.4437Z" fill="#297899"/>
</g>
<defs>
<clipPath id="clip0_411_150">
<rect width="50" height="50" fill="white" transform="translate(0.5 0.25)"/>
</clipPath>
</defs>
</svg>
