<svg width="50" height="51" viewBox="0 0 50 51" fill="none" xmlns="http://www.w3.org/2000/svg">
<path d="M29.9999 25.2493C31.6832 25.2493 33.0657 23.9901 33.2874 22.366L36.3332 20.0827C36.7015 19.8069 36.7765 19.2844 36.4999 18.916C36.224 18.5477 35.7015 18.4719 35.3332 18.7493L33.2091 20.3427C32.8916 19.3269 31.9532 18.5827 30.8333 18.5827H27.5C26.1217 18.5827 25.0001 19.7044 25.0001 21.0827C25.0001 19.7044 23.8784 18.5827 22.5001 18.5827H19.1666C18.0466 18.5827 17.1083 19.3269 16.7908 20.3427L14.6667 18.7493C14.2992 18.4735 13.7759 18.5485 13.5 18.916C13.2233 19.2844 13.2983 19.8069 13.6667 20.0827L16.7125 22.366C16.9341 23.9901 18.3158 25.2493 19.9999 25.2493H21.6666C23.505 25.2493 24.9999 23.7543 24.9999 21.916C24.9999 23.7544 26.4949 25.2493 28.3331 25.2493H29.9999ZM23.3333 21.916C23.3333 22.8351 22.585 23.5827 21.6666 23.5827H19.9999C19.0816 23.5827 18.3332 22.8352 18.3332 21.916V21.0827C18.3332 20.6235 18.7066 20.2494 19.1665 20.2494H22.4998C22.9598 20.2494 23.3331 20.6235 23.3331 21.0827V21.916H23.3333ZM26.6666 21.916V21.0827C26.6666 20.6235 27.0399 20.2494 27.4998 20.2494H30.8331C31.2931 20.2494 31.6664 20.6235 31.6664 21.0827V21.916C31.6664 22.8351 30.9181 23.5827 29.9997 23.5827H28.333C27.4149 23.5826 26.6666 22.8351 26.6666 21.916Z" fill="#297899"/>
<path d="M49.9749 49.2132L49.1232 45.8191C48.6957 44.5341 46.1657 40.4008 31.6667 40.2883V39.4158C31.6667 38.9559 31.2943 38.5825 30.8335 38.5825C30.3726 38.5825 30.0002 38.9559 30.0002 39.4158V41.0825C30.0002 41.0884 30.0035 41.0933 30.0035 41.0992C30.0035 41.1042 30.0002 41.1084 30.0002 41.1142C29.9968 41.6225 29.8294 46.0825 25.0002 46.0825C20.1711 46.0825 20.0036 41.5918 20.0003 41.0826V39.4159C20.0003 38.956 19.6278 38.5826 19.167 38.5826C18.7061 38.5826 18.3337 38.956 18.3337 39.4159V40.2576C7.53524 40.3425 2.12778 42.0658 0.85865 45.8799L0.0253577 49.2132C-0.0871412 49.6599 0.185317 50.1123 0.631992 50.224C1.07701 50.3374 1.53032 50.064 1.64194 49.6182L2.45697 46.3457C3.42532 43.4416 8.64021 41.9908 18.3885 41.9182C18.691 44.304 20.3126 47.749 25 47.749C29.6849 47.749 31.3075 44.3249 31.6116 41.9516C43.0331 42.0358 47.0039 44.7316 47.5248 46.2849L48.3581 49.6182C48.4531 49.9965 48.7923 50.249 49.1656 50.249C49.2323 50.249 49.3006 50.2415 49.3681 50.224C49.8148 50.1123 50.0865 49.6599 49.9749 49.2132Z" fill="#297899"/>
<path d="M5.72577 4.40951L24.8923 6.90948C24.9281 6.91368 24.964 6.91612 24.9998 6.91612C25.0356 6.91612 25.0715 6.91358 25.1073 6.90948L43.3329 4.53206V7.42539C42.8105 8.01289 41.6662 9.47869 41.6662 11.0829C41.6662 12.917 43.1613 13.5829 44.1662 13.5829C45.1712 13.5829 46.6662 12.917 46.6662 11.0829C46.6662 9.47869 45.5221 8.01289 44.9995 7.42539V3.58285C44.9995 3.47289 44.9762 3.3687 44.937 3.27202C44.9229 3.23784 44.8986 3.21118 44.8804 3.17954C44.8479 3.12124 44.8153 3.06372 44.7704 3.01538C44.7412 2.98452 44.7063 2.96372 44.673 2.93872C44.6255 2.90034 44.5788 2.86372 44.5238 2.83706C44.483 2.81704 44.4397 2.80874 44.3955 2.79624C44.3547 2.78374 44.318 2.76206 44.2738 2.7562L25.1073 0.256226C25.0356 0.247925 24.964 0.247925 24.8923 0.256226L5.72577 2.7562C5.31074 2.8104 5 3.1645 5 3.58285C5 4.00121 5.31084 4.3554 5.72577 4.40951ZM44.9996 11.0828C44.9996 11.7478 44.5487 11.9036 44.1663 11.9161C43.7838 11.9036 43.333 11.7477 43.333 11.0828C43.333 10.3911 43.758 9.61942 44.1663 9.05028C44.5746 9.61951 44.9996 10.3912 44.9996 11.0828ZM24.9998 1.92291L37.7238 3.58285L24.9998 5.2429L12.2757 3.58285L24.9998 1.92291Z" fill="#297899"/>
<path d="M26.9213 30.4843C26.8947 30.5084 26.2663 31.0827 25.0005 31.0827C23.7531 31.0827 23.1247 30.5251 23.0814 30.4852C22.7573 30.1677 22.2347 30.1702 21.9114 30.4935C21.5855 30.8194 21.5855 31.346 21.9114 31.6718C22.0214 31.7818 23.0447 32.7493 25.0005 32.7493C26.9564 32.7493 27.9797 31.7819 28.0897 31.6718C28.4113 31.3501 28.4105 30.8352 28.0946 30.5084C27.7772 30.1819 27.2538 30.1727 26.9213 30.4843Z" fill="#297899"/>
<path d="M11.6667 17.0587C10.6967 17.4028 10 18.3295 10 19.4162V22.7494C10 23.9119 10.7975 24.8919 11.875 25.1702C12.3208 26.4852 13.5525 30.051 14.2549 31.4551C15.5783 34.1026 19.3308 38.5826 24.9999 38.5826C30.6689 38.5826 34.4214 34.1026 35.7448 31.4551C36.4473 30.0509 37.6789 26.4851 38.1247 25.1702C39.2023 24.8919 39.9997 23.9119 39.9997 22.7494V19.4162C39.9997 18.3296 39.303 17.4028 38.333 17.0587V16.0829C38.333 15.6229 37.9606 15.2496 37.4997 15.2496C37.0389 15.2496 36.6664 15.6229 36.6664 16.0829V17.7496C36.6664 18.2095 37.0389 18.5829 37.4997 18.5829C37.9597 18.5829 38.333 18.957 38.333 19.4162V22.7494C38.333 23.2086 37.9597 23.5827 37.4997 23.5827C37.1406 23.5827 36.8222 23.8119 36.7097 24.1527C36.6922 24.2019 35.0514 29.1152 34.2547 30.7102C34.1272 30.9635 31.0814 36.916 24.9999 36.916C18.9183 36.916 15.8724 30.9635 15.745 30.7102C14.9475 29.1152 13.3075 24.202 13.29 24.1527C13.1766 23.8119 12.8592 23.5827 12.5 23.5827C12.04 23.5827 11.6667 23.2086 11.6667 22.7494V19.4162C11.6667 18.957 12.04 18.5829 12.5 18.5829C12.9608 18.5829 13.3333 18.2095 13.3333 17.7496V16.0828C13.3333 15.6228 12.9608 15.2495 12.5 15.2495C12.0391 15.2495 11.6667 15.6228 11.6667 16.0828V17.0587Z" fill="#297899"/>
<path d="M12.5003 6.08301C12.0394 6.08301 11.667 6.45634 11.667 6.9163V12.7495C11.667 13.0654 11.8453 13.3537 12.1278 13.4953C12.3394 13.6003 17.3911 16.0828 25.0002 16.0828C32.6093 16.0828 37.6609 13.6003 37.8725 13.4953C38.155 13.3536 38.3333 13.0654 38.3333 12.7495V6.9164C38.3333 6.45644 37.9609 6.08311 37.5 6.08311C37.0392 6.08311 36.6667 6.45644 36.6667 6.9164V12.2105C35.2884 12.7947 30.9268 14.4163 25.0002 14.4163C19.0736 14.4163 14.7119 12.7947 13.3336 12.2105V6.9164C13.3336 6.45634 12.9611 6.08301 12.5003 6.08301Z" fill="#297899"/>
</svg>
