<svg width="51" height="49" viewBox="0 0 51 49" fill="none" xmlns="http://www.w3.org/2000/svg">
<path d="M36.5784 29.0305C36.2699 28.7237 35.9259 28.4548 35.5537 28.2296L35.552 28.2263C33.4182 26.9347 30.6774 27.2725 28.9212 29.0438L28.7962 29.1696L28.6754 29.0471C26.5673 26.9245 23.1377 26.9127 21.015 29.0207C20.6909 29.3427 20.4087 29.7043 20.1754 30.0971C18.894 32.2446 19.2338 34.988 21.0004 36.758L28.207 44.008C28.5316 44.3343 29.0592 44.3357 29.3856 44.0111C29.3866 44.01 29.3876 44.009 29.3887 44.008L36.5995 36.758C38.7275 34.6182 38.7182 31.1585 36.5784 29.0305ZM35.9745 34.87C35.8177 35.129 35.6306 35.3684 35.417 35.583L28.797 42.238L22.1804 35.583C20.9524 34.349 20.719 32.4388 21.6137 30.9455C22.6745 29.1667 24.9764 28.5846 26.7551 29.6454C27.0244 29.806 27.2725 29.9997 27.4937 30.2221L28.2054 30.9388C28.5299 31.2652 29.0575 31.2665 29.3839 30.9419C29.3849 30.9409 29.386 30.9398 29.387 30.9388L30.1029 30.2196C31.3181 28.9933 33.2154 28.7593 34.692 29.6538C36.4866 30.74 37.0609 33.0755 35.9745 34.87Z" fill="#297899"/>
<path d="M49.6667 20.0828C46.147 20.069 42.8442 21.7815 40.8275 24.6661C37.1372 22.7037 33.0127 21.7008 28.8333 21.7495C24.2125 21.683 19.6676 22.9281 15.7258 25.3403L15.2125 23.5445C14.3485 20.5191 14.5139 17.2924 15.6825 14.3711L16.0642 13.4161H24.6667C25.0075 13.4165 25.3141 13.2092 25.4408 12.8928L28.7742 4.55948C28.9454 4.13229 28.7378 3.64719 28.3106 3.47594C28.3021 3.4725 28.2935 3.46927 28.285 3.46614L19.1183 0.13281C18.8273 0.0268729 18.5016 0.0910395 18.2725 0.299477L9.10583 8.63281C8.99604 8.73271 8.9149 8.86021 8.87083 9.00198L0.995001 34.3353C0.666876 35.2891 0.499584 36.2908 0.500001 37.2995V43.4161C0.499897 43.775 0.729584 44.0935 1.07 44.207C4.46646 45.3402 8.02365 45.9173 11.6042 45.9161H17.6342C21.1246 47.6018 24.9575 48.4574 28.8333 48.4161C36.1008 48.4161 42.725 45.562 45.9575 41.092C47.1454 41.5281 48.4011 41.7507 49.6667 41.7495C50.1269 41.7495 50.5 41.3764 50.5 40.9161V20.9161C50.5 20.4558 50.1269 20.0828 49.6667 20.0828ZM48.8333 40.0453C47.849 39.9551 46.8857 39.7051 45.9817 39.3053C45.6056 39.1401 45.1653 39.2734 44.9442 39.6195C42.1775 43.9511 35.8533 46.7495 28.8333 46.7495C25.1531 46.7934 21.5146 45.9682 18.2133 44.3411C18.0957 44.2809 17.9655 44.2495 17.8333 44.2495H11.6042C8.40354 44.2505 5.22135 43.765 2.16667 42.8095V37.2995C2.16833 36.4672 2.30917 35.6411 2.58333 34.8553L10.3992 9.71364L19.0217 1.87114L23.6942 3.57031L21.6175 8.41614H19.6667V10.0828H22.1667C22.5 10.0828 22.8011 9.88416 22.9325 9.57781L25.2658 4.14114L26.91 4.73864L24.1025 11.7495H15.5C15.1592 11.7492 14.8526 11.9565 14.7258 12.2728L14.1342 13.752C12.8293 17.0164 12.6449 20.6216 13.61 24.002L14.4433 26.9061C14.2767 27.1103 14.1192 27.3228 13.9725 27.5436C13.3623 28.454 12.9376 29.4757 12.7225 30.5503L12.1833 33.2495C12.0913 33.7004 12.3821 34.1406 12.833 34.2327L12.8333 34.2328C12.8881 34.2443 12.9441 34.2499 13 34.2495C13.3957 34.2492 13.7367 33.9705 13.8158 33.5828L14.3567 30.8811C14.7065 29.134 15.7358 27.5972 17.2183 26.6086L18.4617 25.7795C18.5122 25.7395 18.5578 25.6936 18.5975 25.6428C21.8018 24.1497 25.2983 23.3891 28.8333 23.4161C32.9811 23.3527 37.0681 24.4185 40.6567 26.4995C41.0491 26.74 41.5621 26.6169 41.8026 26.2245C41.804 26.2223 41.8053 26.2201 41.8067 26.2178C43.298 23.6947 45.9139 22.0449 48.8333 21.7861V40.0453Z" fill="#297899"/>
</svg>
