<svg width="50" height="51" viewBox="0 0 50 51" fill="none" xmlns="http://www.w3.org/2000/svg">
<path d="M47.7605 42.1157C48.1213 41.5832 48.333 40.9407 48.333 40.2498C48.333 38.4115 46.838 36.9165 44.9997 36.9165C43.1613 36.9165 41.6663 38.4115 41.6663 40.2498C41.6663 40.9407 41.878 41.5832 42.2388 42.1157C41.2838 42.4507 40.533 43.2007 40.1988 44.1557C39.963 43.9957 39.7005 43.8782 39.4263 43.7823C39.788 43.2498 39.9997 42.6073 39.9997 41.9165C39.9997 40.0782 38.5047 38.5832 36.6663 38.5832C34.828 38.5832 33.333 40.0782 33.333 41.9165C33.333 42.6073 33.5447 43.2498 33.9055 43.7823C33.6322 43.8782 33.3688 43.9957 33.133 44.1557C32.798 43.2007 32.048 42.4498 31.093 42.1157C31.4547 41.5832 31.6663 40.9407 31.6663 40.2498C31.6663 38.4115 30.1713 36.9165 28.333 36.9165C26.4947 36.9165 24.9997 38.4115 24.9997 40.2498C24.9997 40.9407 25.2113 41.5832 25.5722 42.1157C24.273 42.5715 23.333 43.7965 23.333 45.2498V47.7498C23.333 48.2107 23.7055 48.5832 24.1663 48.5832H31.6663V49.4165C31.6663 49.8773 32.0388 50.2498 32.4997 50.2498H40.833C41.2938 50.2498 41.6663 49.8773 41.6663 49.4165V48.5832H49.1663C49.6272 48.5832 49.9997 48.2107 49.9997 47.7498V45.2498C49.9997 43.7965 49.0597 42.5715 47.7605 42.1157ZM28.333 38.5832C29.2522 38.5832 29.9997 39.3307 29.9997 40.2498C29.9997 41.169 29.2522 41.9165 28.333 41.9165C27.4138 41.9165 26.6663 41.169 26.6663 40.2498C26.6663 39.3307 27.4138 38.5832 28.333 38.5832ZM31.6663 46.9165H24.9997V45.2498C24.9997 44.3307 25.7472 43.5832 26.6663 43.5832H29.9997C30.9188 43.5832 31.6663 44.3307 31.6663 45.2498V46.9165ZM36.6663 40.2498C37.5855 40.2498 38.333 40.9973 38.333 41.9165C38.333 42.8357 37.5855 43.5832 36.6663 43.5832C35.7472 43.5832 34.9997 42.8357 34.9997 41.9165C34.9997 40.9973 35.7472 40.2498 36.6663 40.2498ZM39.9997 47.7498V48.5832H33.333V47.7498V46.9165C33.333 45.9973 34.0805 45.2498 34.9997 45.2498H38.333C39.2522 45.2498 39.9997 45.9973 39.9997 46.9165V47.7498ZM44.9997 38.5832C45.9188 38.5832 46.6663 39.3307 46.6663 40.2498C46.6663 41.169 45.9188 41.9165 44.9997 41.9165C44.0805 41.9165 43.333 41.169 43.333 40.2498C43.333 39.3307 44.0805 38.5832 44.9997 38.5832ZM48.333 46.9165H41.6663V45.2498C41.6663 44.3307 42.4138 43.5832 43.333 43.5832H46.6663C47.5855 43.5832 48.333 44.3307 48.333 45.2498V46.9165Z" fill="#297899"/>
<path d="M25.5892 27.1608L21.4225 22.9942C21.2667 22.8375 21.055 22.75 20.8333 22.75H16.6667V18.5833C16.6667 18.1225 16.2942 17.75 15.8333 17.75H0.833333C0.3725 17.75 0 18.1225 0 18.5833V29.4167V35.25C0 35.7108 0.3725 36.0833 0.833333 36.0833H3.45167C3.82417 37.5175 5.1175 38.5833 6.66667 38.5833C8.21583 38.5833 9.50917 37.5175 9.88167 36.0833H16.785C17.1575 37.5175 18.4508 38.5833 20 38.5833C21.5492 38.5833 22.8425 37.5175 23.215 36.0833H25C25.4608 36.0833 25.8333 35.7108 25.8333 35.25V27.75C25.8333 27.5283 25.7458 27.3167 25.5892 27.1608ZM1.66667 19.4167H15V23.5833V28.5833H1.66667V19.4167ZM6.66667 36.9167C5.7475 36.9167 5 36.1692 5 35.25C5 34.3308 5.7475 33.5833 6.66667 33.5833C7.58583 33.5833 8.33333 34.3308 8.33333 35.25C8.33333 36.1692 7.58583 36.9167 6.66667 36.9167ZM20 36.9167C19.0808 36.9167 18.3333 36.1692 18.3333 35.25C18.3333 34.3308 19.0808 33.5833 20 33.5833C20.9192 33.5833 21.6667 34.3308 21.6667 35.25C21.6667 36.1692 20.9192 36.9167 20 36.9167ZM24.1667 34.4167H23.2275C23.1983 34.3033 23.1533 34.1967 23.1125 34.0875C23.0925 34.0342 23.0792 33.9792 23.0567 33.9267C22.9767 33.7433 22.8825 33.5675 22.7725 33.4033C22.7483 33.3667 22.7175 33.335 22.6908 33.2992C22.6 33.1733 22.5033 33.0533 22.3958 32.9417C22.3467 32.8908 22.2933 32.8467 22.2417 32.7992C22.1458 32.7117 22.0483 32.6283 21.9425 32.5525C21.8808 32.5075 21.8175 32.4667 21.7525 32.4267C21.645 32.36 21.5342 32.3 21.4183 32.245C21.35 32.2125 21.2825 32.18 21.2108 32.1517C21.0833 32.1017 20.9508 32.0633 20.8167 32.0292C20.7517 32.0125 20.69 31.9917 20.6242 31.9792C20.4217 31.9408 20.2142 31.9167 20 31.9167C19.7858 31.9167 19.5783 31.9408 19.375 31.98C19.3092 31.9925 19.2467 32.0142 19.1825 32.03C19.0475 32.0642 18.9158 32.1025 18.7883 32.1525C18.7175 32.1808 18.65 32.2133 18.5808 32.2458C18.4658 32.3008 18.3542 32.36 18.2467 32.4275C18.1817 32.4683 18.1183 32.5083 18.0567 32.5533C17.9517 32.6292 17.8533 32.7125 17.7575 32.8C17.7058 32.8475 17.6525 32.8917 17.6033 32.9425C17.4958 33.0542 17.3992 33.1742 17.3083 33.3C17.2825 33.3358 17.2517 33.3675 17.2267 33.4042C17.1167 33.5692 17.0217 33.7442 16.9425 33.9275C16.92 33.9792 16.9067 34.035 16.8867 34.0883C16.8458 34.1967 16.8008 34.3033 16.7717 34.4175H9.89333C9.86417 34.3042 9.81917 34.1975 9.77833 34.0883C9.75833 34.035 9.745 33.98 9.7225 33.9275C9.6425 33.7442 9.54833 33.5683 9.43833 33.4042C9.41417 33.3675 9.38333 33.3358 9.35667 33.3C9.26583 33.1742 9.16917 33.0542 9.06167 32.9425C9.0125 32.8917 8.95917 32.8475 8.9075 32.8C8.81167 32.7125 8.71417 32.6292 8.60833 32.5533C8.54667 32.5083 8.48333 32.4675 8.41833 32.4275C8.31083 32.3608 8.2 32.3008 8.08417 32.2458C8.01583 32.2133 7.94833 32.1808 7.87667 32.1525C7.74917 32.1025 7.61667 32.0642 7.4825 32.03C7.4175 32.0133 7.35583 31.9925 7.29 31.98C7.08833 31.9408 6.88083 31.9167 6.66667 31.9167C6.4525 31.9167 6.245 31.9408 6.04167 31.98C5.97583 31.9925 5.91333 32.0142 5.84917 32.03C5.71417 32.0642 5.5825 32.1025 5.455 32.1525C5.38417 32.1808 5.31667 32.2133 5.2475 32.2458C5.1325 32.3008 5.02083 32.36 4.91333 32.4275C4.84833 32.4683 4.785 32.5083 4.72333 32.5533C4.61833 32.6292 4.52 32.7125 4.42417 32.8C4.3725 32.8475 4.31917 32.8917 4.27 32.9425C4.1625 33.0542 4.06583 33.1742 3.975 33.3C3.94917 33.3358 3.91833 33.3675 3.89333 33.4042C3.78333 33.5692 3.68833 33.7442 3.60917 33.9275C3.58667 33.9792 3.57333 34.035 3.55333 34.0883C3.51333 34.1967 3.46833 34.3033 3.43917 34.4167H1.66667V30.25H15.8333C16.2942 30.25 16.6667 29.8775 16.6667 29.4167V24.4167H20.4883L24.1667 28.095V34.4167Z" fill="#297899"/>
<path d="M49.1663 0.25H44.1663C43.7055 0.25 43.333 0.6225 43.333 1.08333V10.6217L38.333 13.7467V11.0833C38.333 10.7808 38.1688 10.5017 37.903 10.3542C37.6397 10.2083 37.3147 10.215 37.0572 10.3767L31.6663 13.7467V11.0833C31.6663 10.7808 31.5022 10.5017 31.2363 10.3542C30.9722 10.2083 30.648 10.215 30.3905 10.3767L23.7238 14.5433C23.4813 14.6958 23.333 14.9625 23.333 15.25V21.9167C23.333 22.3775 23.7055 22.75 24.1663 22.75H30.833H37.4997H44.1663H49.1663C49.6272 22.75 49.9997 22.3775 49.9997 21.9167V13.5833V1.08333C49.9997 0.6225 49.6272 0.25 49.1663 0.25ZM29.9997 15.25V21.0833H24.9997V15.7125L29.9997 12.5875V15.25ZM36.6663 15.25V21.0833H31.6663V15.7125L36.6663 12.5875V15.25ZM43.333 13.5833V21.0833H38.333V15.7125L43.333 12.5875V13.5833ZM48.333 21.0833H44.9997V14.4167H48.333V21.0833ZM48.333 12.75H44.9997V11.0833V1.91667H48.333V12.75Z" fill="#297899"/>
<path d="M34.9997 16.9165H33.333V19.4165H34.9997V16.9165Z" fill="#297899"/>
<path d="M41.6667 16.9165H40V19.4165H41.6667V16.9165Z" fill="#297899"/>
<path d="M28.3337 16.9165H26.667V19.4165H28.3337V16.9165Z" fill="#297899"/>
<path d="M44.7455 27.605C44.6622 28.1316 44.5555 28.66 44.4297 29.1725L46.0489 29.5683C46.1847 29.0116 46.2997 28.44 46.3914 27.87L44.7455 27.605Z" fill="#297899"/>
<path d="M44.9999 24.4165C44.9999 24.9532 44.979 25.4907 44.9365 26.0148L46.5982 26.1482C46.644 25.5798 46.6665 24.9965 46.6665 24.4165H44.9999Z" fill="#297899"/>
<path d="M42.7441 33.6533C42.4999 34.1233 42.2324 34.59 41.9482 35.0408L43.3591 35.9275C43.6666 35.4383 43.9574 34.9333 44.2216 34.4233L42.7441 33.6533Z" fill="#297899"/>
<path d="M43.989 30.71C43.8215 31.2141 43.6315 31.7175 43.4248 32.2066L44.9598 32.8558C45.184 32.3266 45.3898 31.7808 45.5706 31.2341L43.989 30.71Z" fill="#297899"/>
<path d="M10.7883 8.89502C10.3533 9.27419 9.92915 9.67419 9.52832 10.0825L10.7183 11.2492C11.0883 10.8717 11.48 10.5025 11.8833 10.1517L10.7883 8.89502Z" fill="#297899"/>
<path d="M31.9058 4.70752L31.375 6.28752C31.8767 6.45502 32.3783 6.64752 32.8683 6.85752L33.5258 5.32585C32.9933 5.09835 32.4483 4.89002 31.9058 4.70752Z" fill="#297899"/>
<path d="M13.5746 6.83643C13.088 7.13893 12.6055 7.46643 12.1396 7.80976L13.1305 9.15059C13.5596 8.83309 14.0046 8.53059 14.453 8.25226L13.5746 6.83643Z" fill="#297899"/>
<path d="M6.36475 14.1919C6.07475 14.6777 5.79642 15.1911 5.53809 15.7161L7.03392 16.4519C7.27225 15.9677 7.52892 15.4944 7.79559 15.0461L6.36475 14.1919Z" fill="#297899"/>
<path d="M8.36609 11.3667C7.99359 11.8125 7.63776 12.2742 7.30859 12.7392L8.66943 13.7025C8.97359 13.2717 9.30193 12.8459 9.64526 12.4342L8.36609 11.3667Z" fill="#297899"/>
<path d="M25.0946 3.5835L25.0879 5.25016C25.6237 5.25266 26.1612 5.276 26.6862 5.32016L26.8262 3.66016C26.2579 3.61183 25.6754 3.586 25.0946 3.5835Z" fill="#297899"/>
<path d="M28.5451 3.87256L28.2734 5.51673C28.8026 5.60423 29.3293 5.71256 29.8393 5.84089L30.2426 4.22339C29.6884 4.08506 29.1176 3.96673 28.5451 3.87256Z" fill="#297899"/>
<path d="M35.0899 6.07178L34.3115 7.54678C34.779 7.79261 35.2449 8.06261 35.6965 8.34928L36.5882 6.94178C36.0999 6.63094 35.5957 6.33928 35.0899 6.07178Z" fill="#297899"/>
<path d="M23.3636 3.64355C22.7861 3.68772 22.2069 3.75439 21.6436 3.84105L21.8994 5.48855C22.4211 5.40689 22.9561 5.34605 23.4894 5.30522L23.3636 3.64355Z" fill="#297899"/>
<path d="M16.6501 5.25098C16.1209 5.47264 15.5926 5.71931 15.0801 5.98348L15.8434 7.46431C16.3167 7.22014 16.8051 6.99348 17.2926 6.78931L16.6501 5.25098Z" fill="#297899"/>
<path d="M19.9436 4.17676C19.3861 4.30926 18.8244 4.46842 18.2744 4.64759L18.7919 6.23092C19.2986 6.06592 19.8161 5.91926 20.3294 5.79676L19.9436 4.17676Z" fill="#297899"/>
<path d="M17.3912 43.9761L16.8037 45.5352C17.3429 45.7386 17.897 45.9227 18.4504 46.0802L18.9095 44.4786C18.4004 44.3319 17.8895 44.1627 17.3912 43.9761Z" fill="#297899"/>
<path d="M14.5029 42.6118L13.6729 44.0568C14.1745 44.3443 14.6912 44.6135 15.2095 44.8585L15.9212 43.351C15.442 43.1252 14.9645 42.8768 14.5029 42.6118Z" fill="#297899"/>
<path d="M20.4639 44.8564L20.1348 46.4906C20.7014 46.6048 21.2764 46.6973 21.8456 46.7656L22.0439 45.1106C21.5189 45.0481 20.9881 44.9623 20.4639 44.8564Z" fill="#297899"/>
<path d="M9.77719 38.8501L8.55469 39.9826C8.86302 40.3159 9.18385 40.6401 9.51302 40.9543L10.6622 39.7468C10.358 39.4576 10.063 39.1576 9.77719 38.8501Z" fill="#297899"/>
<path d="M11.8647 40.8027L10.8164 42.0986C11.2672 42.4636 11.7339 42.8119 12.2047 43.1344L13.1472 41.7611C12.7139 41.4619 12.2814 41.1402 11.8647 40.8027Z" fill="#297899"/>
</svg>
