<svg width="50" height="51" viewBox="0 0 50 51" fill="none" xmlns="http://www.w3.org/2000/svg">
<g clip-path="url(#clip0_411_240)">
<path d="M44.9205 23.166C44.5876 21.5264 43.306 20.2448 41.6664 19.9119V10.6621C41.6664 9.28136 40.5471 8.16211 39.1664 8.16211C37.7857 8.16211 36.6664 9.28136 36.6664 10.6621V10.9587L18.9867 18.9953H5.83362C2.61211 19.0171 0.0183018 21.6465 0.0401764 24.8681C0.0597594 27.7374 2.16316 30.1664 5.0003 30.5959V43.1615C5.0003 43.6217 5.37342 43.9948 5.83362 43.9948H12.5002C12.9604 43.9948 13.3335 43.6217 13.3335 43.1615V36.4791C15.671 36.3521 17.5009 34.4193 17.5001 32.0784V30.6617H19.0209L36.6664 37.0783V37.3283C36.6664 38.709 37.7857 39.8282 39.1664 39.8282C40.5471 39.8282 41.6664 38.709 41.6664 37.3283V28.0784C43.9215 27.6205 45.3784 25.4212 44.9205 23.166ZM11.6669 42.3282H6.66694V40.6616H8.33358V38.9949H6.66694V37.3283H8.33358V35.6617H6.66694V33.995H8.33358V32.3284H6.66694V30.6617H11.6669V42.3282ZM15.8335 32.0784C15.8381 33.499 14.7494 34.6843 13.3335 34.8V30.6617H15.8335V32.0784ZM18.3334 28.9951H5.83362C3.53251 28.9946 1.66744 27.1288 1.66796 24.8276C1.66817 23.723 2.10702 22.6638 2.88784 21.8827C3.6673 21.0987 4.72801 20.6591 5.83362 20.6619H18.3334V28.9951ZM36.6664 35.305L20.0001 29.2451V20.3652L36.6664 12.7895V35.305ZM39.9997 37.3283C39.9997 37.7885 39.6266 38.1616 39.1664 38.1616C38.7062 38.1616 38.3331 37.7885 38.3331 37.3283V36.495V10.6621C38.3331 10.2019 38.7062 9.82875 39.1664 9.82875C39.6266 9.82875 39.9997 10.2019 39.9997 10.6621V37.3283ZM43.1955 24.8127C42.9459 25.529 42.3828 26.0922 41.6664 26.3418V21.6486C42.9624 22.1 43.6469 23.5166 43.1955 24.8127Z" fill="#297899"/>
<path d="M9.16695 22.3286C7.78624 22.3286 6.66699 23.4479 6.66699 24.8286C6.66699 26.2093 7.78624 27.3285 9.16695 27.3285C10.5477 27.3285 11.6669 26.2093 11.6669 24.8286C11.6669 23.4479 10.5477 22.3286 9.16695 22.3286ZM9.16695 25.6619C8.70675 25.6619 8.33363 25.2888 8.33363 24.8286C8.33363 24.3684 8.70675 23.9953 9.16695 23.9953C9.62715 23.9953 10.0003 24.3684 10.0003 24.8286C10.0003 25.2888 9.62715 25.6619 9.16695 25.6619Z" fill="white"/>
<path d="M23.3327 41.4949C24.2531 41.4949 24.9993 40.7487 24.9993 39.8283C24.9993 38.9078 24.2531 38.1616 23.3327 38.1616C22.4122 38.1616 21.666 38.9078 21.666 39.8283C21.666 40.7487 22.4122 41.4949 23.3327 41.4949Z" fill="#297899"/>
<path d="M49.8589 6.03291L49.8588 6.03271C49.6035 5.64979 49.0861 5.54636 48.7032 5.80177L48.703 5.80188L43.703 9.13515C43.3201 9.39057 43.2168 9.90806 43.4722 10.291C43.7276 10.6739 44.2451 10.7772 44.628 10.5218L49.6279 7.18852C50.0109 6.93311 50.1143 6.41572 49.8589 6.03291Z" fill="#297899"/>
<path d="M49.9522 17.1425C49.8516 16.7162 49.4381 16.4406 49.0059 16.5116H48.9993L44.8327 17.3449C44.3816 17.4365 44.0903 17.8764 44.1819 18.3274C44.2608 18.7161 44.6027 18.9953 44.9993 18.9949C45.0553 18.9952 45.1112 18.9896 45.166 18.9783L49.3326 18.1449C49.7805 18.0392 50.0579 17.5904 49.9522 17.1425Z" fill="#297899"/>
<path d="M49.3322 29.8451L45.1656 29.0117C44.7177 28.906 44.2688 29.1834 44.1631 29.6313C44.0574 30.0792 44.3348 30.5281 44.7827 30.6338C44.8013 30.6382 44.8201 30.6419 44.8389 30.645L49.0055 31.4784C49.0581 31.4893 49.1118 31.4949 49.1655 31.495C49.6257 31.4954 49.9993 31.1227 49.9997 30.6625C50.0001 30.2659 49.7208 29.924 49.3322 29.8451Z" fill="#297899"/>
<path d="M49.5383 39.0821L44.5384 36.5822C44.1265 36.3764 43.6258 36.5436 43.4201 36.9555C43.2143 37.3674 43.3815 37.8681 43.7934 38.0738L48.7933 40.5738C49.2052 40.7795 49.7059 40.6123 49.9116 40.2004C50.1173 39.7886 49.9502 39.2878 49.5383 39.0821Z" fill="#297899"/>
<path d="M8.90166 8.40627C8.57875 8.0944 8.06678 8.0944 7.74387 8.40627L0.243993 15.9061C-0.0814179 16.2317 -0.0813137 16.7593 0.244202 17.0847C0.400449 17.2408 0.612321 17.3286 0.83315 17.3286C1.05419 17.3286 1.26606 17.2407 1.42231 17.0845L8.92218 9.58458C9.24186 9.25354 9.2327 8.72595 8.90166 8.40627Z" fill="#297899"/>
<path d="M7.49965 17.3284C8.42011 17.3284 9.16629 16.5822 9.16629 15.6618C9.16629 14.7413 8.42011 13.9951 7.49965 13.9951C6.57919 13.9951 5.83301 14.7413 5.83301 15.6618C5.83301 16.5822 6.57919 17.3284 7.49965 17.3284Z" fill="#297899"/>
<path d="M1.66664 11.4954C2.5871 11.4954 3.33328 10.7492 3.33328 9.82875C3.33328 8.90829 2.5871 8.16211 1.66664 8.16211C0.74618 8.16211 0 8.90829 0 9.82875C0 10.7492 0.74618 11.4954 1.66664 11.4954Z" fill="#297899"/>
<path d="M33.9219 42.5655L26.422 35.0656C26.2648 34.9118 26.0529 34.8264 25.8329 34.8282H19.1663C18.7061 34.8282 18.333 35.2013 18.333 35.6615L18.3505 42.3105C18.3519 42.5294 18.4393 42.739 18.5938 42.8939L26.0937 50.3937C26.4189 50.7193 26.9466 50.7197 27.2722 50.3944C27.2724 50.3941 27.2727 50.3939 27.2729 50.3937L33.9219 43.7438C34.2472 43.4184 34.2472 42.8909 33.9219 42.5655ZM26.6837 48.6321L20.0171 41.9655L19.9996 36.4948H25.4854L32.1519 43.1613L26.6837 48.6321Z" fill="#297899"/>
<path d="M29.1657 5.66203C29.6259 5.66203 29.999 5.28891 29.999 4.82871V1.49543C29.999 1.03523 29.6259 0.662109 29.1657 0.662109H12.4993C12.0391 0.662109 11.666 1.03523 11.666 1.49543V4.82871C11.666 5.28891 12.0391 5.66203 12.4993 5.66203C12.9595 5.66203 13.3327 6.03514 13.3327 6.49535C13.3327 6.95555 12.9595 7.32866 12.4993 7.32866C12.0391 7.32866 11.666 7.70178 11.666 8.16198V11.4953C11.666 11.9555 12.0391 12.3286 12.4993 12.3286H29.1657C29.6259 12.3286 29.999 11.9555 29.999 11.4953V8.16198C29.999 7.70178 29.6259 7.32866 29.1657 7.32866C28.7055 7.32866 28.3324 6.95555 28.3324 6.49535C28.3324 6.03514 28.7055 5.66203 29.1657 5.66203ZM28.3324 4.13788C27.0304 4.59736 26.3474 6.02535 26.8069 7.32731C27.0586 8.04032 27.6194 8.60114 28.3324 8.85281V10.6619H24.1658V9.82862H22.4992V10.6619H13.3327V8.85281C14.6346 8.39333 15.3176 6.96534 14.8582 5.66338C14.6065 4.95037 14.0457 4.38955 13.3327 4.13788V2.32875H28.3324V4.13788Z" fill="#297899"/>
<path d="M24.1666 3.16211H22.5V4.82875H24.1666V3.16211Z" fill="#297899"/>
<path d="M24.1666 6.49512H22.5V8.16176H24.1666V6.49512Z" fill="#297899"/>
</g>
<defs>
<clipPath id="clip0_411_240">
<rect width="50" height="50" fill="white" transform="translate(0 0.649902)"/>
</clipPath>
</defs>
</svg>
