<svg width="51" height="51" viewBox="0 0 51 51" fill="none" xmlns="http://www.w3.org/2000/svg">
<path d="M50.4983 10.1908C50.4485 5.94717 48.2768 3.60996 44.3831 3.60996C42.8761 3.60996 41.424 3.96074 40.4747 4.25342C40.5692 2.51885 40.5706 1.44814 40.5706 1.39492L40.5707 0.652344H10.43V1.39482C10.43 1.42021 10.4326 2.50781 10.5282 4.2543C9.57895 3.96143 8.12543 3.60996 6.61694 3.60996C2.72338 3.60996 0.551605 5.94707 0.501801 10.1908C0.452777 14.3656 1.40493 18.0818 3.33159 21.2364C5.22319 24.3336 7.64096 26.1999 9.33618 27.2199C12.0513 28.8539 14.7649 29.1969 16.5633 29.1969C17.0067 29.1969 17.4338 29.176 17.8333 29.1348C17.8598 29.132 17.8843 29.1289 17.9102 29.1261C18.7797 30.0625 19.7171 30.8126 20.7188 31.37C21.4572 31.7809 21.9707 32.4974 22.1467 33.3209C21.1511 33.6308 20.4262 34.5609 20.4262 35.6571C20.4262 36.7779 21.1843 37.7245 22.2143 38.0126V41.1288H18.1965V44.3809H14.2317V50.6472H36.7689V44.3809H32.804V41.1288H28.7863V38.0126C29.8164 37.7244 30.5745 36.7779 30.5745 35.6571C30.5745 34.5608 29.8496 33.6308 28.8539 33.3209C29.0299 32.4974 29.5434 31.781 30.2819 31.37C31.2811 30.8141 32.2249 30.0599 33.0923 29.1265C33.3997 29.1605 33.8605 29.1968 34.4367 29.1968C34.4369 29.1968 34.4368 29.1968 34.4371 29.1968C36.2353 29.1968 38.9488 28.8536 41.6637 27.2198C43.3588 26.1997 45.7767 24.3335 47.6683 21.2363C49.5953 18.0818 50.5473 14.3655 50.4983 10.1908ZM39.0735 2.1373C39.0668 2.40889 39.0563 2.75029 39.0401 3.1499H11.9636C11.9468 2.75039 11.9356 2.4085 11.9284 2.1373H39.0735ZM40.0834 8.95498C41.0895 8.62012 42.3934 8.28242 43.5615 8.28242C44.5409 8.28242 45.246 8.52168 45.6575 8.99356C46.1303 9.53594 46.2828 10.4471 46.1103 11.702C45.3922 16.9291 43.1257 21.0094 39.7281 23.1909C38.5446 23.9509 37.27 24.2648 36.2018 24.3764C38.4613 19.6272 39.5548 13.6687 40.0834 8.95498ZM11.6812 14.1271C12.4116 18.0446 13.42 21.4087 14.6786 24.1258C14.7175 24.2102 14.7572 24.2933 14.7966 24.3764C13.7289 24.2646 12.455 23.9507 11.272 23.1911C7.87446 21.0095 5.60786 16.9293 4.88979 11.7021C4.71743 10.4472 4.86977 9.53594 5.34272 8.99375C5.75414 8.52187 6.45942 8.28271 7.43872 8.28271C8.60776 8.28271 9.91284 8.6209 10.9193 8.95596C11.0991 10.5636 11.3449 12.3232 11.6812 14.1271ZM16.5633 27.7119C14.9532 27.7119 12.5249 27.4058 10.102 25.9477C7.62397 24.4564 1.8725 19.9375 1.98676 10.2083C2.02719 6.76758 3.54174 5.09502 6.61694 5.09502C8.26157 5.09502 9.88588 5.59082 10.6284 5.85234C10.6654 6.35049 10.7069 6.8501 10.7528 7.34766C9.7435 7.05117 8.55434 6.79746 7.43872 6.79746C6.01118 6.79746 4.92944 7.20791 4.22338 8.01748C3.4559 8.89766 3.1851 10.2053 3.4185 11.904C3.8183 14.8143 4.65385 17.3865 5.902 19.5492C7.0935 21.6139 8.63032 23.2596 10.4696 24.4404C12.2661 25.594 14.2091 25.885 15.5952 25.9128C15.5998 25.921 15.6046 25.9288 15.6093 25.9369C15.6853 26.07 15.7621 26.2009 15.8396 26.3301C15.8637 26.3704 15.888 26.4104 15.9123 26.4504C15.9863 26.5719 16.0608 26.6922 16.1361 26.8101C16.1644 26.8544 16.1931 26.8977 16.2216 26.9416C16.2729 27.0204 16.3245 27.0985 16.3764 27.1758C16.4266 27.2505 16.477 27.3244 16.5277 27.3976C16.5774 27.4691 16.6272 27.5403 16.6774 27.6105C16.7009 27.6436 16.7241 27.6778 16.7476 27.7104C16.6878 27.7114 16.6264 27.7119 16.5633 27.7119ZM35.284 45.866V49.1622H15.7168V45.866H18.1966H32.8041H35.284ZM28.7865 42.614H31.3191V44.381H19.6817V42.614H22.2144H28.7865ZM23.6994 41.1289V38.1033H27.3014V41.1289H23.6994ZM29.0896 35.6571C29.0896 36.1871 28.6583 36.6183 28.1285 36.6183H22.8724C22.3424 36.6183 21.9113 36.1871 21.9113 35.6571C21.9113 35.1271 22.3424 34.696 22.8724 34.696H28.1285C28.6584 34.696 29.0896 35.1271 29.0896 35.6571ZM32.8038 27.1685C32.7956 27.1791 32.7874 27.1897 32.7792 27.2004C32.7062 27.2949 32.6326 27.3871 32.5585 27.478C32.5404 27.5002 32.5225 27.5228 32.5042 27.5448C32.4229 27.6437 32.3409 27.7403 32.2584 27.8347C32.2544 27.8392 32.2507 27.8438 32.2467 27.8483C31.4187 28.793 30.5148 29.5411 29.56 30.0724C28.3831 30.727 27.583 31.8898 27.3628 33.2109H23.638C23.4178 31.8897 22.6176 30.727 21.4408 30.0724C20.5193 29.5598 19.6871 28.8745 18.9352 28.0557L18.7536 27.8484C18.0153 27.0064 17.3194 25.9863 16.6853 24.8167L16.4911 24.4582C13.298 18.2886 12.3322 9.37148 12.041 4.63486H38.9653C38.9529 4.84092 38.9393 5.05371 38.9243 5.27471C38.9236 5.28496 38.9228 5.29551 38.9221 5.30576C38.9057 5.54522 38.8881 5.78535 38.8695 6.02568C38.869 6.03271 38.8684 6.03975 38.8679 6.04688C38.8085 6.80859 38.7382 7.57314 38.6581 8.32861L38.6095 8.78545C38.07 13.6222 36.9304 19.784 34.5274 24.4254L34.3152 24.8166C33.843 25.6873 33.3366 26.475 32.8038 27.1685ZM40.8982 25.9477C38.475 27.4059 36.0473 27.7119 34.4372 27.7119C34.4371 27.7119 34.437 27.7119 34.4369 27.7119C34.3737 27.7119 34.3122 27.7114 34.2524 27.7104C34.2534 27.7091 34.2543 27.7076 34.2553 27.7062C34.3517 27.5732 34.4466 27.4383 34.5401 27.3015C34.5515 27.2848 34.5627 27.2677 34.5742 27.251C34.6532 27.1346 34.731 27.0166 34.8079 26.8975C34.8278 26.8669 34.8476 26.8362 34.8672 26.8055C34.9524 26.6718 35.0367 26.5372 35.1193 26.4003C35.1323 26.3789 35.1449 26.3569 35.1578 26.3354C35.2254 26.2223 35.2923 26.1081 35.3583 25.9929C35.3738 25.9659 35.3897 25.9401 35.4052 25.913C36.7913 25.8852 38.7343 25.5942 40.5308 24.4406C42.3701 23.2596 43.9069 21.6139 45.0984 19.5494C46.3464 17.3867 47.182 14.8145 47.5819 11.9042C47.8151 10.2054 47.5444 8.89775 46.777 8.01768C46.071 7.20801 44.9892 6.79756 43.5617 6.79756C42.4461 6.79756 41.2568 7.05107 40.2476 7.34766C40.2944 6.84033 40.3345 6.35371 40.3689 5.89121C40.3699 5.87832 40.3709 5.86533 40.3719 5.85254C41.1146 5.59092 42.7388 5.09521 44.3833 5.09521C47.4585 5.09521 48.9731 6.76777 49.0136 10.2083C49.1275 19.9375 43.3762 24.4563 40.8982 25.9477Z" fill="#297899"/>
<path d="M19.2852 24.6963L18.0449 25.5134C18.4684 26.1563 18.9234 26.7403 19.3976 27.2493L20.4843 26.237C20.0666 25.7887 19.6632 25.2702 19.2852 24.6963Z" fill="#297899"/>
<path d="M16.0973 16.4624L14.6494 16.7927C15.3615 19.9143 16.3122 22.5348 17.4749 24.5813L18.7661 23.8478C17.6751 21.9273 16.7771 19.4426 16.0973 16.4624Z" fill="#297899"/>
<path d="M43.8264 33.2188L43.8253 31.7338L42.5717 31.7346L42.5708 30.481L41.0857 30.4819L41.0866 31.7356L39.833 31.7365L39.834 33.2216L41.0876 33.2207L41.0885 34.4742L42.5735 34.4732L42.5727 33.2196L43.8264 33.2188Z" fill="#297899"/>
<path d="M11.5146 40.9306L11.513 39.4455L10.461 39.4466L10.46 38.3945L8.9749 38.3961L8.97598 39.448L7.92383 39.4491L7.92549 40.9342L8.97744 40.9331L8.97852 41.9853L10.4636 41.9837L10.4625 40.9316L11.5146 40.9306Z" fill="#297899"/>
<path d="M6.67139 28.7905H5.27051V30.2756H6.67139V28.7905Z" fill="#297899"/>
<path d="M15.6743 33.1841H14.2734V34.6691H15.6743V33.1841Z" fill="#297899"/>
<path d="M38.2534 37.6523H36.8525V39.1374H38.2534V37.6523Z" fill="#297899"/>
</svg>
