<svg width="45" height="45" viewBox="0 0 45 45" fill="none" xmlns="http://www.w3.org/2000/svg">
<g clip-path="url(#clip0_411_295)">
<path d="M29.7998 5.72021H7.7998C7.52366 5.72021 7.2998 5.94407 7.2998 6.22021V38.2202C7.2998 38.4964 7.52366 38.7202 7.7998 38.7202H29.7998C30.0759 38.7202 30.2998 38.4964 30.2998 38.2202V6.22021C30.2998 5.94407 30.0759 5.72021 29.7998 5.72021Z" stroke="#297899"/>
<path d="M16.2998 8.22021H21.2998" stroke="#297899" stroke-linecap="round"/>
<path d="M11.2998 31.2202C11.7998 26.2202 14.7998 19.7202 14.7998 19.7202C14.9951 17.1818 14.7998 13.2202 15.2998 13.2202C15.7998 13.2202 16.2998 13.2202 16.2998 13.2202C16.2998 13.2202 16.7998 17.2202 18.7998 17.2202C20.7998 17.2202 21.2998 13.2202 21.2998 13.2202C21.2998 13.2202 21.7998 13.2202 22.2998 13.2202C22.7998 13.2202 22.7998 19.7202 22.7998 19.7202C22.7998 19.7202 26.2998 25.7202 26.2998 31.2202" stroke="#297899" stroke-linecap="round"/>
<path d="M16.7998 21.7213C15.1411 25.0859 14.8107 27.2141 14.7998 31.2213M18.7998 21.7213V31.2213M20.7998 21.7213C22.5472 24.9082 22.474 27.0793 22.7998 31.2213M15.2998 19.7213C15.2998 19.7213 15.8632 20.2213 16.2998 20.2213C16.7364 20.2213 16.8676 19.7831 17.2998 19.7213C17.9111 19.634 18.1823 20.2213 18.7998 20.2213C19.4173 20.2213 19.6885 19.634 20.2998 19.7213C20.732 19.7831 20.8676 20.1596 21.2998 20.2213C21.9111 20.3087 22.7998 19.7213 22.7998 19.7213" stroke="#297899" stroke-linecap="round"/>
<path d="M20.7998 34.7202H16.7998C16.5237 34.7202 16.2998 34.9441 16.2998 35.2202V36.2202C16.2998 36.4964 16.5237 36.7202 16.7998 36.7202H20.7998C21.0759 36.7202 21.2998 36.4964 21.2998 36.2202V35.2202C21.2998 34.9441 21.0759 34.7202 20.7998 34.7202Z" stroke="#297899"/>
<path d="M32.7998 35.2202V8.72021C32.7998 8.72021 32.7998 6.72021 35.2998 6.72021C37.7998 6.72021 37.7998 8.72021 37.7998 8.72021V35.2202L35.2998 38.2202L32.7998 35.2202ZM32.7998 35.2202L35.2998 34.7202L37.2998 35.2202M35.2998 34.2202V12.7202M31.7998 10.2202C32.1998 10.2202 36.6331 10.2202 38.7998 10.2202" stroke="#297899" stroke-linecap="round"/>
</g>
<defs>
<clipPath id="clip0_411_295">
<rect width="44" height="44" fill="white" transform="translate(0.799805 0.220215)"/>
</clipPath>
</defs>
</svg>
