<svg width="50" height="51" viewBox="0 0 50 51" fill="none" xmlns="http://www.w3.org/2000/svg">
<path d="M11.7998 20.7202V22.2202H12.7998V35.7202H15.2998V22.2202H16.2998V20.7202" stroke="#297899" stroke-linecap="round"/>
<path d="M18.7998 20.7202V22.2202H19.7998V35.7202H22.2998V22.2202H23.2998V20.7202" stroke="#297899" stroke-linecap="round"/>
<path d="M25.7998 20.7202V22.2202H26.7998V35.7202H29.2998V22.2202H30.2998V20.7202" stroke="#297899" stroke-linecap="round"/>
<path d="M32.7998 20.7202V22.2202H33.7998V35.7202H36.2998V22.2202H37.2998V20.7202" stroke="#297899" stroke-linecap="round"/>
<path d="M39.7998 38.7202H8.7998C8.52366 38.7202 8.2998 38.9441 8.2998 39.2202V41.2202C8.2998 41.4964 8.52366 41.7202 8.7998 41.7202H39.7998C40.0759 41.7202 40.2998 41.4964 40.2998 41.2202V39.2202C40.2998 38.9441 40.0759 38.7202 39.7998 38.7202Z" stroke="#297899"/>
<path d="M37.7998 35.7202H10.7998C10.5237 35.7202 10.2998 35.9441 10.2998 36.2202V38.2202C10.2998 38.4964 10.5237 38.7202 10.7998 38.7202H37.7998C38.0759 38.7202 38.2998 38.4964 38.2998 38.2202V36.2202C38.2998 35.9441 38.0759 35.7202 37.7998 35.7202Z" stroke="#297899"/>
<path d="M40.7998 20.2202H8.7998V18.2202L24.7998 8.72021L40.7998 18.2202V20.2202Z" stroke="#297899" stroke-linecap="round"/>
<path d="M24.7998 17.7202C25.6282 17.7202 26.2998 17.0486 26.2998 16.2202C26.2998 15.3918 25.6282 14.7202 24.7998 14.7202C23.9714 14.7202 23.2998 15.3918 23.2998 16.2202C23.2998 17.0486 23.9714 17.7202 24.7998 17.7202Z" stroke="#297899"/>
</svg>
