<svg width="34" height="55" viewBox="0 0 34 55" fill="none" xmlns="http://www.w3.org/2000/svg">
<path d="M21.9325 4.70497H16.5505C16.0615 4.69197 15.6025 4.94497 15.3545 5.36697C15.1065 5.78897 15.1055 6.31197 15.3545 6.73397C15.6035 7.15597 16.0615 7.40897 16.5505 7.39597H21.9325C22.4215 7.40897 22.8805 7.15597 23.1285 6.73397C23.3765 6.31197 23.3775 5.78897 23.1285 5.36697C22.8795 4.94497 22.4215 4.69197 21.9325 4.70497ZM27.7635 0.219971H6.23552C4.80877 0.222087 3.44107 0.789797 2.4322 1.79866C1.42334 2.80752 0.855632 4.17523 0.853516 5.60197V48.658C0.855632 50.0847 1.42334 51.4524 2.4322 52.4613C3.44107 53.4701 4.80877 54.0379 6.23552 54.04H27.7635C29.1903 54.0379 30.558 53.4701 31.5668 52.4613C32.5757 51.4524 33.1434 50.0847 33.1455 48.658V5.60197C33.1434 4.17523 32.5757 2.80752 31.5668 1.79866C30.558 0.789797 29.1903 0.222087 27.7635 0.219971ZM30.4535 48.658C30.4536 49.0114 30.3841 49.3614 30.2489 49.6879C30.1138 50.0145 29.9155 50.3112 29.6656 50.5611C29.4157 50.811 29.119 51.0092 28.7925 51.1444C28.4659 51.2796 28.1159 51.3491 27.7625 51.349H6.23552C5.88209 51.3491 5.53211 51.2796 5.20556 51.1444C4.87901 51.0092 4.58231 50.811 4.3324 50.5611C4.08249 50.3112 3.88428 50.0145 3.74909 49.6879C3.6139 49.3614 3.54438 49.0114 3.54452 48.658V5.60197C3.54438 5.24855 3.6139 4.89856 3.74909 4.57201C3.88428 4.24547 4.08249 3.94876 4.3324 3.69885C4.58231 3.44894 4.87901 3.25073 5.20556 3.11554C5.53211 2.98035 5.88209 2.91084 6.23552 2.91097H27.7635C28.1169 2.91097 28.4667 2.98058 28.7932 3.11583C29.1196 3.25108 29.4162 3.44931 29.666 3.69921C29.9158 3.9491 30.1139 4.24576 30.249 4.57225C30.3842 4.89873 30.4536 5.24863 30.4535 5.60197V48.658Z" fill="#297899"/>
<path d="M16.9996 49.5549C18.4858 49.5549 19.6906 48.3501 19.6906 46.8639C19.6906 45.3777 18.4858 44.1729 16.9996 44.1729C15.5134 44.1729 14.3086 45.3777 14.3086 46.8639C14.3086 48.3501 15.5134 49.5549 16.9996 49.5549Z" fill="#297899"/>
<path d="M12.0657 7.39508C12.8085 7.39508 13.4107 6.7929 13.4107 6.05008C13.4107 5.30725 12.8085 4.70508 12.0657 4.70508C11.3229 4.70508 10.7207 5.30725 10.7207 6.05008C10.7207 6.7929 11.3229 7.39508 12.0657 7.39508Z" fill="#297899"/>
</svg>
