<svg width="47" height="52" viewBox="0 0 47 52" fill="none" xmlns="http://www.w3.org/2000/svg">
<path d="M10.4375 51.5562C10.5469 51.6655 10.6562 51.6655 10.875 51.6655C11.0938 51.6655 11.2031 51.6655 11.3125 51.5562L14.1562 48.7124C14.375 48.4937 14.375 48.1655 14.1562 47.9468L13.3906 47.1812L16.6719 43.8999H16.8906C19.0781 44.6655 21.375 44.9937 23.8906 44.9937H24.3281C36.4688 44.9937 46.3125 35.1499 46.3125 23.0093V22.5718C46.3125 10.4312 36.4688 0.587402 24.3281 0.587402H23.8906C11.75 0.587402 1.90625 10.4312 1.90625 22.5718V23.0093C1.90625 27.9312 3.54688 32.4155 6.28125 36.1343L4.3125 38.103L3.76563 37.5562C3.54688 37.3374 3.21875 37.3374 3 37.5562L0.15625 40.3999C-0.0625 40.6187 -0.0625 40.9468 0.15625 41.1655L10.4375 51.5562ZM23.4531 31.2124L24 30.8843L24.5469 31.2124H23.4531ZM28.7031 33.8374L29.4688 34.2749L29.25 34.4936C29.1406 34.603 28.9219 34.7124 28.7031 34.8218V34.2749V33.8374ZM30.2344 33.5093L24 29.5718L21.375 31.2124H17.5469L18.8594 25.853L12.5156 20.4937L20.8281 19.9468L24 12.1812L27.1719 19.9468L35.4844 20.4937L29.1406 25.853L30.8906 32.853L30.2344 33.5093ZM8.35938 35.5874C10.4375 33.5093 13.2812 32.3062 16.2344 32.3062H25.5313C26.625 32.3062 27.6094 33.2905 27.6094 34.4936C27.6094 35.5874 26.625 36.5718 25.5313 36.5718H19.4062V37.6655H25.5313C26.625 37.6655 27.5 37.1186 28.0469 36.353C28.7031 36.2436 29.3594 35.9155 29.9063 35.3687L34.9375 30.3374C35.8125 29.4624 37.125 29.4624 38 30.3374C38.4375 30.7749 38.6563 31.3218 38.6563 31.8687C38.6563 32.4155 38.4375 32.9624 38 33.3999L32.0938 39.3062C29.7969 41.603 26.7344 42.9155 23.4531 42.9155H16.125L12.5156 46.5249L4.96875 38.978L8.35938 35.5874ZM12.9531 48.2749L10.875 50.4624L1.35938 40.9468L3.4375 38.8687L12.9531 48.2749ZM3.98438 22.6812C3.98438 11.7437 12.8438 2.88428 23.7812 2.88428H24.2188C35.1562 2.88428 44.0156 11.7437 44.0156 22.6812V23.1187C44.0156 31.6499 38.5469 38.978 30.8906 41.7124C31.6562 41.2749 32.3125 40.6187 32.9688 39.9624L38.875 34.0562C40.1875 32.7437 40.1875 30.7749 38.875 29.4624C37.5625 28.1499 35.5938 28.1499 34.2813 29.4624L31.7656 31.978L30.3438 26.2905L38.2188 19.6187L27.8281 18.853L24 9.22803L20.0625 18.853L9.78125 19.6187L17.7656 26.2905L16.5625 31.2124H16.3438C13.1719 31.2124 10.1094 32.4155 7.8125 34.7124C5.51563 31.4312 4.09375 27.4937 4.09375 23.228V22.6812H3.98438Z" fill="#297899"/>
</svg>
