<svg width="55" height="55" viewBox="0 0 55 55" fill="none" xmlns="http://www.w3.org/2000/svg">
<g clip-path="url(#clip0_365_804)">
<g clip-path="url(#clip1_365_804)">
<path d="M49.032 1.21997H5.96796C4.54095 1.22209 3.17299 1.7899 2.16394 2.79895C1.15489 3.808 0.587077 5.17596 0.584961 6.60297L0.584961 38.901C0.587077 40.328 1.15489 41.6959 2.16394 42.705C3.17299 43.714 4.54095 44.2818 5.96796 44.284H19.4255V49.667H15.3877C14.6446 49.667 14.0415 50.2691 14.0415 51.0132C14.0415 51.7574 14.6436 52.3595 15.3877 52.3595H39.6112C40.3403 52.3395 40.9205 51.7434 40.9205 51.0132C40.9205 50.2831 40.3403 49.687 39.6112 49.667H35.5745V44.284H49.032C50.459 44.2818 51.8269 43.714 52.836 42.705C53.845 41.6959 54.4128 40.328 54.415 38.901V6.60297C54.4128 5.17596 53.845 3.808 52.836 2.79895C51.8269 1.7899 50.459 1.22209 49.032 1.21997ZM32.883 49.667H22.117V44.284H32.883V49.667ZM51.7235 38.901C51.7236 39.2545 51.6541 39.6045 51.5189 39.9311C51.3836 40.2577 51.1854 40.5545 50.9354 40.8044C50.6855 41.0544 50.3887 41.2526 50.0621 41.3879C49.7355 41.5231 49.3855 41.5926 49.032 41.5925H5.96796C5.61447 41.5926 5.26442 41.5231 4.93781 41.3879C4.61121 41.2526 4.31445 41.0544 4.06449 40.8044C3.81453 40.5545 3.61629 40.2577 3.48107 39.9311C3.34586 39.6045 3.27633 39.2545 3.27646 38.901V33.518H51.7235V38.901ZM51.7235 30.8265H3.27646V6.60297C3.27633 6.24948 3.34586 5.89943 3.48107 5.57282C3.61629 5.24622 3.81453 4.94945 4.06449 4.6995C4.31445 4.44954 4.61121 4.25129 4.93781 4.11608C5.26442 3.98087 5.61447 3.91134 5.96796 3.91147H49.032C49.3855 3.91134 49.7355 3.98087 50.0621 4.11608C50.3887 4.25129 50.6855 4.44954 50.9354 4.6995C51.1854 4.94945 51.3836 5.24622 51.5189 5.57282C51.6541 5.89943 51.7236 6.24948 51.7235 6.60297V30.8265ZM27.948 36.2095H27.0479C26.5588 36.1965 26.0997 36.4495 25.8517 36.8716C25.6036 37.2937 25.6026 37.8168 25.8517 38.2388C26.1007 38.6609 26.5588 38.914 27.0479 38.901H27.948C28.6912 38.901 29.2933 38.2989 29.2933 37.5557C29.2933 36.8126 28.6912 36.2095 27.948 36.2095Z" fill="#297899"/>
</g>
</g>
<defs>
<clipPath id="clip0_365_804">
<rect width="53.83" height="53.83" fill="white" transform="translate(0.584961 0.219971)"/>
</clipPath>
<clipPath id="clip1_365_804">
<rect width="53.83" height="53.83" fill="white" transform="translate(0.584961 0.219971)"/>
</clipPath>
</defs>
</svg>
