<svg width="60" height="61" viewBox="0 0 60 61" fill="none" xmlns="http://www.w3.org/2000/svg">
<path d="M55.2145 13.8684C57.7936 13.8684 59.8837 15.959 59.8837 18.5376C59.8837 21.1168 57.7936 23.2069 55.2145 23.2069C54.5409 23.2069 53.9059 23.0587 53.3281 22.8024L41.1822 33.2365C41.1868 33.3188 41.2067 33.3964 41.2067 33.4793C41.2067 36.0579 39.1166 38.1485 36.5374 38.1485C33.9769 38.1485 31.9038 36.0859 31.8728 33.5324L23.1524 29.1602C22.2991 30.0876 21.0868 30.6777 19.7281 30.6777C19.2436 30.6777 18.7861 30.5826 18.346 30.446L9.10843 41.0639C9.32847 41.6055 9.45571 42.1968 9.45571 42.8178C9.45571 45.3964 7.36505 47.4871 4.78645 47.4871C2.20785 47.4871 0.117188 45.3964 0.117188 42.8178C0.117188 40.2392 2.20785 38.1485 4.78645 38.1485C5.36252 38.1485 5.90707 38.267 6.41719 38.4579L15.5071 27.976C15.2269 27.3766 15.0588 26.7147 15.0588 26.0085C15.0588 23.4299 17.1495 21.3392 19.7281 21.3392C22.1935 21.3392 24.1907 23.2565 24.3647 25.6781L33.28 30.1419C34.1205 29.3201 35.2686 28.81 36.5374 28.81C37.6376 28.81 38.6339 29.2057 39.4324 29.8419L50.8143 20.0411C50.6526 19.5666 50.5452 19.067 50.5452 18.5376C50.5452 15.959 52.6353 13.8684 55.2145 13.8684Z" fill="#297899"/>
</svg>
