<svg width="55" height="55" viewBox="0 0 55 55" fill="none" xmlns="http://www.w3.org/2000/svg">
<g clip-path="url(#clip0_365_818)">
<g clip-path="url(#clip1_365_818)">
<rect x="1.51172" y="1.97925" width="50.8" height="38" stroke="#297899" stroke-width="2"/>
<g clip-path="url(#clip2_365_818)">
<path d="M52.5371 13.4792C52.8824 13.4792 53.1621 13.7589 53.1621 14.1042V39.1042C53.1621 40.1378 52.3207 40.9792 51.2871 40.9792H2.53711C1.50352 40.9792 0.662109 40.1378 0.662109 39.1042V14.1042C0.662109 13.7589 0.941797 13.4792 1.28711 13.4792C1.63242 13.4792 1.91211 13.7589 1.91211 14.1042V39.1042C1.91211 39.4496 2.1918 39.7292 2.53711 39.7292H51.2871C51.6324 39.7292 51.9121 39.4496 51.9121 39.1042V14.1042C51.9121 13.7589 52.1918 13.4792 52.5371 13.4792ZM51.2871 0.979248C52.3207 0.979248 53.1621 1.82066 53.1621 2.85425V10.3542C53.1621 10.6996 52.8824 10.9792 52.5371 10.9792H1.28711C0.941797 10.9792 0.662109 10.6996 0.662109 10.3542V2.85425C0.662109 1.82066 1.50352 0.979248 2.53711 0.979248H51.2871ZM51.9121 9.72925V2.85425C51.9121 2.50893 51.6324 2.22925 51.2871 2.22925H2.53711C2.1918 2.22925 1.91211 2.50893 1.91211 2.85425V9.72925H51.9121ZM22.5371 35.9792H6.28711C5.9418 35.9792 5.66211 35.6996 5.66211 35.3542V15.3542C5.66211 15.0089 5.9418 14.7292 6.28711 14.7292H22.5371C22.8824 14.7292 23.1621 15.0089 23.1621 15.3542V35.3542C23.1621 35.6996 22.8824 35.9792 22.5371 35.9792ZM6.91211 15.9792V34.7292H21.9121V15.9792H6.91211ZM28.7871 19.7292C28.4418 19.7292 28.1621 19.4496 28.1621 19.1042C28.1621 18.7589 28.4418 18.4792 28.7871 18.4792H47.5371C47.8824 18.4792 48.1621 18.7589 48.1621 19.1042C48.1621 19.4496 47.8824 19.7292 47.5371 19.7292H28.7871ZM28.7871 25.9792C28.4418 25.9792 28.1621 25.6996 28.1621 25.3542C28.1621 25.0089 28.4418 24.7292 28.7871 24.7292H47.5371C47.8824 24.7292 48.1621 25.0089 48.1621 25.3542C48.1621 25.6996 47.8824 25.9792 47.5371 25.9792H28.7871ZM28.7871 32.2292C28.4418 32.2292 28.1621 31.9496 28.1621 31.6042C28.1621 31.2589 28.4418 30.9792 28.7871 30.9792H47.5371C47.8824 30.9792 48.1621 31.2589 48.1621 31.6042C48.1621 31.9496 47.8824 32.2292 47.5371 32.2292H28.7871ZM4.41211 5.97925C4.41211 5.28941 4.97227 4.72925 5.66211 4.72925C6.35195 4.72925 6.91211 5.28941 6.91211 5.97925C6.91211 6.66909 6.35195 7.22925 5.66211 7.22925C4.97227 7.22925 4.41211 6.66909 4.41211 5.97925ZM9.41211 5.97925C9.41211 5.28941 9.97227 4.72925 10.6621 4.72925C11.352 4.72925 11.9121 5.28941 11.9121 5.97925C11.9121 6.66909 11.352 7.22925 10.6621 7.22925C9.97227 7.22925 9.41211 6.66909 9.41211 5.97925ZM14.4121 5.97925C14.4121 5.28941 14.9723 4.72925 15.6621 4.72925C16.352 4.72925 16.9121 5.28941 16.9121 5.97925C16.9121 6.66909 16.352 7.22925 15.6621 7.22925C14.9723 7.22925 14.4121 6.66909 14.4121 5.97925Z" fill="#297899"/>
</g>
</g>
</g>
<defs>
<clipPath id="clip0_365_818">
<rect width="53.83" height="53.83" fill="white" transform="translate(0.584961 0.899902)"/>
</clipPath>
<clipPath id="clip1_365_818">
<rect width="53.83" height="53.81" fill="white" transform="translate(0.584961 0.72998)"/>
</clipPath>
<clipPath id="clip2_365_818">
<rect width="52.8" height="40" fill="white" transform="matrix(1 0 0 -1 0.511719 40.9792)"/>
</clipPath>
</defs>
</svg>
