<svg width="71" height="56" viewBox="0 0 71 56" fill="none" xmlns="http://www.w3.org/2000/svg">
<g clip-path="url(#clip0_365_827)">
<path d="M52.9695 23.5086L51.2796 16.9703C51.1995 16.6603 50.9702 16.4107 50.6682 16.3047C50.3663 16.1988 50.0312 16.2502 49.7748 16.442L44.3675 20.4872C44.2148 20.6014 44.0997 20.7583 44.0366 20.9379L41.4944 28.1765C40.8251 27.5596 40.0963 27.0063 39.3174 26.5267L40.25 18.4978C42.616 15.3312 43.5807 12.1516 43.1155 9.04332C42.398 4.25037 38.5313 1.44572 38.3671 1.32862C38.0227 1.08324 37.5581 1.09187 37.2231 1.35055C36.8881 1.60913 36.762 2.05631 36.9122 2.4518L37.3623 3.63571C38.093 5.5586 37.3619 7.75307 35.624 8.8535C32.8658 10.6001 31.9101 14.1072 33.4009 17.0117L33.8807 17.9465L33.5017 24.5274C32.99 24.4709 32.4704 24.4409 31.944 24.4409C30.8446 24.4409 29.7578 24.5701 28.7021 24.8187L28.5315 24.0516C28.7903 23.883 29.0135 23.6614 29.1843 23.3931C29.4988 22.8987 29.602 22.3114 29.4748 21.7395C29.3479 21.1674 29.0055 20.6791 28.5112 20.3645C28.2583 20.2036 27.981 20.0987 27.6941 20.051L27.4646 19.0179C27.3683 18.5844 27.3901 18.147 27.5244 17.8179C28.0575 16.5113 27.75 14.7684 26.7928 13.6735L21.6212 7.75693C21.3901 7.49256 21.0325 7.37546 20.6901 7.45163C20.3471 7.5278 20.0733 7.78526 19.9759 8.12275L17.7974 15.673C17.3944 17.0702 17.8538 18.7793 18.8903 19.7371C19.1513 19.9783 19.3562 20.3652 19.4526 20.7988L19.6823 21.8321C19.4426 21.997 19.2359 22.2093 19.075 22.462C18.7604 22.9564 18.6572 23.5437 18.7842 24.1156C18.9112 24.6877 19.2536 25.176 19.748 25.4907C20.0166 25.6616 20.3126 25.7699 20.6186 25.813L21.3739 29.2105C20.7158 29.9556 20.1354 30.7696 19.6455 31.6411C19.3846 31.5968 19.1222 31.5639 18.8593 31.5393L14.5704 24.9111C14.432 24.6973 14.2144 24.5471 13.9654 24.4938C13.7167 24.4403 13.4564 24.4883 13.2426 24.6266L2.924 31.3052C2.47885 31.5932 2.35149 32.1877 2.63953 32.6329L6.46103 38.5392C3.33066 39.3035 1 42.1298 1 45.4918C1 49.4388 4.21101 52.6498 8.15794 52.6498H44.6252C48.5722 52.6498 51.7832 49.4388 51.7832 45.4918C51.7832 42.6656 50.115 40.1863 47.6917 39.0293L52.9458 24.067C53.0089 23.8873 53.0172 23.693 52.9695 23.5086ZM49.779 18.8375L50.0321 19.817C49.8455 19.794 49.6605 19.7515 49.4801 19.6881C49.2997 19.6247 49.1286 19.5424 48.9687 19.4437L49.779 18.8375ZM45.3997 22.8519C45.9142 23.2103 46.4592 23.5198 47.0262 23.7793L44.2553 31.6707C43.8789 30.9993 43.4495 30.3615 42.9722 29.7635L45.3997 22.8519ZM36.6515 10.476C38.4564 9.33298 39.508 7.37139 39.5611 5.32744C40.2934 6.37029 40.9758 7.72128 41.2162 9.3278C41.5921 11.8399 40.8041 14.4612 38.8755 17.1258L35.4664 16.83L35.1095 16.1348C34.0752 14.1201 34.7381 11.6875 36.6515 10.476ZM35.6754 20.1834L35.7562 18.7828L38.2583 18.9998L38.0963 20.3936L35.6754 20.1834ZM37.8747 22.3017L37.4939 25.5798C36.8228 25.2913 36.1252 25.0534 35.4054 24.8711L35.5649 22.1013L37.8747 22.3017ZM20.1929 18.3261C19.6868 17.8585 19.4395 16.9069 19.642 16.2051L20.7772 12.2706L21.4582 15.3343C21.5576 15.7819 21.9544 16.0863 22.3945 16.0863C22.4634 16.0863 22.5335 16.0788 22.6037 16.0632C23.1215 15.9482 23.4478 15.4353 23.3326 14.9176L22.6516 11.8541L25.3465 14.9371C25.8272 15.4871 26.0064 16.4539 25.7459 17.0923C25.4633 17.7847 25.4078 18.6165 25.5896 19.4343L25.7846 20.3119L21.5217 21.2594L21.3266 20.3818C21.1448 19.5638 20.7423 18.8338 20.1929 18.3261ZM21.1691 23.8652C21.1661 23.8658 21.1631 23.867 21.1599 23.8677L20.985 23.9066C20.8933 23.9267 20.8223 23.8982 20.7787 23.8704C20.7351 23.8425 20.679 23.7903 20.6587 23.6988C20.6384 23.6075 20.6671 23.5363 20.6949 23.4927C20.7227 23.4491 20.775 23.3929 20.8664 23.3725L21.0014 23.3425L27.274 21.9484C27.2955 21.9436 27.3158 21.9416 27.335 21.9416C27.3974 21.9416 27.4467 21.9633 27.4801 21.9846C27.5238 22.0123 27.5799 22.0647 27.6002 22.1562C27.6205 22.2476 27.5918 22.3188 27.5639 22.3623C27.5363 22.4059 27.4839 22.4621 27.3925 22.4825L21.1691 23.8652ZM26.8613 25.3882C26.0074 25.7183 25.1835 26.1303 24.4028 26.6255C23.9108 26.9375 23.4402 27.2787 22.9931 27.6463L22.523 25.5318L26.6872 24.6062L26.8613 25.3882ZM4.77285 32.3956L13.4795 26.7601L16.5902 31.5676C14.7416 31.7893 13.0011 32.4908 11.4969 33.6292C10.0832 34.6991 8.95327 36.126 8.22659 37.7336L4.77285 32.3956ZM49.8629 45.4918C49.8629 48.3799 47.5132 50.7294 44.6253 50.7294H8.15794C5.27 50.7294 2.92035 48.3799 2.92035 45.4918C2.92035 42.6038 5.2701 40.2542 8.15794 40.2542C8.28479 40.2542 8.42291 40.2603 8.58054 40.2729C9.03402 40.309 9.44738 40.0243 9.57677 39.5904C10.6627 35.9525 14.0745 33.4116 17.8736 33.4116C18.5632 33.4116 19.2553 33.4949 19.9302 33.6594C20.3669 33.7655 20.8187 33.5551 21.0181 33.1523C23.0901 28.9635 27.2767 26.3615 31.9439 26.3615C38.6623 26.3615 44.128 31.8273 44.128 38.5456C44.128 38.7614 44.1207 38.9941 44.1058 39.2566C44.0758 39.7813 44.4729 40.2325 44.9972 40.2693C47.7255 40.4601 49.8629 42.7543 49.8629 45.4918ZM46.0349 37.9515C45.9814 36.6695 45.7567 35.4309 45.3818 34.2585L48.8382 24.415C49.4426 24.5669 50.0609 24.6645 50.686 24.7063L46.0349 37.9515ZM46.5095 21.2831L47.3678 20.6413C47.7979 21.0156 48.2962 21.3076 48.844 21.5001C49.3323 21.6715 49.8396 21.7576 50.3481 21.7576C50.4094 21.7576 50.4709 21.7543 50.5322 21.7518L50.8006 22.7902C49.2629 22.685 47.775 22.1625 46.5095 21.2831Z" fill="#297899"/>
<path d="M30.8159 39.5831C30.8133 39.5831 30.8106 39.5831 30.8079 39.5831C29.2925 37.4253 26.862 36.1541 24.1966 36.1541C19.7379 36.1541 16.1104 39.7816 16.1104 44.2403C16.1104 44.7705 16.5402 45.2004 17.0705 45.2004C17.6009 45.2004 18.0307 44.7705 18.0307 44.2403C18.0307 40.8404 20.7967 38.0744 24.1967 38.0744C26.3781 38.0744 28.354 39.1919 29.4818 41.0636C29.6721 41.3795 30.0262 41.5583 30.3939 41.524C30.5393 41.5104 30.6812 41.5034 30.8159 41.5034C33.2705 41.5034 35.2674 43.5003 35.2674 45.9549C35.2674 46.4851 35.6972 46.915 36.2276 46.915C36.7579 46.915 37.1878 46.4851 37.1878 45.9549C37.1878 42.4415 34.3295 39.5831 30.8159 39.5831Z" fill="#297899"/>
</g>
<defs>
<clipPath id="clip0_365_827">
<rect width="52" height="52" fill="white" transform="translate(1 0.899902)"/>
</clipPath>
</defs>
</svg>
