<svg width="60" height="61" viewBox="0 0 60 61" fill="none" xmlns="http://www.w3.org/2000/svg">
<g clip-path="url(#clip0_1011_44)">
<path d="M43.4113 51.1348C43.1748 51.042 42.9182 50.9883 42.6465 50.9883C42.3748 50.9883 42.1182 51.042 41.8818 51.1348C41.6453 51.2324 41.4289 51.3691 41.2528 51.5449L41.2377 51.5547C41.1371 51.6523 41.0415 51.7647 40.966 51.8867C40.9258 51.9502 40.8855 52.0186 40.8503 52.0918H37.6755V49.416C37.1874 49.6357 36.6792 49.8018 36.161 49.9043C36.0704 49.9238 35.9849 49.9385 35.8943 49.9531V52.9512C35.8943 53.1904 35.995 53.4053 36.156 53.5615C36.317 53.7178 36.5384 53.8154 36.7849 53.8154H40.8805C40.9107 53.874 40.9459 53.9326 40.9862 53.9912C41.0566 54.0938 41.1371 54.1914 41.2277 54.2793L41.2428 54.2939C41.4239 54.4697 41.6453 54.6162 41.8918 54.7139C42.1283 54.8066 42.3849 54.8604 42.6566 54.8604C42.9182 54.8604 43.1748 54.8115 43.4063 54.7188L43.4214 54.7139C43.6679 54.6162 43.8843 54.4697 44.0704 54.2939C44.2516 54.1182 44.4025 53.9033 44.5031 53.6641C44.5987 53.4346 44.6541 53.1855 44.6541 52.9219C44.6541 52.6631 44.5987 52.4141 44.5031 52.1797C44.4025 51.9404 44.2516 51.7256 44.0704 51.5498C43.8792 51.3789 43.6579 51.2324 43.4113 51.1348ZM28.8956 32.8242H25.1723L24.639 34.5234H21.2881L25.2881 24.2109H28.8805L32.8654 34.5234H29.4289L28.8956 32.8242ZM28.2013 30.5879L27.039 26.8818L25.8717 30.5879H28.2013ZM33.7912 24.2061H37.0868V34.5186H33.7912V24.2061ZM31.2805 13.6348C30.7371 14.0156 30.234 14.5283 29.7962 15.1924C29.7761 15.2266 29.7459 15.2559 29.7107 15.2754C29.5748 15.3584 29.3937 15.3193 29.3082 15.1924C28.8704 14.5283 28.3673 14.0156 27.8239 13.6348C27.2403 13.2246 26.6113 12.9658 25.9623 12.8389H25.9522C25.3182 12.7119 24.6692 12.7119 24.0453 12.8193C23.3862 12.9316 22.7472 13.166 22.1736 13.4883C21.605 13.8105 21.0918 14.2256 20.6642 14.7041C20.2516 15.168 19.9195 15.7002 19.7031 16.2715C19.6679 16.3594 19.6377 16.4521 19.6075 16.5498C19.5824 16.6377 19.5522 16.7354 19.5321 16.833C19.5069 16.96 19.3962 17.0527 19.2553 17.0576C18.5811 17.1553 17.912 17.3945 17.2881 17.751C16.6541 18.1172 16.0654 18.6152 15.5572 19.2109C15.0541 19.8066 14.6314 20.5098 14.3296 21.291C14.0478 22.0234 13.8767 22.8291 13.8415 23.6836C13.8365 23.7959 13.8365 23.9033 13.8365 24.0156C13.8365 24.1182 13.8415 24.2256 13.8415 24.3379C13.8465 24.4307 13.8063 24.5283 13.7208 24.5869C13.3082 24.875 12.9358 25.1729 12.6038 25.4805C12.2667 25.7979 11.9698 26.125 11.7132 26.4619C11.2956 27.0137 10.9887 27.5898 10.7824 28.1709C10.566 28.7764 10.4604 29.3965 10.4503 30.0068C10.4453 30.5928 10.5258 31.1738 10.6969 31.7354C10.8679 32.3066 11.1296 32.8633 11.4667 33.3809C11.6579 33.6787 11.8742 33.9717 12.1107 34.2451C12.3522 34.5234 12.6138 34.7871 12.8956 35.0361C12.966 35.0996 13.0063 35.2022 12.9862 35.2998C12.9057 35.6709 12.8654 36.0371 12.8503 36.3984C12.8403 36.7695 12.8604 37.1357 12.9107 37.4922C13.0063 38.1465 13.2025 38.7715 13.4792 39.3477C13.7711 39.9629 14.1535 40.5244 14.5962 41.0176C15.0239 41.501 15.512 41.9209 16.0352 42.2676C16.5635 42.6191 17.122 42.8926 17.6956 43.083C17.9522 43.166 18.2138 43.2344 18.4805 43.2832C18.7321 43.332 18.9837 43.3613 19.2302 43.3711C19.366 43.3662 19.4918 43.459 19.522 43.5957C19.6528 44.1768 19.8943 44.7236 20.2264 45.2168C20.5736 45.7344 21.0113 46.1934 21.5145 46.5742C22.1484 47.0527 22.8931 47.4141 23.678 47.6045C24.4176 47.7852 25.1975 47.8193 25.9623 47.6631C26.6465 47.5264 27.3107 47.2432 27.9245 46.7939C28.4881 46.3789 29.0113 45.8223 29.4491 45.0996C29.4742 45.0557 29.5145 45.0215 29.5648 44.9971C29.7057 44.9238 29.8818 44.9775 29.9572 45.1143C30.3195 45.7686 30.7623 46.291 31.2553 46.6865C31.7887 47.1113 32.3774 47.3994 32.9962 47.5654C33.7862 47.7754 34.6113 47.7754 35.4113 47.6143C36.2667 47.4434 37.0918 47.082 37.8013 46.584C38.3597 46.1982 38.8528 45.7246 39.2453 45.1875C39.6176 44.6846 39.8943 44.1231 40.0553 43.5322C40.0755 43.4199 40.166 43.3223 40.2918 43.3027C41.0314 43.1758 41.761 42.8779 42.4302 42.4336C43.0994 41.9893 43.7082 41.4033 44.2063 40.7051C44.6642 40.0606 45.0314 39.3184 45.2679 38.5078C45.4893 37.751 45.595 36.9307 45.5598 36.0664C45.5497 35.9688 45.595 35.8711 45.6855 35.8125C46.1182 35.5244 46.5006 35.2217 46.8428 34.9141C47.1899 34.5918 47.4969 34.2598 47.7585 33.9131C48.161 33.3857 48.4579 32.8389 48.6642 32.2773C48.8755 31.6963 48.9862 31.1055 49.0063 30.5147C49.0214 29.9434 48.9509 29.377 48.8 28.8203C48.6491 28.2588 48.4126 27.7168 48.1057 27.2041L48.0956 27.1943C47.8943 26.8574 47.6579 26.5352 47.3962 26.2227C47.1346 25.9102 46.8377 25.6172 46.5208 25.3389C46.4453 25.2754 46.405 25.1729 46.4252 25.0703C46.4956 24.7334 46.5409 24.3965 46.556 24.0645C46.5711 23.7275 46.561 23.3955 46.5258 23.0684C46.4503 22.3897 46.2642 21.7451 45.9925 21.1445C45.7057 20.5098 45.3233 19.9238 44.8755 19.4111C44.4428 18.9131 43.9447 18.4785 43.4113 18.1172C42.878 17.7559 42.3094 17.4727 41.7308 17.2822L41.7157 17.2773C41.4088 17.1748 41.0969 17.1016 40.7899 17.0527H40.7799C40.478 17.0039 40.1761 16.9844 39.8792 16.9893C39.7434 16.999 39.6126 16.9111 39.5774 16.7744C39.527 16.5742 39.4616 16.3789 39.3862 16.1885C39.3057 15.9932 39.2151 15.8027 39.1094 15.6123C38.8377 15.124 38.4805 14.6748 38.0629 14.2891C37.6352 13.8936 37.1472 13.5566 36.6239 13.2979C36.0855 13.0342 35.4969 12.8486 34.8931 12.7656C34.3195 12.6875 33.7308 12.6973 33.1522 12.8145C32.5031 12.9658 31.8642 13.2246 31.2805 13.6348ZM39.5069 19.1328C39.5421 19.0254 39.6428 18.9424 39.7686 18.9326C39.9799 18.918 40.1962 18.9277 40.4126 18.9619C40.634 18.9961 40.8553 19.0498 41.0767 19.123C41.4943 19.2598 41.912 19.4697 42.2994 19.7334C42.6818 19.9922 43.044 20.3096 43.356 20.6709L43.361 20.6807C43.6881 21.0566 43.9648 21.4766 44.1711 21.9355C44.3673 22.3652 44.4981 22.8242 44.5535 23.3076C44.5887 23.6299 44.5887 23.9668 44.5484 24.3086C44.5132 24.626 44.4377 24.9531 44.322 25.2803L44.317 25.2998C44.2465 25.5049 44.2516 25.7197 44.317 25.9102C44.3874 26.1055 44.5182 26.2813 44.7044 26.3984L44.7195 26.4082C45.0717 26.6621 45.3836 26.9404 45.6553 27.2334C45.9371 27.5313 46.1786 27.8535 46.3799 28.1855C46.6013 28.5518 46.7723 28.9326 46.878 29.3232C46.9887 29.709 47.039 30.0996 47.0239 30.4854C47.0138 30.8857 46.9333 31.2861 46.7874 31.6816C46.6465 32.0576 46.4403 32.4287 46.1686 32.79L46.1635 32.7949C45.917 33.1221 45.605 33.4443 45.2377 33.752C44.8855 34.0449 44.478 34.3232 44.0101 34.5918L43.995 34.6016C43.8088 34.7041 43.673 34.8604 43.5925 35.041C43.512 35.2217 43.4868 35.4219 43.527 35.6172L43.5321 35.6563C43.6277 36.4033 43.5824 37.1162 43.4264 37.7656C43.2553 38.4736 42.9585 39.1084 42.5711 39.6504C42.2742 40.0654 41.9321 40.4219 41.5648 40.7051C41.1874 40.9981 40.7799 41.2129 40.3623 41.3447H40.3572C40.2063 41.3887 40.0403 41.3057 39.995 41.1592C39.4264 39.3574 38.4453 38.7764 36.7849 37.9463L36.7497 37.9268C36.5182 37.8193 36.2667 37.8096 36.0403 37.8779C35.8138 37.9463 35.6176 38.0977 35.5019 38.3174L35.4868 38.3467C35.3761 38.5713 35.366 38.8154 35.4365 39.0352C35.512 39.2549 35.673 39.4502 35.9044 39.5674C37.2931 40.2559 38.3195 40.7783 38.3044 42.4678C38.2994 42.9707 38.1384 43.459 37.8667 43.8984C37.5799 44.3623 37.1673 44.7773 36.6893 45.1143C36.2013 45.4561 35.6528 45.7051 35.0893 45.8271C34.5509 45.9492 33.9975 45.9541 33.4792 45.8174C32.6038 45.583 32.0352 45.0166 31.6528 44.3281C31.2906 43.6738 31.0893 42.9121 30.9434 42.2188C30.9333 42.1943 30.9333 42.165 30.9333 42.1406C30.9333 41.7891 30.6516 41.5596 30.2843 41.457C30.1233 41.4082 29.9472 41.3887 29.7761 41.3887C29.6 41.3887 29.4289 41.4131 29.2679 41.457C28.9057 41.5645 28.6239 41.7939 28.6239 42.1406C28.6239 42.165 28.6189 42.1846 28.6138 42.209C28.3321 43.293 27.9245 44.1084 27.4465 44.6943C26.8881 45.3828 26.234 45.7588 25.5597 45.8955C25.0667 45.9932 24.5585 45.9688 24.0755 45.8467C23.5673 45.7148 23.0843 45.4756 22.6616 45.1631C22.244 44.8457 21.8969 44.46 21.6553 44.0254C21.4239 43.6104 21.2881 43.1514 21.2881 42.6826C21.2881 40.9053 22.395 40.3096 23.8591 39.582C24.0906 39.4648 24.2516 39.2695 24.327 39.0498C24.4025 38.8252 24.3874 38.5762 24.2717 38.3467C24.1509 38.1221 23.9497 37.9658 23.7233 37.8926C23.4969 37.8242 23.2453 37.834 23.0138 37.9414L22.9987 37.9463C21.273 38.8008 20.2415 39.4258 19.6226 41.2861C19.5874 41.4082 19.4667 41.501 19.3308 41.4961C19.1597 41.4912 18.9887 41.4717 18.8126 41.4375C18.6415 41.4033 18.4704 41.3594 18.3094 41.3008C17.9019 41.1641 17.4943 40.9639 17.1119 40.71C16.7346 40.4561 16.3824 40.1533 16.0704 39.8018C15.7484 39.4404 15.4717 39.0352 15.2604 38.5908C15.0591 38.1758 14.9182 37.7314 14.8478 37.2676V37.2578C14.7975 36.916 14.7874 36.5596 14.8277 36.1934C14.8629 35.8516 14.9384 35.4951 15.0642 35.1436L15.0692 35.1289C15.1396 34.9287 15.1346 34.7188 15.0742 34.5332L15.0692 34.5234C15.0038 34.3281 14.873 34.1572 14.6918 34.0352L14.6818 34.0254C14.3597 33.791 14.0679 33.542 13.8113 33.2686C13.5497 32.9951 13.3182 32.7021 13.127 32.3994C12.8956 32.0332 12.7145 31.6426 12.5937 31.2422C12.478 30.8516 12.4176 30.4512 12.4226 30.041C12.4277 29.626 12.5031 29.2012 12.6541 28.7861C12.8 28.3906 13.0113 27.9951 13.3031 27.6094C13.5497 27.2822 13.8516 26.96 14.2138 26.6523C14.561 26.3545 14.9535 26.0713 15.4063 25.8027C15.5723 25.7051 15.6931 25.5684 15.7736 25.4121L15.7786 25.3975C15.8591 25.2363 15.8893 25.0557 15.8642 24.875C15.8591 24.8555 15.8591 24.8359 15.8591 24.8164V24.8066C15.834 24.6357 15.8189 24.4648 15.8088 24.2988C15.7987 24.1182 15.7987 23.9375 15.8038 23.7617C15.8289 23.1221 15.9547 22.5215 16.161 21.9795C16.3824 21.3984 16.6943 20.876 17.0667 20.4316C17.3736 20.0654 17.7258 19.7578 18.0931 19.5186C18.4604 19.2793 18.8478 19.1084 19.2453 19.0107C19.3962 18.9668 19.5623 19.0498 19.6075 19.1963C19.9195 20.1533 20.312 20.7539 21.0616 21.4326L21.0918 21.457C21.278 21.623 21.5195 21.7012 21.756 21.6914C21.9925 21.6816 22.2239 21.5889 22.395 21.4082L22.4101 21.3887C22.5811 21.208 22.6616 20.9736 22.6516 20.7441C22.6415 20.5146 22.5409 20.2852 22.3497 20.1094C21.7459 19.5674 21.6101 19.2305 21.4289 18.6836C21.2176 18.0537 21.2528 17.4385 21.4591 16.8916C21.6 16.5156 21.8214 16.1641 22.1031 15.8564C22.3799 15.5488 22.717 15.2754 23.0893 15.0654L23.1044 15.0557C23.4868 14.8408 23.8994 14.6846 24.327 14.6064C24.7346 14.5332 25.1522 14.5283 25.5597 14.6113C26.1333 14.7285 26.6969 15.0215 27.195 15.5293C27.6327 15.9736 28.0201 16.5889 28.327 17.3994L28.3321 17.4092C28.4377 17.7266 28.7799 17.9121 29.1824 17.9854C29.3635 18.0195 29.5547 18.0293 29.7409 18.0195H29.7459C29.9371 18.0098 30.1182 17.9756 30.2893 17.9219C30.5912 17.8242 30.8277 17.668 30.883 17.4678V17.3555C30.883 16.7891 31.2302 16.1885 31.7082 15.6953C32.2314 15.1582 32.9308 14.7334 33.5195 14.6162C33.8918 14.543 34.2692 14.5381 34.6365 14.5918C35.0189 14.6504 35.3912 14.7676 35.7434 14.9385L35.7736 14.9482C36.1308 15.124 36.4579 15.3486 36.7447 15.6123C37.0264 15.876 37.2679 16.1738 37.4491 16.501C37.7359 17.0137 37.8667 17.5996 37.7761 18.2197C37.6956 18.7617 37.6755 19.1035 37.2075 19.6455L37.2025 19.6504C37.0365 19.8408 36.966 20.0801 36.9862 20.3145C37.0063 20.5391 37.1119 20.7588 37.2981 20.915L37.3283 20.9395C37.5245 21.0957 37.766 21.1592 38.0025 21.1397C38.234 21.1201 38.4604 21.0176 38.6214 20.8369L38.6465 20.8027C39.1296 20.2461 39.2855 19.8359 39.5069 19.1328ZM50.556 43.0293C50.4604 42.7998 50.405 42.5508 50.405 42.2871C50.405 42.0234 50.4604 41.7744 50.556 41.5449C50.6566 41.3154 50.7975 41.1055 50.9786 40.9346L50.9887 40.9199C51.0893 40.8223 51.205 40.7295 51.3308 40.6563C51.3962 40.6172 51.4667 40.5781 51.5421 40.5439V37.4629H47.6377C47.6428 37.2627 47.6428 37.0625 47.6327 36.8574C47.6226 36.7451 47.673 36.6328 47.7736 36.5693C48.1761 36.3008 48.5434 36.0225 48.8755 35.7344H52.4277C52.6742 35.7344 52.8956 35.832 53.0566 35.9883C53.2176 36.1445 53.3182 36.3594 53.3182 36.5986V40.5732C53.3786 40.6025 53.439 40.6367 53.4994 40.6758C53.605 40.7441 53.7057 40.8223 53.7962 40.9102L53.8113 40.9248C53.9925 41.1006 54.1434 41.3154 54.244 41.5547C54.3396 41.7842 54.395 42.0332 54.395 42.2969C54.395 42.5508 54.3447 42.7949 54.2491 43.0244L54.244 43.0391C54.1434 43.2783 53.9925 43.4883 53.8113 43.6689C53.6302 43.8447 53.4088 43.9912 53.1623 44.0889C52.9258 44.1816 52.6692 44.2354 52.3975 44.2354C52.1308 44.2354 51.8742 44.1816 51.6327 44.0889C51.3862 43.9912 51.1648 43.8447 50.9837 43.6689C50.8076 43.4834 50.6566 43.2686 50.556 43.0293ZM56.2113 33.1416H50.9031C50.9937 32.9512 51.0742 32.7607 51.1447 32.5654C51.2855 32.1846 51.3862 31.7988 51.4465 31.4131H56.2113C56.2465 31.3496 56.2818 31.2861 56.322 31.2227C56.3975 31.1055 56.4881 30.998 56.5836 30.9053C56.7698 30.7246 56.9862 30.583 57.2327 30.4854C57.4692 30.3926 57.7258 30.3389 57.9975 30.3389C58.2591 30.3389 58.5107 30.3877 58.7472 30.4805L58.7623 30.4854C59.0088 30.583 59.2252 30.7295 59.4113 30.9053C59.5925 31.0811 59.7434 31.2959 59.844 31.5352C59.9396 31.7647 59.995 32.0137 59.995 32.2773C59.995 32.5361 59.9396 32.7852 59.844 33.0195C59.7434 33.2588 59.5925 33.4736 59.4113 33.6494C59.2302 33.8252 59.0088 33.9717 58.7623 34.0693C58.5258 34.1621 58.2692 34.2158 57.9975 34.2158C57.7359 34.2158 57.4843 34.167 57.2478 34.0742L57.2327 34.0693C56.9862 33.9717 56.7698 33.8252 56.5836 33.6494C56.4881 33.5566 56.4025 33.4541 56.327 33.3418L56.317 33.3271C56.2818 33.2686 56.2465 33.2051 56.2113 33.1416ZM57.9019 28.415H51.2252C51.0541 27.8682 50.8126 27.3359 50.5107 26.8281L50.5006 26.8135C50.4755 26.7695 50.4503 26.7305 50.4252 26.6865H57.0164V21.0469C56.966 21.0176 56.9157 20.9883 56.8654 20.9541C56.7648 20.8857 56.6742 20.8125 56.5887 20.7295C56.4076 20.5537 56.2566 20.3389 56.156 20.0996C56.0604 19.8701 56.005 19.6211 56.005 19.3574C56.005 19.0986 56.0604 18.8447 56.156 18.6152C56.2566 18.376 56.4076 18.166 56.5887 17.9854C56.7698 17.8096 56.9912 17.6631 57.2377 17.5654C57.4742 17.4727 57.7308 17.4189 58.0025 17.4189C58.2692 17.4189 58.5258 17.4727 58.7673 17.5654C59.0138 17.6631 59.2352 17.8096 59.4164 17.9854C59.5975 18.1611 59.7484 18.376 59.8491 18.6152C59.9447 18.8447 60 19.0938 60 19.3574C60 19.6113 59.9497 19.8555 59.8541 20.085L59.8491 20.0996C59.7484 20.3389 59.5975 20.5488 59.4164 20.7295C59.3057 20.8369 59.1748 20.9346 59.039 21.0176C58.9635 21.0615 58.878 21.1055 58.7975 21.1397V27.5459C58.7975 27.7852 58.6969 28 58.5359 28.1563C58.3698 28.3174 58.1484 28.415 57.9019 28.415ZM50.9233 24.2451H48.6491C48.7094 23.9229 48.7447 23.6006 48.7598 23.2783C48.7698 23.0195 48.7698 22.7656 48.7547 22.5166H50.0327V19.9678C49.9623 19.9336 49.8969 19.8994 49.8315 19.8555C49.7107 19.7822 49.6 19.6943 49.4943 19.5918C49.3132 19.416 49.1623 19.2012 49.0616 18.9619C48.966 18.7324 48.9107 18.4834 48.9107 18.2246C48.9107 17.9658 48.966 17.7168 49.0616 17.4824C49.1623 17.2529 49.3031 17.043 49.4792 16.8672L49.4943 16.8525C49.6755 16.6768 49.8969 16.5303 50.1434 16.4326C50.3799 16.3398 50.6365 16.2861 50.9082 16.2861C51.1799 16.2861 51.4365 16.3398 51.673 16.4326C51.9094 16.5303 52.1258 16.667 52.3069 16.8428L52.322 16.8525C52.5031 17.0283 52.6491 17.2334 52.7497 17.4678L52.7547 17.4824C52.8503 17.7119 52.9057 17.9609 52.9057 18.2246C52.9057 18.4834 52.8503 18.7373 52.7547 18.9668C52.6541 19.1963 52.5132 19.4063 52.3371 19.582L52.322 19.5967C52.2264 19.6895 52.1208 19.7725 52 19.8506C51.9396 19.8897 51.8792 19.9238 51.8138 19.9531V23.3809C51.8138 23.6201 51.7132 23.835 51.5522 23.9912C51.3912 24.1475 51.1648 24.2451 50.9233 24.2451ZM15.6629 9.46484C15.8994 9.55762 16.156 9.61133 16.4277 9.61133C16.6994 9.61133 16.956 9.55762 17.1925 9.46484C17.4289 9.36719 17.6453 9.23047 17.8214 9.05469L17.8365 9.04492C17.9371 8.94727 18.0327 8.83496 18.1082 8.71289C18.1484 8.64941 18.1887 8.58105 18.2239 8.50781H21.3987V11.1689C21.9572 10.8809 22.561 10.6709 23.1799 10.5488V7.64356C23.1799 7.4043 23.0792 7.18945 22.9182 7.0332C22.7572 6.87695 22.5359 6.7793 22.2893 6.7793H18.1937C18.1635 6.7207 18.1283 6.66211 18.0881 6.60352C18.0176 6.50098 17.9371 6.40332 17.8465 6.31543L17.8314 6.30078C17.6503 6.125 17.4289 5.97852 17.1824 5.88086C16.9459 5.78809 16.6893 5.73438 16.4176 5.73438C16.156 5.73438 15.8994 5.7832 15.6679 5.87598L15.6528 5.88086C15.4063 5.97852 15.1899 6.125 15.0038 6.30078C14.8226 6.47656 14.6717 6.69141 14.5711 6.93066C14.4755 7.16016 14.4201 7.40918 14.4201 7.67285C14.4201 7.93164 14.4755 8.18067 14.5711 8.41504C14.6717 8.6543 14.8226 8.86914 15.0038 9.04492C15.2 9.2207 15.4164 9.36719 15.6629 9.46484ZM25.8566 3.97656V10.6465C26.4503 10.8125 27.0289 11.0762 27.5723 11.457L27.6327 11.501C27.6327 11.4863 27.6377 11.4717 27.6377 11.457V3.97656C27.7031 3.94238 27.7686 3.9082 27.834 3.86914C27.9547 3.7959 28.0654 3.70801 28.161 3.61523C28.3421 3.43457 28.4931 3.22461 28.5937 2.98535C28.6893 2.75586 28.7447 2.50684 28.7447 2.24316C28.7447 1.98926 28.6943 1.74512 28.5987 1.51563L28.5937 1.50098C28.4931 1.26172 28.3421 1.05176 28.161 0.871094C27.9799 0.695312 27.7585 0.548828 27.512 0.451172C27.2755 0.358398 27.0189 0.304688 26.7472 0.304688C26.4805 0.304688 26.2239 0.358398 25.9824 0.451172C25.7358 0.548828 25.5145 0.695312 25.3333 0.871094C25.1522 1.04688 25.0013 1.26172 24.9006 1.50098C24.805 1.73047 24.7497 1.97949 24.7497 2.24316C24.7497 2.49707 24.8 2.74121 24.8956 2.9707L24.9006 2.98535C25.0013 3.22461 25.1522 3.43457 25.3333 3.61523C25.4289 3.70801 25.5346 3.79102 25.6503 3.86426L25.6604 3.86914C25.7258 3.9082 25.7862 3.94238 25.8566 3.97656ZM30.722 2.33594V12.0918C30.9635 11.8525 31.2201 11.6426 31.4818 11.457C31.8088 11.2275 32.1509 11.0371 32.5031 10.8906V3.19531H38.3145C38.3447 3.24414 38.3748 3.29297 38.4101 3.3418C38.4805 3.43945 38.556 3.52734 38.6415 3.61035C38.8226 3.78613 39.044 3.93262 39.2906 4.03027C39.527 4.12305 39.7836 4.17676 40.0553 4.17676C40.322 4.17676 40.5836 4.12305 40.8201 4.03027C41.0667 3.93262 41.2881 3.78613 41.4692 3.61035C41.6503 3.43457 41.8013 3.21973 41.9019 2.98047C41.9975 2.75098 42.0528 2.50195 42.0528 2.23828C42.0528 1.97949 41.9975 1.73047 41.9019 1.49609C41.8013 1.25684 41.6503 1.04199 41.4692 0.866211C41.278 0.69043 41.0566 0.543945 40.8101 0.446289C40.5736 0.353516 40.317 0.299805 40.0503 0.299805C39.7887 0.299805 39.5371 0.348633 39.3006 0.441406L39.2855 0.446289C39.039 0.543945 38.8226 0.69043 38.6365 0.866211C38.5258 0.973633 38.4252 1.10059 38.3396 1.23242C38.2943 1.30566 38.2491 1.38867 38.2138 1.4668H31.6126C31.366 1.4668 31.1447 1.56445 30.9837 1.7207C30.8226 1.88184 30.722 2.09668 30.722 2.33594ZM35.0189 9.1084V10.4463C35.2 10.4561 35.3862 10.4707 35.5673 10.5C35.9899 10.5586 36.4025 10.6611 36.8 10.8027V9.97754H39.4264C39.4616 10.0459 39.4969 10.1094 39.5421 10.1729C39.6176 10.29 39.7082 10.3975 39.8138 10.5C39.995 10.6758 40.2164 10.8223 40.4629 10.9199C40.6994 11.0127 40.956 11.0664 41.2226 11.0664C41.4893 11.0664 41.7459 11.0127 41.9874 10.9199C42.2239 10.8223 42.4403 10.6855 42.6214 10.5146L42.6365 10.5C42.8176 10.3242 42.9686 10.1094 43.0692 9.87012C43.1648 9.64063 43.2201 9.3916 43.2201 9.12793C43.2201 8.86426 43.1648 8.61523 43.0692 8.38574C42.9686 8.15625 42.8277 7.94629 42.6465 7.77051L42.6365 7.75586C42.4553 7.58008 42.244 7.43848 42.0025 7.34082L41.9874 7.33594C41.7509 7.24316 41.4943 7.18945 41.2226 7.18945C40.956 7.18945 40.6943 7.24316 40.4579 7.33594C40.2214 7.43359 40.005 7.57031 39.8239 7.74121L39.8088 7.75586C39.7132 7.84863 39.6277 7.95117 39.5472 8.06836C39.5069 8.12695 39.4717 8.18555 39.4415 8.24902H35.9094C35.6629 8.24902 35.4415 8.34668 35.2805 8.50293C35.1195 8.6543 35.0189 8.86914 35.0189 9.1084ZM9.44403 17.4873C9.53962 17.7168 9.59497 17.9658 9.59497 18.2295C9.59497 18.4932 9.53962 18.7422 9.44403 18.9717C9.3434 19.2012 9.20252 19.4111 9.02138 19.582L9.01132 19.5967C8.91069 19.6943 8.79497 19.7871 8.66918 19.8604C8.60377 19.8994 8.53333 19.9385 8.45786 19.9727V23.0537H11.7535V23.2051C11.7535 23.3223 11.7585 23.4443 11.7635 23.5713C11.7736 23.6787 11.7233 23.7861 11.6277 23.8545C11.195 24.1523 10.8075 24.4648 10.4553 24.7822H7.57736C7.33082 24.7822 7.10943 24.6846 6.94843 24.5283C6.78742 24.3721 6.68679 24.1572 6.68679 23.918V19.9434C6.62642 19.9141 6.56604 19.8799 6.50566 19.8408C6.4 19.7725 6.29937 19.6943 6.20881 19.6064L6.19371 19.5918C6.01258 19.416 5.86164 19.2012 5.76101 18.9619C5.66541 18.7324 5.61006 18.4834 5.61006 18.2197C5.61006 17.9658 5.66038 17.7217 5.75597 17.4922L5.76101 17.4775C5.86164 17.2383 6.01258 17.0283 6.19371 16.8477C6.37484 16.6719 6.59623 16.5254 6.84277 16.4277C7.07925 16.335 7.33585 16.2813 7.60755 16.2813C7.87421 16.2813 8.13082 16.335 8.37233 16.4277C8.61887 16.5254 8.84025 16.6719 9.02138 16.8477C9.19245 17.0332 9.3434 17.248 9.44403 17.4873ZM3.78868 27.375H8.51824C8.43774 27.5508 8.3673 27.7314 8.30189 27.9072C8.16101 28.3027 8.06038 28.6982 8 29.0986H3.78868C3.75346 29.1621 3.71824 29.2256 3.67799 29.2891C3.60252 29.4063 3.51195 29.5137 3.41635 29.6064C3.23019 29.7871 3.01384 29.9287 2.7673 30.0264C2.53082 30.1191 2.27421 30.1729 2.00252 30.1729C1.74088 30.1729 1.48931 30.124 1.25283 30.0313L1.23774 30.0264C0.991195 29.9287 0.774843 29.7822 0.588679 29.6064C0.407547 29.4307 0.256604 29.2158 0.155975 28.9766C0.0603774 28.7471 0.00503145 28.498 0.00503145 28.2344C0.00503145 27.9756 0.0603774 27.7266 0.155975 27.4922C0.256604 27.2529 0.407547 27.0381 0.588679 26.8623C0.769811 26.6865 0.991195 26.54 1.23774 26.4424C1.47421 26.3496 1.73082 26.2959 2.00252 26.2959C2.26415 26.2959 2.51572 26.3447 2.7522 26.4375L2.7673 26.4424C3.01384 26.54 3.23019 26.6865 3.41635 26.8623C3.51195 26.9551 3.59748 27.0576 3.67296 27.1699L3.68302 27.1846C3.71824 27.248 3.75346 27.3115 3.78868 27.375ZM2.09811 32.1016H8.25157C8.44277 32.6924 8.7195 33.2637 9.0717 33.8057V33.8105L9.08176 33.8301H2.98365V39.4697C3.03396 39.499 3.08428 39.5283 3.13459 39.5625C3.23522 39.6309 3.32579 39.7041 3.41132 39.7871C3.59245 39.9629 3.7434 40.1777 3.84403 40.417C3.93962 40.6465 3.99497 40.8955 3.99497 41.1592C3.99497 41.418 3.93962 41.6719 3.84403 41.9014C3.7434 42.1406 3.59245 42.3506 3.41132 42.5312C3.23019 42.707 3.00881 42.8535 2.76226 42.9512C2.52579 43.0439 2.26918 43.0977 1.99748 43.0977C1.73082 43.0977 1.47421 43.0439 1.2327 42.9512C0.986164 42.8535 0.76478 42.707 0.583648 42.5312C0.402516 42.3408 0.251572 42.126 0.150943 41.8916C0.0553459 41.6621 0 41.4131 0 41.1494C0 40.8955 0.0503145 40.6514 0.145912 40.4219L0.150943 40.4072C0.251572 40.168 0.402516 39.958 0.583648 39.7773C0.69434 39.6699 0.825157 39.5723 0.961006 39.4893C1.03648 39.4453 1.12201 39.4014 1.20252 39.3672V32.9609C1.20252 32.7217 1.30314 32.5068 1.46415 32.3506C1.63019 32.1992 1.85157 32.1016 2.09811 32.1016ZM9.07673 36.2715H10.7371C10.6818 36.5938 10.6516 36.9111 10.6415 37.2236C10.6314 37.4873 10.6365 37.7461 10.6566 38H9.9673V40.5488C10.0377 40.583 10.1031 40.6172 10.1686 40.6611C10.2893 40.7344 10.4 40.8223 10.5057 40.9248C10.6868 41.1006 10.8377 41.3154 10.9384 41.5547C11.034 41.7842 11.0893 42.0332 11.0893 42.2969C11.0893 42.5606 11.034 42.8047 10.9384 43.0391C10.8377 43.2686 10.6969 43.4785 10.5208 43.6543L10.5057 43.6689C10.3245 43.8447 10.1031 43.9912 9.8566 44.0889C9.62013 44.1816 9.36352 44.2354 9.09182 44.2354C8.82013 44.2354 8.56352 44.1816 8.32704 44.0889C8.09057 43.9912 7.87421 43.8545 7.69308 43.6787L7.67799 43.6689C7.49686 43.4932 7.35094 43.2881 7.25031 43.0537L7.24528 43.0391C7.14969 42.8096 7.09434 42.5606 7.09434 42.2969C7.09434 42.0381 7.14969 41.7842 7.24528 41.5547C7.34591 41.3252 7.48679 41.1152 7.66289 40.9395L7.67799 40.9248C7.77359 40.832 7.87925 40.749 8 40.6709C8.06038 40.6318 8.12076 40.5977 8.18616 40.5684V37.1406C8.18616 36.9014 8.28679 36.6865 8.4478 36.5303C8.60881 36.3643 8.83019 36.2715 9.07673 36.2715ZM33.2226 56.6231V49.792C32.5937 49.6016 32 49.2939 31.4566 48.8594L31.4465 48.8496V56.6279C31.3811 56.6621 31.3157 56.6963 31.2503 56.7354C31.1296 56.8086 31.0189 56.8965 30.9233 56.9893C30.7421 57.1699 30.5912 57.3799 30.4906 57.6191C30.395 57.8486 30.3396 58.0977 30.3396 58.3613C30.3396 58.6152 30.3899 58.8594 30.4855 59.0889L30.4906 59.1035C30.5912 59.3428 30.7421 59.5527 30.9233 59.7334C31.1044 59.9092 31.3258 60.0557 31.5723 60.1533C31.8088 60.2461 32.0654 60.2998 32.3371 60.2998C32.6038 60.2998 32.8604 60.2461 33.1019 60.1533C33.3484 60.0557 33.5698 59.9092 33.7509 59.7334C33.9321 59.5576 34.083 59.3428 34.1837 59.1035C34.2792 58.874 34.3346 58.625 34.3346 58.3613C34.3346 58.1074 34.2843 57.8633 34.1887 57.6338L34.1837 57.6191C34.083 57.3799 33.9321 57.1699 33.7509 56.9893C33.6553 56.8965 33.5497 56.8135 33.434 56.7402L33.4189 56.7305C33.3535 56.6914 33.2881 56.6572 33.2226 56.6231ZM28.3522 58.2637V48.4199C28.1409 48.6299 27.9195 48.8154 27.6881 48.9863C27.3308 49.25 26.9585 49.46 26.5711 49.626V57.4092H20.7597C20.7296 57.3604 20.6994 57.3115 20.6642 57.2627C20.5937 57.165 20.5182 57.0772 20.4327 56.9941C20.2516 56.8184 20.0302 56.6719 19.7836 56.5742C19.5472 56.4814 19.2906 56.4277 19.0189 56.4277C18.7522 56.4277 18.4906 56.4814 18.2541 56.5742C18.0075 56.6719 17.7912 56.8184 17.605 56.9941C17.4239 57.1699 17.273 57.3848 17.1723 57.624C17.0767 57.8535 17.0214 58.1025 17.0214 58.3662C17.0214 58.625 17.0767 58.874 17.1723 59.1084C17.273 59.3477 17.4239 59.5625 17.605 59.7383C17.7862 59.9141 18.0075 60.0605 18.2541 60.1582C18.4906 60.251 18.7472 60.3047 19.0189 60.3047C19.2805 60.3047 19.5321 60.2559 19.7686 60.1631L19.7836 60.1582C20.0302 60.0605 20.2465 59.9141 20.4327 59.7383C20.5434 59.6309 20.644 59.5039 20.7296 59.3721C20.7748 59.2988 20.8201 59.2158 20.8553 59.1377H27.4566C27.7031 59.1377 27.9245 59.04 28.0855 58.8838C28.2516 58.7178 28.3522 58.5029 28.3522 58.2637ZM24.0553 51.4912V50.0703C23.6629 50.0508 23.2704 49.9922 22.8881 49.8994C22.6818 49.8506 22.4755 49.7871 22.2742 49.7188V50.6318H19.6478C19.6126 50.5635 19.5774 50.5 19.5321 50.4365C19.4566 50.3193 19.366 50.2119 19.2604 50.1094C19.0792 49.9336 18.8579 49.7871 18.6113 49.6895C18.3748 49.5967 18.1182 49.543 17.8516 49.543C17.5849 49.543 17.3283 49.5967 17.0868 49.6895C16.8503 49.7871 16.634 49.9238 16.4528 50.0947L16.4377 50.1045C16.2566 50.2803 16.1057 50.4951 16.005 50.7344C15.9094 50.9639 15.8541 51.2129 15.8541 51.4766C15.8541 51.7402 15.9094 51.9893 16.005 52.2188C16.1057 52.4482 16.2465 52.6582 16.4277 52.834L16.4377 52.8486C16.6189 53.0244 16.8302 53.166 17.0717 53.2637L17.0868 53.2686C17.3233 53.3613 17.5799 53.415 17.8516 53.415C18.1182 53.415 18.3748 53.3613 18.6164 53.2686C18.8528 53.1709 19.0692 53.0342 19.2503 52.8633L19.2654 52.8486C19.361 52.7559 19.4465 52.6533 19.527 52.5361C19.5673 52.4775 19.6025 52.4189 19.6327 52.3555H23.1648C23.4113 52.3555 23.6327 52.2578 23.7937 52.1016C23.9547 51.9453 24.0553 51.7305 24.0553 51.4912Z" fill="#297899"/>
</g>
<defs>
<clipPath id="clip0_1011_44">
<rect width="60" height="60" fill="white" transform="translate(0 0.299805)"/>
</clipPath>
</defs>
</svg>
