<svg width="41" height="41" viewBox="0 0 41 41" fill="none" xmlns="http://www.w3.org/2000/svg">
<g clip-path="url(#clip0_1007_24)">
<path d="M2.96586 38.1222L25.8324 38.1214L27.8557 40.6113H2.9643C1.58998 40.6113 0.475586 39.4973 0.475586 38.1222V34.3856C0.475586 33.0055 2.9643 31.8965 2.9643 31.8965L13.8997 26.7347C10.4168 23.9393 9.17597 18.4386 9.17597 15.7199V9.49732C9.17597 5.37592 14.8888 0.786816 20.3873 0.786816C25.8857 0.786816 31.5911 5.37592 31.5911 9.49732V15.7199C31.5911 18.7086 30.4238 24.0421 26.974 26.7572L33.7316 29.9222L32.2472 32.0261L25.9343 29.0203C25.1464 28.658 24.6028 27.9129 24.5009 27.0506C24.3985 26.1895 24.7522 25.3374 25.4332 24.8012C28.1048 22.6973 29.1009 18.1152 29.1009 15.7203V9.49771C29.1009 6.83934 24.6161 3.27787 20.3873 3.27787C16.1958 3.27787 11.6666 6.89616 11.6666 9.49771V15.7203C11.6666 18.1514 12.8717 22.7168 15.4585 24.7938C16.1316 25.3335 16.4771 26.1833 16.3713 27.0393C16.2659 27.8954 15.725 28.6374 14.9413 28.9973L4.00594 34.1576C3.70944 34.2946 2.96625 34.6055 2.96625 35.5954L2.96586 38.1222ZM39.8806 28.9296C40.4223 29.353 40.5176 30.1355 40.0943 30.6763L34.1678 39.7156C34.1071 39.8611 34.0184 39.9981 33.9001 40.116C33.4141 40.602 32.6258 40.602 32.1398 40.116L27.7375 35.7137C27.2511 35.2273 27.2511 34.4393 27.7375 33.953C28.2238 33.467 29.0126 33.467 29.4985 33.953L32.8083 37.2631L38.1332 29.1425C38.5565 28.6016 39.3398 28.5047 39.8806 28.9296Z" fill="#297899"/>
</g>
<defs>
<clipPath id="clip0_1007_24">
<rect width="40" height="40" fill="white" transform="matrix(1 0 0 -1 0.398438 40.6997)"/>
</clipPath>
</defs>
</svg>
