<svg width="55" height="55" viewBox="0 0 55 55" fill="none" xmlns="http://www.w3.org/2000/svg">
<g clip-path="url(#clip0_365_810)">
<g clip-path="url(#clip1_365_810)">
<path d="M16.7346 48.7452C17.4775 48.7452 18.0796 48.143 18.0796 47.4002C18.0796 46.6574 17.4775 46.0552 16.7346 46.0552C15.9918 46.0552 15.3896 46.6574 15.3896 47.4002C15.3896 48.143 15.9918 48.7452 16.7346 48.7452Z" fill="#297899"/>
<path d="M43.6468 48.7452C44.3896 48.7452 44.9918 48.143 44.9918 47.4002C44.9918 46.6574 44.3896 46.0552 43.6468 46.0552C42.9039 46.0552 42.3018 46.6574 42.3018 47.4002C42.3018 48.143 42.9039 48.7452 43.6468 48.7452Z" fill="#297899"/>
<path d="M53.0666 46.0551H50.2394C49.9271 44.5372 49.1007 43.1735 47.8997 42.1944C46.6986 41.2152 45.1964 40.6804 43.6467 40.6804C42.0971 40.6804 40.5949 41.2152 39.3938 42.1944C38.1927 43.1735 37.3663 44.5372 37.0541 46.0551H23.3239C23.0228 44.6019 22.2491 43.2892 21.1237 42.3219C19.9982 41.3545 18.5842 40.7869 17.1023 40.7076L12.6869 10.8718C12.6443 10.5864 12.5115 10.3221 12.3078 10.1177L2.88596 0.697842C2.35591 0.193795 1.52083 0.204796 1.00478 0.722844C0.488735 1.24089 0.480734 2.07597 0.985781 2.60402L10.0866 11.7049L14.441 41.1006C12.9703 41.6413 11.7347 42.679 10.9479 44.0342C10.1612 45.3894 9.87269 46.9769 10.1324 48.5222C10.3921 50.0676 11.1836 51.4736 12.3701 52.4972C13.5566 53.5207 15.0635 54.0975 16.6302 54.1278C18.199 54.1537 19.7273 53.6299 20.9504 52.6472C22.1735 51.6645 23.0142 50.2848 23.3269 48.7473H37.0541C37.3663 50.2652 38.1927 51.6288 39.3938 52.608C40.5949 53.5872 42.0971 54.1219 43.6467 54.1219C45.1964 54.1219 46.6986 53.5872 47.8997 52.608C49.1007 51.6288 49.9271 50.2652 50.2394 48.7473H53.0656C53.8087 48.7473 54.4117 48.1452 54.4117 47.4012C54.4117 46.6571 53.8107 46.0551 53.0666 46.0551ZM16.7342 51.4376C14.505 51.4376 12.6979 49.6304 12.6979 47.4012C12.6979 45.172 14.505 43.3648 16.7342 43.3648C18.9634 43.3648 20.7706 45.172 20.7706 47.4012C20.7706 48.4713 20.3456 49.4984 19.5885 50.2554C18.8314 51.0125 17.8053 51.4376 16.7342 51.4376ZM43.6467 51.4376C41.4175 51.4376 39.6104 49.6304 39.6104 47.4012C39.6104 45.172 41.4175 43.3648 43.6467 43.3648C45.8759 43.3648 47.6831 45.172 47.6831 47.4012C47.6831 48.4713 47.2581 49.4984 46.501 50.2554C45.7439 51.0125 44.7178 51.4376 43.6467 51.4376ZM53.8687 14.8312C53.618 14.4985 53.2935 14.2286 52.9207 14.0427C52.5479 13.8569 52.137 13.7601 51.7205 13.7601V2.99505H38.2642V0.299805H24.807V8.37755H19.4245V13.7601H18.6174C18.2319 13.76 17.8509 13.8429 17.5002 14.0029C17.1495 14.163 16.8373 14.3966 16.5848 14.6878C16.3322 14.9791 16.1452 15.3212 16.0364 15.691C15.9276 16.0608 15.8996 16.4497 15.9542 16.8313L18.6454 35.6701C18.7367 36.3114 19.0563 36.8983 19.5456 37.3229C20.0348 37.7475 20.6609 37.9813 21.3087 37.9813H46.337C46.922 37.9816 47.4911 37.7911 47.9582 37.4389C48.4252 37.0866 48.7647 36.5917 48.9252 36.0291L54.3097 17.1904C54.4239 16.7898 54.4434 16.3682 54.3669 15.9589C54.2904 15.5495 54.1198 15.1634 53.8687 14.8312ZM38.2672 5.68631H49.0292V13.7601H38.2642L38.2672 5.68631ZM27.4992 2.99505H35.573V13.7601H32.8817V8.37755H27.4992V2.99505ZM22.1167 11.0688H30.1905V13.7601H22.1167V11.0688ZM46.338 35.2901H21.3067L18.6184 16.4513H51.7215L46.338 35.2901Z" fill="#297899"/>
</g>
</g>
<defs>
<clipPath id="clip0_365_810">
<rect width="53.83" height="53.83" fill="white" transform="translate(0.584961 0.299805)"/>
</clipPath>
<clipPath id="clip1_365_810">
<rect width="53.825" height="53.83" fill="white" transform="translate(0.587891 0.299805)"/>
</clipPath>
</defs>
</svg>
