<svg width="55" height="55" viewBox="0 0 55 55" fill="none" xmlns="http://www.w3.org/2000/svg">
<g clip-path="url(#clip0_365_849)">
<path d="M41.7671 24.1386H36.3861V21.4481C36.3863 21.0947 36.3168 20.7448 36.1816 20.4183C36.0464 20.0918 35.8483 19.7952 35.5984 19.5453C35.3485 19.2955 35.0519 19.0973 34.7254 18.9621C34.3989 18.827 34.049 18.7575 33.6956 18.7576H29.2075V9.34133C29.2085 8.59947 29.8103 7.99758 30.5522 7.99658H45.8044V5.30908H30.5562C29.4868 5.31014 28.4615 5.73521 27.7051 6.49109C26.9486 7.24697 26.5228 8.27196 26.521 9.34133V18.7576H21.14C20.7866 18.7575 20.4367 18.827 20.1102 18.9621C19.7837 19.0973 19.4871 19.2955 19.2372 19.5453C18.9873 19.7952 18.7892 20.0918 18.654 20.4183C18.5188 20.7448 18.4493 21.0947 18.4495 21.4481V24.1386H13.0685C10.2426 24.139 7.49954 25.0925 5.28273 26.845C3.06592 28.5974 1.50497 31.0463 0.852269 33.7957C0.199573 36.5452 0.493287 39.4344 1.68592 41.9962C2.87855 44.558 4.90039 46.6427 7.42451 47.9132C9.95044 49.1821 12.8306 49.5617 15.599 48.9905C18.3675 48.4193 20.8622 46.9308 22.6797 44.7658H32.1559C35.8972 49.2209 42.209 50.5217 47.4071 47.9092C52.6051 45.2967 55.3266 39.4547 53.9839 33.7948C52.6411 28.1348 47.585 24.1376 41.7671 24.1386ZM21.14 21.4481H33.6956V24.1386H21.14V21.4481ZM41.7671 46.5594C38.4327 46.5594 35.3243 44.8727 33.5067 42.0773H21.3319C18.7554 46.0325 13.7383 47.6082 9.36315 45.8356C4.98796 44.0629 2.48243 39.4397 3.38626 34.8066C4.29009 30.1735 8.34934 26.8301 13.0695 26.8311H41.7641C44.3803 26.8319 46.8891 27.8715 48.739 29.7214C50.5889 31.5713 51.6285 34.0801 51.6293 36.6963C51.6285 39.3124 50.5889 41.8212 48.739 43.6711C46.8891 45.521 44.3803 46.5606 41.7641 46.5614L41.7671 46.5594Z" fill="#297899"/>
<path d="M46.7 38.9398C47.9382 38.9398 48.942 37.936 48.942 36.6978C48.942 35.4596 47.9382 34.4558 46.7 34.4558C45.4618 34.4558 44.458 35.4596 44.458 36.6978C44.458 37.936 45.4618 38.9398 46.7 38.9398Z" fill="#297899"/>
<path d="M35.9373 38.9398C37.1755 38.9398 38.1793 37.936 38.1793 36.6978C38.1793 35.4596 37.1755 34.4558 35.9373 34.4558C34.6991 34.4558 33.6953 35.4596 33.6953 36.6978C33.6953 37.936 34.6991 38.9398 35.9373 38.9398Z" fill="#297899"/>
<path d="M41.3191 34.0077C42.5574 34.0077 43.5611 33.0039 43.5611 31.7657C43.5611 30.5275 42.5574 29.5237 41.3191 29.5237C40.0809 29.5237 39.0771 30.5275 39.0771 31.7657C39.0771 33.0039 40.0809 34.0077 41.3191 34.0077Z" fill="#297899"/>
<path d="M41.3191 43.8727C42.5574 43.8727 43.5611 42.8689 43.5611 41.6307C43.5611 40.3925 42.5574 39.3887 41.3191 39.3887C40.0809 39.3887 39.0771 40.3925 39.0771 41.6307C39.0771 42.8689 40.0809 43.8727 41.3191 43.8727Z" fill="#297899"/>
<path d="M13.9657 35.8016V31.3174H11.2752V35.8016H6.79102V38.492H11.2752V42.9762H13.9657V38.492H18.4499V35.8016H13.9657Z" fill="#297899"/>
</g>
<defs>
<clipPath id="clip0_365_849">
<rect width="53.819" height="53.81" fill="white" transform="translate(0.505859 0.310059)"/>
</clipPath>
</defs>
</svg>
